G04 #@! TF.FileFunction,Paste,Top*
%FSLAX46Y46*%
G04 Gerber Fmt 4.6, Leading zero omitted, Abs format (unit mm)*
G04 Created by KiCad (PCBNEW 4.0.5) date *
%MOMM*%
%LPD*%
G01*
G04 APERTURE LIST*
%ADD10C,0.100000*%
%ADD11R,1.506220X3.014980*%
%ADD12O,1.506220X3.014980*%
%ADD13R,1.250000X1.000000*%
%ADD14R,1.000000X1.600000*%
G04 APERTURE END LIST*
D10*
D11*
X131540000Y-119000000D03*
D12*
X129000000Y-119000000D03*
X126460000Y-119000000D03*
D13*
X115250000Y-58250000D03*
X115250000Y-60250000D03*
X115250000Y-74750000D03*
X115250000Y-76750000D03*
X115250000Y-91250000D03*
X115250000Y-93250000D03*
X115250000Y-107750000D03*
X115250000Y-109750000D03*
X115250000Y-124250000D03*
X115250000Y-126250000D03*
X115250000Y-140750000D03*
X115250000Y-142750000D03*
X131750000Y-58250000D03*
X131750000Y-60250000D03*
X131750000Y-74750000D03*
X131750000Y-76750000D03*
X131750000Y-91250000D03*
X131750000Y-93250000D03*
X131750000Y-107750000D03*
X131750000Y-109750000D03*
X131750000Y-124250000D03*
X131750000Y-126250000D03*
X131750000Y-140750000D03*
X131750000Y-142750000D03*
X148250000Y-58250000D03*
X148250000Y-60250000D03*
X148250000Y-74750000D03*
X148250000Y-76750000D03*
X148250000Y-91250000D03*
X148250000Y-93250000D03*
X148250000Y-107750000D03*
X148250000Y-109750000D03*
X148250000Y-124250000D03*
X148250000Y-126250000D03*
X148250000Y-140750000D03*
X148250000Y-142750000D03*
X164750000Y-58250000D03*
X164750000Y-60250000D03*
X164750000Y-74750000D03*
X164750000Y-76750000D03*
X164750000Y-91250000D03*
X164750000Y-93250000D03*
X164750000Y-107750000D03*
X164750000Y-109750000D03*
X164750000Y-124250000D03*
X164750000Y-126250000D03*
X164750000Y-140750000D03*
X164750000Y-142750000D03*
X181250000Y-58250000D03*
X181250000Y-60250000D03*
X181250000Y-74750000D03*
X181250000Y-76750000D03*
X181250000Y-91250000D03*
X181250000Y-93250000D03*
X181250000Y-107750000D03*
X181250000Y-109750000D03*
X181250000Y-124250000D03*
X181250000Y-126250000D03*
X181250000Y-140750000D03*
X181250000Y-142750000D03*
X197750000Y-58250000D03*
X197750000Y-60250000D03*
X197750000Y-74750000D03*
X197750000Y-76750000D03*
X197750000Y-91250000D03*
X197750000Y-93250000D03*
X197750000Y-107750000D03*
X197750000Y-109750000D03*
X197750000Y-124250000D03*
X197750000Y-126250000D03*
X197750000Y-140750000D03*
X197750000Y-142750000D03*
D14*
X121850000Y-56750000D03*
X118650000Y-56750000D03*
X121850000Y-61750000D03*
X118650000Y-61750000D03*
X121850000Y-73250000D03*
X118650000Y-73250000D03*
X121850000Y-78250000D03*
X118650000Y-78250000D03*
X121850000Y-89750000D03*
X118650000Y-89750000D03*
X121850000Y-94750000D03*
X118650000Y-94750000D03*
X121850000Y-106250000D03*
X118650000Y-106250000D03*
X121850000Y-111250000D03*
X118650000Y-111250000D03*
X121850000Y-122750000D03*
X118650000Y-122750000D03*
X121850000Y-127750000D03*
X118650000Y-127750000D03*
X121850000Y-139250000D03*
X118650000Y-139250000D03*
X121850000Y-144250000D03*
X118650000Y-144250000D03*
X138350000Y-56750000D03*
X135150000Y-56750000D03*
X138350000Y-61750000D03*
X135150000Y-61750000D03*
X138350000Y-73250000D03*
X135150000Y-73250000D03*
X138350000Y-78250000D03*
X135150000Y-78250000D03*
X138350000Y-89750000D03*
X135150000Y-89750000D03*
X138350000Y-94750000D03*
X135150000Y-94750000D03*
X138350000Y-106250000D03*
X135150000Y-106250000D03*
X138350000Y-111250000D03*
X135150000Y-111250000D03*
X138350000Y-122750000D03*
X135150000Y-122750000D03*
X138350000Y-127750000D03*
X135150000Y-127750000D03*
X138350000Y-139250000D03*
X135150000Y-139250000D03*
X138350000Y-144250000D03*
X135150000Y-144250000D03*
X154850000Y-56750000D03*
X151650000Y-56750000D03*
X154850000Y-61750000D03*
X151650000Y-61750000D03*
X154850000Y-73250000D03*
X151650000Y-73250000D03*
X154850000Y-78250000D03*
X151650000Y-78250000D03*
X154850000Y-89750000D03*
X151650000Y-89750000D03*
X154850000Y-94750000D03*
X151650000Y-94750000D03*
X154850000Y-106250000D03*
X151650000Y-106250000D03*
X154850000Y-111250000D03*
X151650000Y-111250000D03*
X154850000Y-122750000D03*
X151650000Y-122750000D03*
X154850000Y-127750000D03*
X151650000Y-127750000D03*
X154850000Y-139250000D03*
X151650000Y-139250000D03*
X154850000Y-144250000D03*
X151650000Y-144250000D03*
X171350000Y-56750000D03*
X168150000Y-56750000D03*
X171350000Y-61750000D03*
X168150000Y-61750000D03*
X171350000Y-73250000D03*
X168150000Y-73250000D03*
X171350000Y-78250000D03*
X168150000Y-78250000D03*
X171350000Y-89750000D03*
X168150000Y-89750000D03*
X171350000Y-94750000D03*
X168150000Y-94750000D03*
X171350000Y-106250000D03*
X168150000Y-106250000D03*
X171350000Y-111250000D03*
X168150000Y-111250000D03*
X171350000Y-122750000D03*
X168150000Y-122750000D03*
X171350000Y-127750000D03*
X168150000Y-127750000D03*
X171350000Y-139250000D03*
X168150000Y-139250000D03*
X171350000Y-144250000D03*
X168150000Y-144250000D03*
X187850000Y-56750000D03*
X184650000Y-56750000D03*
X187850000Y-61750000D03*
X184650000Y-61750000D03*
X187850000Y-73250000D03*
X184650000Y-73250000D03*
X187850000Y-78250000D03*
X184650000Y-78250000D03*
X187850000Y-89750000D03*
X184650000Y-89750000D03*
X187850000Y-94750000D03*
X184650000Y-94750000D03*
X187850000Y-106250000D03*
X184650000Y-106250000D03*
X187850000Y-111250000D03*
X184650000Y-111250000D03*
X187850000Y-122750000D03*
X184650000Y-122750000D03*
X187850000Y-127750000D03*
X184650000Y-127750000D03*
X187850000Y-139250000D03*
X184650000Y-139250000D03*
X187850000Y-144250000D03*
X184650000Y-144250000D03*
X204350000Y-56750000D03*
X201150000Y-56750000D03*
X204350000Y-61750000D03*
X201150000Y-61750000D03*
X204350000Y-73250000D03*
X201150000Y-73250000D03*
X204350000Y-78250000D03*
X201150000Y-78250000D03*
X204350000Y-89750000D03*
X201150000Y-89750000D03*
X204350000Y-94750000D03*
X201150000Y-94750000D03*
X204350000Y-106250000D03*
X201150000Y-106250000D03*
X204350000Y-111250000D03*
X201150000Y-111250000D03*
X204350000Y-122750000D03*
X201150000Y-122750000D03*
X204350000Y-127750000D03*
X201150000Y-127750000D03*
X204350000Y-139250000D03*
X201150000Y-139250000D03*
X204350000Y-144250000D03*
X201150000Y-144250000D03*
M02*
