G04 #@! TF.FileFunction,Soldermask,Top*
%FSLAX46Y46*%
G04 Gerber Fmt 4.6, Leading zero omitted, Abs format (unit mm)*
G04 Created by KiCad (PCBNEW 4.0.5) date *
%MOMM*%
%LPD*%
G01*
G04 APERTURE LIST*
%ADD10C,0.100000*%
%ADD11R,1.906220X3.414980*%
%ADD12O,1.906220X3.414980*%
%ADD13R,1.650000X1.400000*%
%ADD14R,1.400000X2.000000*%
%ADD15R,2.100000X2.100000*%
%ADD16O,2.100000X2.100000*%
%ADD17O,2.127200X3.448000*%
%ADD18C,4.464000*%
G04 APERTURE END LIST*
D10*
D11*
X131540000Y-119000000D03*
D12*
X129000000Y-119000000D03*
X126460000Y-119000000D03*
D13*
X115250000Y-58250000D03*
X115250000Y-60250000D03*
X115250000Y-74750000D03*
X115250000Y-76750000D03*
X115250000Y-91250000D03*
X115250000Y-93250000D03*
X115250000Y-107750000D03*
X115250000Y-109750000D03*
X115250000Y-124250000D03*
X115250000Y-126250000D03*
X115250000Y-140750000D03*
X115250000Y-142750000D03*
X131750000Y-58250000D03*
X131750000Y-60250000D03*
X131750000Y-74750000D03*
X131750000Y-76750000D03*
X131750000Y-91250000D03*
X131750000Y-93250000D03*
X131750000Y-107750000D03*
X131750000Y-109750000D03*
X131750000Y-124250000D03*
X131750000Y-126250000D03*
X131750000Y-140750000D03*
X131750000Y-142750000D03*
X148250000Y-58250000D03*
X148250000Y-60250000D03*
X148250000Y-74750000D03*
X148250000Y-76750000D03*
X148250000Y-91250000D03*
X148250000Y-93250000D03*
X148250000Y-107750000D03*
X148250000Y-109750000D03*
X148250000Y-124250000D03*
X148250000Y-126250000D03*
X148250000Y-140750000D03*
X148250000Y-142750000D03*
X164750000Y-58250000D03*
X164750000Y-60250000D03*
X164750000Y-74750000D03*
X164750000Y-76750000D03*
X164750000Y-91250000D03*
X164750000Y-93250000D03*
X164750000Y-107750000D03*
X164750000Y-109750000D03*
X164750000Y-124250000D03*
X164750000Y-126250000D03*
X164750000Y-140750000D03*
X164750000Y-142750000D03*
X181250000Y-58250000D03*
X181250000Y-60250000D03*
X181250000Y-74750000D03*
X181250000Y-76750000D03*
X181250000Y-91250000D03*
X181250000Y-93250000D03*
X181250000Y-107750000D03*
X181250000Y-109750000D03*
X181250000Y-124250000D03*
X181250000Y-126250000D03*
X181250000Y-140750000D03*
X181250000Y-142750000D03*
X197750000Y-58250000D03*
X197750000Y-60250000D03*
X197750000Y-74750000D03*
X197750000Y-76750000D03*
X197750000Y-91250000D03*
X197750000Y-93250000D03*
X197750000Y-107750000D03*
X197750000Y-109750000D03*
X197750000Y-124250000D03*
X197750000Y-126250000D03*
X197750000Y-140750000D03*
X197750000Y-142750000D03*
D14*
X121850000Y-56750000D03*
X118650000Y-56750000D03*
X121850000Y-61750000D03*
X118650000Y-61750000D03*
X121850000Y-73250000D03*
X118650000Y-73250000D03*
X121850000Y-78250000D03*
X118650000Y-78250000D03*
X121850000Y-89750000D03*
X118650000Y-89750000D03*
X121850000Y-94750000D03*
X118650000Y-94750000D03*
X121850000Y-106250000D03*
X118650000Y-106250000D03*
X121850000Y-111250000D03*
X118650000Y-111250000D03*
X121850000Y-122750000D03*
X118650000Y-122750000D03*
X121850000Y-127750000D03*
X118650000Y-127750000D03*
X121850000Y-139250000D03*
X118650000Y-139250000D03*
X121850000Y-144250000D03*
X118650000Y-144250000D03*
X138350000Y-56750000D03*
X135150000Y-56750000D03*
X138350000Y-61750000D03*
X135150000Y-61750000D03*
X138350000Y-73250000D03*
X135150000Y-73250000D03*
X138350000Y-78250000D03*
X135150000Y-78250000D03*
X138350000Y-89750000D03*
X135150000Y-89750000D03*
X138350000Y-94750000D03*
X135150000Y-94750000D03*
X138350000Y-106250000D03*
X135150000Y-106250000D03*
X138350000Y-111250000D03*
X135150000Y-111250000D03*
X138350000Y-122750000D03*
X135150000Y-122750000D03*
X138350000Y-127750000D03*
X135150000Y-127750000D03*
X138350000Y-139250000D03*
X135150000Y-139250000D03*
X138350000Y-144250000D03*
X135150000Y-144250000D03*
X154850000Y-56750000D03*
X151650000Y-56750000D03*
X154850000Y-61750000D03*
X151650000Y-61750000D03*
X154850000Y-73250000D03*
X151650000Y-73250000D03*
X154850000Y-78250000D03*
X151650000Y-78250000D03*
X154850000Y-89750000D03*
X151650000Y-89750000D03*
X154850000Y-94750000D03*
X151650000Y-94750000D03*
X154850000Y-106250000D03*
X151650000Y-106250000D03*
X154850000Y-111250000D03*
X151650000Y-111250000D03*
X154850000Y-122750000D03*
X151650000Y-122750000D03*
X154850000Y-127750000D03*
X151650000Y-127750000D03*
X154850000Y-139250000D03*
X151650000Y-139250000D03*
X154850000Y-144250000D03*
X151650000Y-144250000D03*
X171350000Y-56750000D03*
X168150000Y-56750000D03*
X171350000Y-61750000D03*
X168150000Y-61750000D03*
X171350000Y-73250000D03*
X168150000Y-73250000D03*
X171350000Y-78250000D03*
X168150000Y-78250000D03*
X171350000Y-89750000D03*
X168150000Y-89750000D03*
X171350000Y-94750000D03*
X168150000Y-94750000D03*
X171350000Y-106250000D03*
X168150000Y-106250000D03*
X171350000Y-111250000D03*
X168150000Y-111250000D03*
X171350000Y-122750000D03*
X168150000Y-122750000D03*
X171350000Y-127750000D03*
X168150000Y-127750000D03*
X171350000Y-139250000D03*
X168150000Y-139250000D03*
X171350000Y-144250000D03*
X168150000Y-144250000D03*
X187850000Y-56750000D03*
X184650000Y-56750000D03*
X187850000Y-61750000D03*
X184650000Y-61750000D03*
X187850000Y-73250000D03*
X184650000Y-73250000D03*
X187850000Y-78250000D03*
X184650000Y-78250000D03*
X187850000Y-89750000D03*
X184650000Y-89750000D03*
X187850000Y-94750000D03*
X184650000Y-94750000D03*
X187850000Y-106250000D03*
X184650000Y-106250000D03*
X187850000Y-111250000D03*
X184650000Y-111250000D03*
X187850000Y-122750000D03*
X184650000Y-122750000D03*
X187850000Y-127750000D03*
X184650000Y-127750000D03*
X187850000Y-139250000D03*
X184650000Y-139250000D03*
X187850000Y-144250000D03*
X184650000Y-144250000D03*
X204350000Y-56750000D03*
X201150000Y-56750000D03*
X204350000Y-61750000D03*
X201150000Y-61750000D03*
X204350000Y-73250000D03*
X201150000Y-73250000D03*
X204350000Y-78250000D03*
X201150000Y-78250000D03*
X204350000Y-89750000D03*
X201150000Y-89750000D03*
X204350000Y-94750000D03*
X201150000Y-94750000D03*
X204350000Y-106250000D03*
X201150000Y-106250000D03*
X204350000Y-111250000D03*
X201150000Y-111250000D03*
X204350000Y-122750000D03*
X201150000Y-122750000D03*
X204350000Y-127750000D03*
X201150000Y-127750000D03*
X204350000Y-139250000D03*
X201150000Y-139250000D03*
X204350000Y-144250000D03*
X201150000Y-144250000D03*
D15*
X160260000Y-128470000D03*
D16*
X160260000Y-131010000D03*
X160260000Y-133550000D03*
X160260000Y-136090000D03*
X160260000Y-138630000D03*
D15*
X196890000Y-89060000D03*
D16*
X196890000Y-86520000D03*
X196890000Y-83980000D03*
X196890000Y-81440000D03*
X196890000Y-78900000D03*
D15*
X170420000Y-101165000D03*
D16*
X172960000Y-101165000D03*
X175500000Y-101165000D03*
X178040000Y-101165000D03*
X180580000Y-101165000D03*
X183120000Y-101165000D03*
X185660000Y-101165000D03*
X188200000Y-101165000D03*
X190740000Y-101165000D03*
X193280000Y-101165000D03*
X195820000Y-101165000D03*
X198360000Y-101165000D03*
X200900000Y-101165000D03*
X203440000Y-101165000D03*
X205980000Y-101165000D03*
D15*
X170420000Y-116405000D03*
D16*
X172960000Y-116405000D03*
X175500000Y-116405000D03*
X178040000Y-116405000D03*
X180580000Y-116405000D03*
X183120000Y-116405000D03*
X185660000Y-116405000D03*
X188200000Y-116405000D03*
X190740000Y-116405000D03*
X193280000Y-116405000D03*
X195820000Y-116405000D03*
X198360000Y-116405000D03*
X200900000Y-116405000D03*
X203440000Y-116405000D03*
X205980000Y-116405000D03*
D17*
X125960000Y-71650000D03*
X131040000Y-71650000D03*
X125960000Y-84350000D03*
X131040000Y-84350000D03*
X142460000Y-71650000D03*
X147540000Y-71650000D03*
X142460000Y-84350000D03*
X147540000Y-84350000D03*
X159210000Y-71650000D03*
X164290000Y-71650000D03*
X159210000Y-84350000D03*
X164290000Y-84350000D03*
D18*
X127000000Y-135000000D03*
X196000000Y-135000000D03*
X196000000Y-66000000D03*
X127000000Y-65000000D03*
X161500000Y-160075001D03*
M02*
