G04 #@! TF.FileFunction,Other,Fab,Bot*
%FSLAX46Y46*%
G04 Gerber Fmt 4.6, Leading zero omitted, Abs format (unit mm)*
G04 Created by KiCad (PCBNEW 4.0.5) date *
%MOMM*%
%LPD*%
G01*
G04 APERTURE LIST*
%ADD10C,0.100000*%
%ADD11C,0.150000*%
%ADD12C,0.075000*%
G04 APERTURE END LIST*
D10*
X122380000Y-66250000D02*
X123620000Y-66250000D01*
X122380000Y-68250000D02*
X122380000Y-66250000D01*
X123620000Y-68250000D02*
X122380000Y-68250000D01*
X123620000Y-66250000D02*
X123620000Y-68250000D01*
X138880000Y-66250000D02*
X140120000Y-66250000D01*
X138880000Y-68250000D02*
X138880000Y-66250000D01*
X140120000Y-68250000D02*
X138880000Y-68250000D01*
X140120000Y-66250000D02*
X140120000Y-68250000D01*
X155380000Y-66250000D02*
X156620000Y-66250000D01*
X155380000Y-68250000D02*
X155380000Y-66250000D01*
X156620000Y-68250000D02*
X155380000Y-68250000D01*
X156620000Y-66250000D02*
X156620000Y-68250000D01*
D11*
X121702381Y-67559524D02*
X121226190Y-67226190D01*
X121702381Y-66988095D02*
X120702381Y-66988095D01*
X120702381Y-67369048D01*
X120750000Y-67464286D01*
X120797619Y-67511905D01*
X120892857Y-67559524D01*
X121035714Y-67559524D01*
X121130952Y-67511905D01*
X121178571Y-67464286D01*
X121226190Y-67369048D01*
X121226190Y-66988095D01*
D12*
X123226190Y-67166667D02*
X122988095Y-67000000D01*
X123226190Y-66880953D02*
X122726190Y-66880953D01*
X122726190Y-67071429D01*
X122750000Y-67119048D01*
X122773810Y-67142857D01*
X122821429Y-67166667D01*
X122892857Y-67166667D01*
X122940476Y-67142857D01*
X122964286Y-67119048D01*
X122988095Y-67071429D01*
X122988095Y-66880953D01*
X123226190Y-67642857D02*
X123226190Y-67357143D01*
X123226190Y-67500000D02*
X122726190Y-67500000D01*
X122797619Y-67452381D01*
X122845238Y-67404762D01*
X122869048Y-67357143D01*
D11*
X138202381Y-67559524D02*
X137726190Y-67226190D01*
X138202381Y-66988095D02*
X137202381Y-66988095D01*
X137202381Y-67369048D01*
X137250000Y-67464286D01*
X137297619Y-67511905D01*
X137392857Y-67559524D01*
X137535714Y-67559524D01*
X137630952Y-67511905D01*
X137678571Y-67464286D01*
X137726190Y-67369048D01*
X137726190Y-66988095D01*
D12*
X139726190Y-67166667D02*
X139488095Y-67000000D01*
X139726190Y-66880953D02*
X139226190Y-66880953D01*
X139226190Y-67071429D01*
X139250000Y-67119048D01*
X139273810Y-67142857D01*
X139321429Y-67166667D01*
X139392857Y-67166667D01*
X139440476Y-67142857D01*
X139464286Y-67119048D01*
X139488095Y-67071429D01*
X139488095Y-66880953D01*
X139273810Y-67357143D02*
X139250000Y-67380953D01*
X139226190Y-67428572D01*
X139226190Y-67547619D01*
X139250000Y-67595238D01*
X139273810Y-67619048D01*
X139321429Y-67642857D01*
X139369048Y-67642857D01*
X139440476Y-67619048D01*
X139726190Y-67333334D01*
X139726190Y-67642857D01*
D11*
X154702381Y-67559524D02*
X154226190Y-67226190D01*
X154702381Y-66988095D02*
X153702381Y-66988095D01*
X153702381Y-67369048D01*
X153750000Y-67464286D01*
X153797619Y-67511905D01*
X153892857Y-67559524D01*
X154035714Y-67559524D01*
X154130952Y-67511905D01*
X154178571Y-67464286D01*
X154226190Y-67369048D01*
X154226190Y-66988095D01*
D12*
X156226190Y-67166667D02*
X155988095Y-67000000D01*
X156226190Y-66880953D02*
X155726190Y-66880953D01*
X155726190Y-67071429D01*
X155750000Y-67119048D01*
X155773810Y-67142857D01*
X155821429Y-67166667D01*
X155892857Y-67166667D01*
X155940476Y-67142857D01*
X155964286Y-67119048D01*
X155988095Y-67071429D01*
X155988095Y-66880953D01*
X155726190Y-67333334D02*
X155726190Y-67642857D01*
X155916667Y-67476191D01*
X155916667Y-67547619D01*
X155940476Y-67595238D01*
X155964286Y-67619048D01*
X156011905Y-67642857D01*
X156130952Y-67642857D01*
X156178571Y-67619048D01*
X156202381Y-67595238D01*
X156226190Y-67547619D01*
X156226190Y-67404762D01*
X156202381Y-67357143D01*
X156178571Y-67333334D01*
D11*
X129920762Y-76261905D02*
X129968381Y-76404762D01*
X129968381Y-76642858D01*
X129920762Y-76738096D01*
X129873143Y-76785715D01*
X129777905Y-76833334D01*
X129682667Y-76833334D01*
X129587429Y-76785715D01*
X129539810Y-76738096D01*
X129492190Y-76642858D01*
X129444571Y-76452381D01*
X129396952Y-76357143D01*
X129349333Y-76309524D01*
X129254095Y-76261905D01*
X129158857Y-76261905D01*
X129063619Y-76309524D01*
X129016000Y-76357143D01*
X128968381Y-76452381D01*
X128968381Y-76690477D01*
X129016000Y-76833334D01*
X128968381Y-77166667D02*
X129968381Y-77404762D01*
X129254095Y-77595239D01*
X129968381Y-77785715D01*
X128968381Y-78023810D01*
X130063619Y-78166667D02*
X130063619Y-78928572D01*
X129968381Y-79738096D02*
X129492190Y-79404762D01*
X129968381Y-79166667D02*
X128968381Y-79166667D01*
X128968381Y-79547620D01*
X129016000Y-79642858D01*
X129063619Y-79690477D01*
X129158857Y-79738096D01*
X129301714Y-79738096D01*
X129396952Y-79690477D01*
X129444571Y-79642858D01*
X129492190Y-79547620D01*
X129492190Y-79166667D01*
X146420762Y-76261905D02*
X146468381Y-76404762D01*
X146468381Y-76642858D01*
X146420762Y-76738096D01*
X146373143Y-76785715D01*
X146277905Y-76833334D01*
X146182667Y-76833334D01*
X146087429Y-76785715D01*
X146039810Y-76738096D01*
X145992190Y-76642858D01*
X145944571Y-76452381D01*
X145896952Y-76357143D01*
X145849333Y-76309524D01*
X145754095Y-76261905D01*
X145658857Y-76261905D01*
X145563619Y-76309524D01*
X145516000Y-76357143D01*
X145468381Y-76452381D01*
X145468381Y-76690477D01*
X145516000Y-76833334D01*
X145468381Y-77166667D02*
X146468381Y-77404762D01*
X145754095Y-77595239D01*
X146468381Y-77785715D01*
X145468381Y-78023810D01*
X146563619Y-78166667D02*
X146563619Y-78928572D01*
X145516000Y-79690477D02*
X145468381Y-79595239D01*
X145468381Y-79452382D01*
X145516000Y-79309524D01*
X145611238Y-79214286D01*
X145706476Y-79166667D01*
X145896952Y-79119048D01*
X146039810Y-79119048D01*
X146230286Y-79166667D01*
X146325524Y-79214286D01*
X146420762Y-79309524D01*
X146468381Y-79452382D01*
X146468381Y-79547620D01*
X146420762Y-79690477D01*
X146373143Y-79738096D01*
X146039810Y-79738096D01*
X146039810Y-79547620D01*
X163170762Y-76261905D02*
X163218381Y-76404762D01*
X163218381Y-76642858D01*
X163170762Y-76738096D01*
X163123143Y-76785715D01*
X163027905Y-76833334D01*
X162932667Y-76833334D01*
X162837429Y-76785715D01*
X162789810Y-76738096D01*
X162742190Y-76642858D01*
X162694571Y-76452381D01*
X162646952Y-76357143D01*
X162599333Y-76309524D01*
X162504095Y-76261905D01*
X162408857Y-76261905D01*
X162313619Y-76309524D01*
X162266000Y-76357143D01*
X162218381Y-76452381D01*
X162218381Y-76690477D01*
X162266000Y-76833334D01*
X162218381Y-77166667D02*
X163218381Y-77404762D01*
X162504095Y-77595239D01*
X163218381Y-77785715D01*
X162218381Y-78023810D01*
X163313619Y-78166667D02*
X163313619Y-78928572D01*
X162694571Y-79500001D02*
X162742190Y-79642858D01*
X162789810Y-79690477D01*
X162885048Y-79738096D01*
X163027905Y-79738096D01*
X163123143Y-79690477D01*
X163170762Y-79642858D01*
X163218381Y-79547620D01*
X163218381Y-79166667D01*
X162218381Y-79166667D01*
X162218381Y-79500001D01*
X162266000Y-79595239D01*
X162313619Y-79642858D01*
X162408857Y-79690477D01*
X162504095Y-79690477D01*
X162599333Y-79642858D01*
X162646952Y-79595239D01*
X162694571Y-79500001D01*
X162694571Y-79166667D01*
M02*
