G04 #@! TF.FileFunction,Other,Fab,Top*
%FSLAX46Y46*%
G04 Gerber Fmt 4.6, Leading zero omitted, Abs format (unit mm)*
G04 Created by KiCad (PCBNEW 4.0.5) date *
%MOMM*%
%LPD*%
G01*
G04 APERTURE LIST*
%ADD10C,0.100000*%
%ADD11C,0.150000*%
G04 APERTURE END LIST*
D10*
X114630000Y-58250000D02*
X115870000Y-58250000D01*
X114630000Y-60250000D02*
X114630000Y-58250000D01*
X115870000Y-60250000D02*
X114630000Y-60250000D01*
X115870000Y-58250000D02*
X115870000Y-60250000D01*
X114630000Y-74750000D02*
X115870000Y-74750000D01*
X114630000Y-76750000D02*
X114630000Y-74750000D01*
X115870000Y-76750000D02*
X114630000Y-76750000D01*
X115870000Y-74750000D02*
X115870000Y-76750000D01*
X114630000Y-91250000D02*
X115870000Y-91250000D01*
X114630000Y-93250000D02*
X114630000Y-91250000D01*
X115870000Y-93250000D02*
X114630000Y-93250000D01*
X115870000Y-91250000D02*
X115870000Y-93250000D01*
X114630000Y-107750000D02*
X115870000Y-107750000D01*
X114630000Y-109750000D02*
X114630000Y-107750000D01*
X115870000Y-109750000D02*
X114630000Y-109750000D01*
X115870000Y-107750000D02*
X115870000Y-109750000D01*
X114630000Y-124250000D02*
X115870000Y-124250000D01*
X114630000Y-126250000D02*
X114630000Y-124250000D01*
X115870000Y-126250000D02*
X114630000Y-126250000D01*
X115870000Y-124250000D02*
X115870000Y-126250000D01*
X114630000Y-140750000D02*
X115870000Y-140750000D01*
X114630000Y-142750000D02*
X114630000Y-140750000D01*
X115870000Y-142750000D02*
X114630000Y-142750000D01*
X115870000Y-140750000D02*
X115870000Y-142750000D01*
X131130000Y-58250000D02*
X132370000Y-58250000D01*
X131130000Y-60250000D02*
X131130000Y-58250000D01*
X132370000Y-60250000D02*
X131130000Y-60250000D01*
X132370000Y-58250000D02*
X132370000Y-60250000D01*
X131130000Y-74750000D02*
X132370000Y-74750000D01*
X131130000Y-76750000D02*
X131130000Y-74750000D01*
X132370000Y-76750000D02*
X131130000Y-76750000D01*
X132370000Y-74750000D02*
X132370000Y-76750000D01*
X131130000Y-91250000D02*
X132370000Y-91250000D01*
X131130000Y-93250000D02*
X131130000Y-91250000D01*
X132370000Y-93250000D02*
X131130000Y-93250000D01*
X132370000Y-91250000D02*
X132370000Y-93250000D01*
X131130000Y-107750000D02*
X132370000Y-107750000D01*
X131130000Y-109750000D02*
X131130000Y-107750000D01*
X132370000Y-109750000D02*
X131130000Y-109750000D01*
X132370000Y-107750000D02*
X132370000Y-109750000D01*
X131130000Y-124250000D02*
X132370000Y-124250000D01*
X131130000Y-126250000D02*
X131130000Y-124250000D01*
X132370000Y-126250000D02*
X131130000Y-126250000D01*
X132370000Y-124250000D02*
X132370000Y-126250000D01*
X131130000Y-140750000D02*
X132370000Y-140750000D01*
X131130000Y-142750000D02*
X131130000Y-140750000D01*
X132370000Y-142750000D02*
X131130000Y-142750000D01*
X132370000Y-140750000D02*
X132370000Y-142750000D01*
X147630000Y-58250000D02*
X148870000Y-58250000D01*
X147630000Y-60250000D02*
X147630000Y-58250000D01*
X148870000Y-60250000D02*
X147630000Y-60250000D01*
X148870000Y-58250000D02*
X148870000Y-60250000D01*
X147630000Y-74750000D02*
X148870000Y-74750000D01*
X147630000Y-76750000D02*
X147630000Y-74750000D01*
X148870000Y-76750000D02*
X147630000Y-76750000D01*
X148870000Y-74750000D02*
X148870000Y-76750000D01*
X147630000Y-91250000D02*
X148870000Y-91250000D01*
X147630000Y-93250000D02*
X147630000Y-91250000D01*
X148870000Y-93250000D02*
X147630000Y-93250000D01*
X148870000Y-91250000D02*
X148870000Y-93250000D01*
X147630000Y-107750000D02*
X148870000Y-107750000D01*
X147630000Y-109750000D02*
X147630000Y-107750000D01*
X148870000Y-109750000D02*
X147630000Y-109750000D01*
X148870000Y-107750000D02*
X148870000Y-109750000D01*
X147630000Y-124250000D02*
X148870000Y-124250000D01*
X147630000Y-126250000D02*
X147630000Y-124250000D01*
X148870000Y-126250000D02*
X147630000Y-126250000D01*
X148870000Y-124250000D02*
X148870000Y-126250000D01*
X147630000Y-140750000D02*
X148870000Y-140750000D01*
X147630000Y-142750000D02*
X147630000Y-140750000D01*
X148870000Y-142750000D02*
X147630000Y-142750000D01*
X148870000Y-140750000D02*
X148870000Y-142750000D01*
X164130000Y-58250000D02*
X165370000Y-58250000D01*
X164130000Y-60250000D02*
X164130000Y-58250000D01*
X165370000Y-60250000D02*
X164130000Y-60250000D01*
X165370000Y-58250000D02*
X165370000Y-60250000D01*
X164130000Y-74750000D02*
X165370000Y-74750000D01*
X164130000Y-76750000D02*
X164130000Y-74750000D01*
X165370000Y-76750000D02*
X164130000Y-76750000D01*
X165370000Y-74750000D02*
X165370000Y-76750000D01*
X164130000Y-91250000D02*
X165370000Y-91250000D01*
X164130000Y-93250000D02*
X164130000Y-91250000D01*
X165370000Y-93250000D02*
X164130000Y-93250000D01*
X165370000Y-91250000D02*
X165370000Y-93250000D01*
X164130000Y-107750000D02*
X165370000Y-107750000D01*
X164130000Y-109750000D02*
X164130000Y-107750000D01*
X165370000Y-109750000D02*
X164130000Y-109750000D01*
X165370000Y-107750000D02*
X165370000Y-109750000D01*
X164130000Y-124250000D02*
X165370000Y-124250000D01*
X164130000Y-126250000D02*
X164130000Y-124250000D01*
X165370000Y-126250000D02*
X164130000Y-126250000D01*
X165370000Y-124250000D02*
X165370000Y-126250000D01*
X164130000Y-140750000D02*
X165370000Y-140750000D01*
X164130000Y-142750000D02*
X164130000Y-140750000D01*
X165370000Y-142750000D02*
X164130000Y-142750000D01*
X165370000Y-140750000D02*
X165370000Y-142750000D01*
X180630000Y-58250000D02*
X181870000Y-58250000D01*
X180630000Y-60250000D02*
X180630000Y-58250000D01*
X181870000Y-60250000D02*
X180630000Y-60250000D01*
X181870000Y-58250000D02*
X181870000Y-60250000D01*
X180630000Y-74750000D02*
X181870000Y-74750000D01*
X180630000Y-76750000D02*
X180630000Y-74750000D01*
X181870000Y-76750000D02*
X180630000Y-76750000D01*
X181870000Y-74750000D02*
X181870000Y-76750000D01*
X180630000Y-91250000D02*
X181870000Y-91250000D01*
X180630000Y-93250000D02*
X180630000Y-91250000D01*
X181870000Y-93250000D02*
X180630000Y-93250000D01*
X181870000Y-91250000D02*
X181870000Y-93250000D01*
X180630000Y-107750000D02*
X181870000Y-107750000D01*
X180630000Y-109750000D02*
X180630000Y-107750000D01*
X181870000Y-109750000D02*
X180630000Y-109750000D01*
X181870000Y-107750000D02*
X181870000Y-109750000D01*
X180630000Y-124250000D02*
X181870000Y-124250000D01*
X180630000Y-126250000D02*
X180630000Y-124250000D01*
X181870000Y-126250000D02*
X180630000Y-126250000D01*
X181870000Y-124250000D02*
X181870000Y-126250000D01*
X180630000Y-140750000D02*
X181870000Y-140750000D01*
X180630000Y-142750000D02*
X180630000Y-140750000D01*
X181870000Y-142750000D02*
X180630000Y-142750000D01*
X181870000Y-140750000D02*
X181870000Y-142750000D01*
X197130000Y-58250000D02*
X198370000Y-58250000D01*
X197130000Y-60250000D02*
X197130000Y-58250000D01*
X198370000Y-60250000D02*
X197130000Y-60250000D01*
X198370000Y-58250000D02*
X198370000Y-60250000D01*
X197130000Y-74750000D02*
X198370000Y-74750000D01*
X197130000Y-76750000D02*
X197130000Y-74750000D01*
X198370000Y-76750000D02*
X197130000Y-76750000D01*
X198370000Y-74750000D02*
X198370000Y-76750000D01*
X197130000Y-91250000D02*
X198370000Y-91250000D01*
X197130000Y-93250000D02*
X197130000Y-91250000D01*
X198370000Y-93250000D02*
X197130000Y-93250000D01*
X198370000Y-91250000D02*
X198370000Y-93250000D01*
X197130000Y-107750000D02*
X198370000Y-107750000D01*
X197130000Y-109750000D02*
X197130000Y-107750000D01*
X198370000Y-109750000D02*
X197130000Y-109750000D01*
X198370000Y-107750000D02*
X198370000Y-109750000D01*
X197130000Y-124250000D02*
X198370000Y-124250000D01*
X197130000Y-126250000D02*
X197130000Y-124250000D01*
X198370000Y-126250000D02*
X197130000Y-126250000D01*
X198370000Y-124250000D02*
X198370000Y-126250000D01*
X197130000Y-140750000D02*
X198370000Y-140750000D01*
X197130000Y-142750000D02*
X197130000Y-140750000D01*
X198370000Y-142750000D02*
X197130000Y-142750000D01*
X198370000Y-140750000D02*
X198370000Y-142750000D01*
X121750000Y-56750000D02*
X122750000Y-57750000D01*
X117750000Y-61750000D02*
X122750000Y-61750000D01*
X122750000Y-61750000D02*
X122750000Y-56750000D01*
X122750000Y-56750000D02*
X117750000Y-56750000D01*
X117750000Y-56750000D02*
X117750000Y-61750000D01*
X122250000Y-59250000D02*
G75*
G03X122250000Y-59250000I-2000000J0D01*
G01*
X121750000Y-73250000D02*
X122750000Y-74250000D01*
X117750000Y-78250000D02*
X122750000Y-78250000D01*
X122750000Y-78250000D02*
X122750000Y-73250000D01*
X122750000Y-73250000D02*
X117750000Y-73250000D01*
X117750000Y-73250000D02*
X117750000Y-78250000D01*
X122250000Y-75750000D02*
G75*
G03X122250000Y-75750000I-2000000J0D01*
G01*
X121750000Y-89750000D02*
X122750000Y-90750000D01*
X117750000Y-94750000D02*
X122750000Y-94750000D01*
X122750000Y-94750000D02*
X122750000Y-89750000D01*
X122750000Y-89750000D02*
X117750000Y-89750000D01*
X117750000Y-89750000D02*
X117750000Y-94750000D01*
X122250000Y-92250000D02*
G75*
G03X122250000Y-92250000I-2000000J0D01*
G01*
X121750000Y-106250000D02*
X122750000Y-107250000D01*
X117750000Y-111250000D02*
X122750000Y-111250000D01*
X122750000Y-111250000D02*
X122750000Y-106250000D01*
X122750000Y-106250000D02*
X117750000Y-106250000D01*
X117750000Y-106250000D02*
X117750000Y-111250000D01*
X122250000Y-108750000D02*
G75*
G03X122250000Y-108750000I-2000000J0D01*
G01*
X121750000Y-122750000D02*
X122750000Y-123750000D01*
X117750000Y-127750000D02*
X122750000Y-127750000D01*
X122750000Y-127750000D02*
X122750000Y-122750000D01*
X122750000Y-122750000D02*
X117750000Y-122750000D01*
X117750000Y-122750000D02*
X117750000Y-127750000D01*
X122250000Y-125250000D02*
G75*
G03X122250000Y-125250000I-2000000J0D01*
G01*
X121750000Y-139250000D02*
X122750000Y-140250000D01*
X117750000Y-144250000D02*
X122750000Y-144250000D01*
X122750000Y-144250000D02*
X122750000Y-139250000D01*
X122750000Y-139250000D02*
X117750000Y-139250000D01*
X117750000Y-139250000D02*
X117750000Y-144250000D01*
X122250000Y-141750000D02*
G75*
G03X122250000Y-141750000I-2000000J0D01*
G01*
X138250000Y-56750000D02*
X139250000Y-57750000D01*
X134250000Y-61750000D02*
X139250000Y-61750000D01*
X139250000Y-61750000D02*
X139250000Y-56750000D01*
X139250000Y-56750000D02*
X134250000Y-56750000D01*
X134250000Y-56750000D02*
X134250000Y-61750000D01*
X138750000Y-59250000D02*
G75*
G03X138750000Y-59250000I-2000000J0D01*
G01*
X138250000Y-73250000D02*
X139250000Y-74250000D01*
X134250000Y-78250000D02*
X139250000Y-78250000D01*
X139250000Y-78250000D02*
X139250000Y-73250000D01*
X139250000Y-73250000D02*
X134250000Y-73250000D01*
X134250000Y-73250000D02*
X134250000Y-78250000D01*
X138750000Y-75750000D02*
G75*
G03X138750000Y-75750000I-2000000J0D01*
G01*
X138250000Y-89750000D02*
X139250000Y-90750000D01*
X134250000Y-94750000D02*
X139250000Y-94750000D01*
X139250000Y-94750000D02*
X139250000Y-89750000D01*
X139250000Y-89750000D02*
X134250000Y-89750000D01*
X134250000Y-89750000D02*
X134250000Y-94750000D01*
X138750000Y-92250000D02*
G75*
G03X138750000Y-92250000I-2000000J0D01*
G01*
X138250000Y-106250000D02*
X139250000Y-107250000D01*
X134250000Y-111250000D02*
X139250000Y-111250000D01*
X139250000Y-111250000D02*
X139250000Y-106250000D01*
X139250000Y-106250000D02*
X134250000Y-106250000D01*
X134250000Y-106250000D02*
X134250000Y-111250000D01*
X138750000Y-108750000D02*
G75*
G03X138750000Y-108750000I-2000000J0D01*
G01*
X138250000Y-122750000D02*
X139250000Y-123750000D01*
X134250000Y-127750000D02*
X139250000Y-127750000D01*
X139250000Y-127750000D02*
X139250000Y-122750000D01*
X139250000Y-122750000D02*
X134250000Y-122750000D01*
X134250000Y-122750000D02*
X134250000Y-127750000D01*
X138750000Y-125250000D02*
G75*
G03X138750000Y-125250000I-2000000J0D01*
G01*
X138250000Y-139250000D02*
X139250000Y-140250000D01*
X134250000Y-144250000D02*
X139250000Y-144250000D01*
X139250000Y-144250000D02*
X139250000Y-139250000D01*
X139250000Y-139250000D02*
X134250000Y-139250000D01*
X134250000Y-139250000D02*
X134250000Y-144250000D01*
X138750000Y-141750000D02*
G75*
G03X138750000Y-141750000I-2000000J0D01*
G01*
X154750000Y-56750000D02*
X155750000Y-57750000D01*
X150750000Y-61750000D02*
X155750000Y-61750000D01*
X155750000Y-61750000D02*
X155750000Y-56750000D01*
X155750000Y-56750000D02*
X150750000Y-56750000D01*
X150750000Y-56750000D02*
X150750000Y-61750000D01*
X155250000Y-59250000D02*
G75*
G03X155250000Y-59250000I-2000000J0D01*
G01*
X154750000Y-73250000D02*
X155750000Y-74250000D01*
X150750000Y-78250000D02*
X155750000Y-78250000D01*
X155750000Y-78250000D02*
X155750000Y-73250000D01*
X155750000Y-73250000D02*
X150750000Y-73250000D01*
X150750000Y-73250000D02*
X150750000Y-78250000D01*
X155250000Y-75750000D02*
G75*
G03X155250000Y-75750000I-2000000J0D01*
G01*
X154750000Y-89750000D02*
X155750000Y-90750000D01*
X150750000Y-94750000D02*
X155750000Y-94750000D01*
X155750000Y-94750000D02*
X155750000Y-89750000D01*
X155750000Y-89750000D02*
X150750000Y-89750000D01*
X150750000Y-89750000D02*
X150750000Y-94750000D01*
X155250000Y-92250000D02*
G75*
G03X155250000Y-92250000I-2000000J0D01*
G01*
X154750000Y-106250000D02*
X155750000Y-107250000D01*
X150750000Y-111250000D02*
X155750000Y-111250000D01*
X155750000Y-111250000D02*
X155750000Y-106250000D01*
X155750000Y-106250000D02*
X150750000Y-106250000D01*
X150750000Y-106250000D02*
X150750000Y-111250000D01*
X155250000Y-108750000D02*
G75*
G03X155250000Y-108750000I-2000000J0D01*
G01*
X154750000Y-122750000D02*
X155750000Y-123750000D01*
X150750000Y-127750000D02*
X155750000Y-127750000D01*
X155750000Y-127750000D02*
X155750000Y-122750000D01*
X155750000Y-122750000D02*
X150750000Y-122750000D01*
X150750000Y-122750000D02*
X150750000Y-127750000D01*
X155250000Y-125250000D02*
G75*
G03X155250000Y-125250000I-2000000J0D01*
G01*
X154750000Y-139250000D02*
X155750000Y-140250000D01*
X150750000Y-144250000D02*
X155750000Y-144250000D01*
X155750000Y-144250000D02*
X155750000Y-139250000D01*
X155750000Y-139250000D02*
X150750000Y-139250000D01*
X150750000Y-139250000D02*
X150750000Y-144250000D01*
X155250000Y-141750000D02*
G75*
G03X155250000Y-141750000I-2000000J0D01*
G01*
X171250000Y-56750000D02*
X172250000Y-57750000D01*
X167250000Y-61750000D02*
X172250000Y-61750000D01*
X172250000Y-61750000D02*
X172250000Y-56750000D01*
X172250000Y-56750000D02*
X167250000Y-56750000D01*
X167250000Y-56750000D02*
X167250000Y-61750000D01*
X171750000Y-59250000D02*
G75*
G03X171750000Y-59250000I-2000000J0D01*
G01*
X171250000Y-73250000D02*
X172250000Y-74250000D01*
X167250000Y-78250000D02*
X172250000Y-78250000D01*
X172250000Y-78250000D02*
X172250000Y-73250000D01*
X172250000Y-73250000D02*
X167250000Y-73250000D01*
X167250000Y-73250000D02*
X167250000Y-78250000D01*
X171750000Y-75750000D02*
G75*
G03X171750000Y-75750000I-2000000J0D01*
G01*
X171250000Y-89750000D02*
X172250000Y-90750000D01*
X167250000Y-94750000D02*
X172250000Y-94750000D01*
X172250000Y-94750000D02*
X172250000Y-89750000D01*
X172250000Y-89750000D02*
X167250000Y-89750000D01*
X167250000Y-89750000D02*
X167250000Y-94750000D01*
X171750000Y-92250000D02*
G75*
G03X171750000Y-92250000I-2000000J0D01*
G01*
X171250000Y-106250000D02*
X172250000Y-107250000D01*
X167250000Y-111250000D02*
X172250000Y-111250000D01*
X172250000Y-111250000D02*
X172250000Y-106250000D01*
X172250000Y-106250000D02*
X167250000Y-106250000D01*
X167250000Y-106250000D02*
X167250000Y-111250000D01*
X171750000Y-108750000D02*
G75*
G03X171750000Y-108750000I-2000000J0D01*
G01*
X171250000Y-122750000D02*
X172250000Y-123750000D01*
X167250000Y-127750000D02*
X172250000Y-127750000D01*
X172250000Y-127750000D02*
X172250000Y-122750000D01*
X172250000Y-122750000D02*
X167250000Y-122750000D01*
X167250000Y-122750000D02*
X167250000Y-127750000D01*
X171750000Y-125250000D02*
G75*
G03X171750000Y-125250000I-2000000J0D01*
G01*
X171250000Y-139250000D02*
X172250000Y-140250000D01*
X167250000Y-144250000D02*
X172250000Y-144250000D01*
X172250000Y-144250000D02*
X172250000Y-139250000D01*
X172250000Y-139250000D02*
X167250000Y-139250000D01*
X167250000Y-139250000D02*
X167250000Y-144250000D01*
X171750000Y-141750000D02*
G75*
G03X171750000Y-141750000I-2000000J0D01*
G01*
X187750000Y-56750000D02*
X188750000Y-57750000D01*
X183750000Y-61750000D02*
X188750000Y-61750000D01*
X188750000Y-61750000D02*
X188750000Y-56750000D01*
X188750000Y-56750000D02*
X183750000Y-56750000D01*
X183750000Y-56750000D02*
X183750000Y-61750000D01*
X188250000Y-59250000D02*
G75*
G03X188250000Y-59250000I-2000000J0D01*
G01*
X187750000Y-73250000D02*
X188750000Y-74250000D01*
X183750000Y-78250000D02*
X188750000Y-78250000D01*
X188750000Y-78250000D02*
X188750000Y-73250000D01*
X188750000Y-73250000D02*
X183750000Y-73250000D01*
X183750000Y-73250000D02*
X183750000Y-78250000D01*
X188250000Y-75750000D02*
G75*
G03X188250000Y-75750000I-2000000J0D01*
G01*
X187750000Y-89750000D02*
X188750000Y-90750000D01*
X183750000Y-94750000D02*
X188750000Y-94750000D01*
X188750000Y-94750000D02*
X188750000Y-89750000D01*
X188750000Y-89750000D02*
X183750000Y-89750000D01*
X183750000Y-89750000D02*
X183750000Y-94750000D01*
X188250000Y-92250000D02*
G75*
G03X188250000Y-92250000I-2000000J0D01*
G01*
X187750000Y-106250000D02*
X188750000Y-107250000D01*
X183750000Y-111250000D02*
X188750000Y-111250000D01*
X188750000Y-111250000D02*
X188750000Y-106250000D01*
X188750000Y-106250000D02*
X183750000Y-106250000D01*
X183750000Y-106250000D02*
X183750000Y-111250000D01*
X188250000Y-108750000D02*
G75*
G03X188250000Y-108750000I-2000000J0D01*
G01*
X187750000Y-122750000D02*
X188750000Y-123750000D01*
X183750000Y-127750000D02*
X188750000Y-127750000D01*
X188750000Y-127750000D02*
X188750000Y-122750000D01*
X188750000Y-122750000D02*
X183750000Y-122750000D01*
X183750000Y-122750000D02*
X183750000Y-127750000D01*
X188250000Y-125250000D02*
G75*
G03X188250000Y-125250000I-2000000J0D01*
G01*
X187750000Y-139250000D02*
X188750000Y-140250000D01*
X183750000Y-144250000D02*
X188750000Y-144250000D01*
X188750000Y-144250000D02*
X188750000Y-139250000D01*
X188750000Y-139250000D02*
X183750000Y-139250000D01*
X183750000Y-139250000D02*
X183750000Y-144250000D01*
X188250000Y-141750000D02*
G75*
G03X188250000Y-141750000I-2000000J0D01*
G01*
X204250000Y-56750000D02*
X205250000Y-57750000D01*
X200250000Y-61750000D02*
X205250000Y-61750000D01*
X205250000Y-61750000D02*
X205250000Y-56750000D01*
X205250000Y-56750000D02*
X200250000Y-56750000D01*
X200250000Y-56750000D02*
X200250000Y-61750000D01*
X204750000Y-59250000D02*
G75*
G03X204750000Y-59250000I-2000000J0D01*
G01*
X204250000Y-73250000D02*
X205250000Y-74250000D01*
X200250000Y-78250000D02*
X205250000Y-78250000D01*
X205250000Y-78250000D02*
X205250000Y-73250000D01*
X205250000Y-73250000D02*
X200250000Y-73250000D01*
X200250000Y-73250000D02*
X200250000Y-78250000D01*
X204750000Y-75750000D02*
G75*
G03X204750000Y-75750000I-2000000J0D01*
G01*
X204250000Y-89750000D02*
X205250000Y-90750000D01*
X200250000Y-94750000D02*
X205250000Y-94750000D01*
X205250000Y-94750000D02*
X205250000Y-89750000D01*
X205250000Y-89750000D02*
X200250000Y-89750000D01*
X200250000Y-89750000D02*
X200250000Y-94750000D01*
X204750000Y-92250000D02*
G75*
G03X204750000Y-92250000I-2000000J0D01*
G01*
X204250000Y-106250000D02*
X205250000Y-107250000D01*
X200250000Y-111250000D02*
X205250000Y-111250000D01*
X205250000Y-111250000D02*
X205250000Y-106250000D01*
X205250000Y-106250000D02*
X200250000Y-106250000D01*
X200250000Y-106250000D02*
X200250000Y-111250000D01*
X204750000Y-108750000D02*
G75*
G03X204750000Y-108750000I-2000000J0D01*
G01*
X204250000Y-122750000D02*
X205250000Y-123750000D01*
X200250000Y-127750000D02*
X205250000Y-127750000D01*
X205250000Y-127750000D02*
X205250000Y-122750000D01*
X205250000Y-122750000D02*
X200250000Y-122750000D01*
X200250000Y-122750000D02*
X200250000Y-127750000D01*
X204750000Y-125250000D02*
G75*
G03X204750000Y-125250000I-2000000J0D01*
G01*
X204250000Y-139250000D02*
X205250000Y-140250000D01*
X200250000Y-144250000D02*
X205250000Y-144250000D01*
X205250000Y-144250000D02*
X205250000Y-139250000D01*
X205250000Y-139250000D02*
X200250000Y-139250000D01*
X200250000Y-139250000D02*
X200250000Y-144250000D01*
X204750000Y-141750000D02*
G75*
G03X204750000Y-141750000I-2000000J0D01*
G01*
X158990000Y-127200000D02*
X158990000Y-139900000D01*
X158990000Y-139900000D02*
X161530000Y-139900000D01*
X161530000Y-139900000D02*
X161530000Y-127200000D01*
X161530000Y-127200000D02*
X158990000Y-127200000D01*
X198160000Y-90330000D02*
X198160000Y-77630000D01*
X198160000Y-77630000D02*
X195620000Y-77630000D01*
X195620000Y-77630000D02*
X195620000Y-90330000D01*
X195620000Y-90330000D02*
X198160000Y-90330000D01*
X169150000Y-102435000D02*
X207250000Y-102435000D01*
X207250000Y-102435000D02*
X207250000Y-99895000D01*
X207250000Y-99895000D02*
X169150000Y-99895000D01*
X169150000Y-99895000D02*
X169150000Y-102435000D01*
X169150000Y-117675000D02*
X207250000Y-117675000D01*
X207250000Y-117675000D02*
X207250000Y-115135000D01*
X207250000Y-115135000D02*
X169150000Y-115135000D01*
X169150000Y-115135000D02*
X169150000Y-117675000D01*
X129154066Y-135000000D02*
G75*
G03X129154066Y-135000000I-2154066J0D01*
G01*
X198154066Y-135000000D02*
G75*
G03X198154066Y-135000000I-2154066J0D01*
G01*
X198154066Y-66000000D02*
G75*
G03X198154066Y-66000000I-2154066J0D01*
G01*
X129154066Y-65000000D02*
G75*
G03X129154066Y-65000000I-2154066J0D01*
G01*
X163654066Y-160075001D02*
G75*
G03X163654066Y-160075001I-2154066J0D01*
G01*
D11*
X113857143Y-58940476D02*
X113904762Y-58988095D01*
X113952381Y-59130952D01*
X113952381Y-59226190D01*
X113904762Y-59369048D01*
X113809524Y-59464286D01*
X113714286Y-59511905D01*
X113523810Y-59559524D01*
X113380952Y-59559524D01*
X113190476Y-59511905D01*
X113095238Y-59464286D01*
X113000000Y-59369048D01*
X112952381Y-59226190D01*
X112952381Y-59130952D01*
X113000000Y-58988095D01*
X113047619Y-58940476D01*
X117107143Y-59416666D02*
X117154762Y-59464285D01*
X117202381Y-59607142D01*
X117202381Y-59702380D01*
X117154762Y-59845238D01*
X117059524Y-59940476D01*
X116964286Y-59988095D01*
X116773810Y-60035714D01*
X116630952Y-60035714D01*
X116440476Y-59988095D01*
X116345238Y-59940476D01*
X116250000Y-59845238D01*
X116202381Y-59702380D01*
X116202381Y-59607142D01*
X116250000Y-59464285D01*
X116297619Y-59416666D01*
X117202381Y-58464285D02*
X117202381Y-59035714D01*
X117202381Y-58750000D02*
X116202381Y-58750000D01*
X116345238Y-58845238D01*
X116440476Y-58940476D01*
X116488095Y-59035714D01*
X113857143Y-75440476D02*
X113904762Y-75488095D01*
X113952381Y-75630952D01*
X113952381Y-75726190D01*
X113904762Y-75869048D01*
X113809524Y-75964286D01*
X113714286Y-76011905D01*
X113523810Y-76059524D01*
X113380952Y-76059524D01*
X113190476Y-76011905D01*
X113095238Y-75964286D01*
X113000000Y-75869048D01*
X112952381Y-75726190D01*
X112952381Y-75630952D01*
X113000000Y-75488095D01*
X113047619Y-75440476D01*
X117107143Y-75916666D02*
X117154762Y-75964285D01*
X117202381Y-76107142D01*
X117202381Y-76202380D01*
X117154762Y-76345238D01*
X117059524Y-76440476D01*
X116964286Y-76488095D01*
X116773810Y-76535714D01*
X116630952Y-76535714D01*
X116440476Y-76488095D01*
X116345238Y-76440476D01*
X116250000Y-76345238D01*
X116202381Y-76202380D01*
X116202381Y-76107142D01*
X116250000Y-75964285D01*
X116297619Y-75916666D01*
X116297619Y-75535714D02*
X116250000Y-75488095D01*
X116202381Y-75392857D01*
X116202381Y-75154761D01*
X116250000Y-75059523D01*
X116297619Y-75011904D01*
X116392857Y-74964285D01*
X116488095Y-74964285D01*
X116630952Y-75011904D01*
X117202381Y-75583333D01*
X117202381Y-74964285D01*
X113857143Y-91940476D02*
X113904762Y-91988095D01*
X113952381Y-92130952D01*
X113952381Y-92226190D01*
X113904762Y-92369048D01*
X113809524Y-92464286D01*
X113714286Y-92511905D01*
X113523810Y-92559524D01*
X113380952Y-92559524D01*
X113190476Y-92511905D01*
X113095238Y-92464286D01*
X113000000Y-92369048D01*
X112952381Y-92226190D01*
X112952381Y-92130952D01*
X113000000Y-91988095D01*
X113047619Y-91940476D01*
X117107143Y-92416666D02*
X117154762Y-92464285D01*
X117202381Y-92607142D01*
X117202381Y-92702380D01*
X117154762Y-92845238D01*
X117059524Y-92940476D01*
X116964286Y-92988095D01*
X116773810Y-93035714D01*
X116630952Y-93035714D01*
X116440476Y-92988095D01*
X116345238Y-92940476D01*
X116250000Y-92845238D01*
X116202381Y-92702380D01*
X116202381Y-92607142D01*
X116250000Y-92464285D01*
X116297619Y-92416666D01*
X116202381Y-92083333D02*
X116202381Y-91464285D01*
X116583333Y-91797619D01*
X116583333Y-91654761D01*
X116630952Y-91559523D01*
X116678571Y-91511904D01*
X116773810Y-91464285D01*
X117011905Y-91464285D01*
X117107143Y-91511904D01*
X117154762Y-91559523D01*
X117202381Y-91654761D01*
X117202381Y-91940476D01*
X117154762Y-92035714D01*
X117107143Y-92083333D01*
X113857143Y-108440476D02*
X113904762Y-108488095D01*
X113952381Y-108630952D01*
X113952381Y-108726190D01*
X113904762Y-108869048D01*
X113809524Y-108964286D01*
X113714286Y-109011905D01*
X113523810Y-109059524D01*
X113380952Y-109059524D01*
X113190476Y-109011905D01*
X113095238Y-108964286D01*
X113000000Y-108869048D01*
X112952381Y-108726190D01*
X112952381Y-108630952D01*
X113000000Y-108488095D01*
X113047619Y-108440476D01*
X117107143Y-108916666D02*
X117154762Y-108964285D01*
X117202381Y-109107142D01*
X117202381Y-109202380D01*
X117154762Y-109345238D01*
X117059524Y-109440476D01*
X116964286Y-109488095D01*
X116773810Y-109535714D01*
X116630952Y-109535714D01*
X116440476Y-109488095D01*
X116345238Y-109440476D01*
X116250000Y-109345238D01*
X116202381Y-109202380D01*
X116202381Y-109107142D01*
X116250000Y-108964285D01*
X116297619Y-108916666D01*
X116535714Y-108059523D02*
X117202381Y-108059523D01*
X116154762Y-108297619D02*
X116869048Y-108535714D01*
X116869048Y-107916666D01*
X113857143Y-124940476D02*
X113904762Y-124988095D01*
X113952381Y-125130952D01*
X113952381Y-125226190D01*
X113904762Y-125369048D01*
X113809524Y-125464286D01*
X113714286Y-125511905D01*
X113523810Y-125559524D01*
X113380952Y-125559524D01*
X113190476Y-125511905D01*
X113095238Y-125464286D01*
X113000000Y-125369048D01*
X112952381Y-125226190D01*
X112952381Y-125130952D01*
X113000000Y-124988095D01*
X113047619Y-124940476D01*
X117107143Y-125416666D02*
X117154762Y-125464285D01*
X117202381Y-125607142D01*
X117202381Y-125702380D01*
X117154762Y-125845238D01*
X117059524Y-125940476D01*
X116964286Y-125988095D01*
X116773810Y-126035714D01*
X116630952Y-126035714D01*
X116440476Y-125988095D01*
X116345238Y-125940476D01*
X116250000Y-125845238D01*
X116202381Y-125702380D01*
X116202381Y-125607142D01*
X116250000Y-125464285D01*
X116297619Y-125416666D01*
X116202381Y-124511904D02*
X116202381Y-124988095D01*
X116678571Y-125035714D01*
X116630952Y-124988095D01*
X116583333Y-124892857D01*
X116583333Y-124654761D01*
X116630952Y-124559523D01*
X116678571Y-124511904D01*
X116773810Y-124464285D01*
X117011905Y-124464285D01*
X117107143Y-124511904D01*
X117154762Y-124559523D01*
X117202381Y-124654761D01*
X117202381Y-124892857D01*
X117154762Y-124988095D01*
X117107143Y-125035714D01*
X113857143Y-141440476D02*
X113904762Y-141488095D01*
X113952381Y-141630952D01*
X113952381Y-141726190D01*
X113904762Y-141869048D01*
X113809524Y-141964286D01*
X113714286Y-142011905D01*
X113523810Y-142059524D01*
X113380952Y-142059524D01*
X113190476Y-142011905D01*
X113095238Y-141964286D01*
X113000000Y-141869048D01*
X112952381Y-141726190D01*
X112952381Y-141630952D01*
X113000000Y-141488095D01*
X113047619Y-141440476D01*
X117107143Y-141916666D02*
X117154762Y-141964285D01*
X117202381Y-142107142D01*
X117202381Y-142202380D01*
X117154762Y-142345238D01*
X117059524Y-142440476D01*
X116964286Y-142488095D01*
X116773810Y-142535714D01*
X116630952Y-142535714D01*
X116440476Y-142488095D01*
X116345238Y-142440476D01*
X116250000Y-142345238D01*
X116202381Y-142202380D01*
X116202381Y-142107142D01*
X116250000Y-141964285D01*
X116297619Y-141916666D01*
X116202381Y-141059523D02*
X116202381Y-141250000D01*
X116250000Y-141345238D01*
X116297619Y-141392857D01*
X116440476Y-141488095D01*
X116630952Y-141535714D01*
X117011905Y-141535714D01*
X117107143Y-141488095D01*
X117154762Y-141440476D01*
X117202381Y-141345238D01*
X117202381Y-141154761D01*
X117154762Y-141059523D01*
X117107143Y-141011904D01*
X117011905Y-140964285D01*
X116773810Y-140964285D01*
X116678571Y-141011904D01*
X116630952Y-141059523D01*
X116583333Y-141154761D01*
X116583333Y-141345238D01*
X116630952Y-141440476D01*
X116678571Y-141488095D01*
X116773810Y-141535714D01*
X130357143Y-58940476D02*
X130404762Y-58988095D01*
X130452381Y-59130952D01*
X130452381Y-59226190D01*
X130404762Y-59369048D01*
X130309524Y-59464286D01*
X130214286Y-59511905D01*
X130023810Y-59559524D01*
X129880952Y-59559524D01*
X129690476Y-59511905D01*
X129595238Y-59464286D01*
X129500000Y-59369048D01*
X129452381Y-59226190D01*
X129452381Y-59130952D01*
X129500000Y-58988095D01*
X129547619Y-58940476D01*
X133607143Y-59416666D02*
X133654762Y-59464285D01*
X133702381Y-59607142D01*
X133702381Y-59702380D01*
X133654762Y-59845238D01*
X133559524Y-59940476D01*
X133464286Y-59988095D01*
X133273810Y-60035714D01*
X133130952Y-60035714D01*
X132940476Y-59988095D01*
X132845238Y-59940476D01*
X132750000Y-59845238D01*
X132702381Y-59702380D01*
X132702381Y-59607142D01*
X132750000Y-59464285D01*
X132797619Y-59416666D01*
X133130952Y-58845238D02*
X133083333Y-58940476D01*
X133035714Y-58988095D01*
X132940476Y-59035714D01*
X132892857Y-59035714D01*
X132797619Y-58988095D01*
X132750000Y-58940476D01*
X132702381Y-58845238D01*
X132702381Y-58654761D01*
X132750000Y-58559523D01*
X132797619Y-58511904D01*
X132892857Y-58464285D01*
X132940476Y-58464285D01*
X133035714Y-58511904D01*
X133083333Y-58559523D01*
X133130952Y-58654761D01*
X133130952Y-58845238D01*
X133178571Y-58940476D01*
X133226190Y-58988095D01*
X133321429Y-59035714D01*
X133511905Y-59035714D01*
X133607143Y-58988095D01*
X133654762Y-58940476D01*
X133702381Y-58845238D01*
X133702381Y-58654761D01*
X133654762Y-58559523D01*
X133607143Y-58511904D01*
X133511905Y-58464285D01*
X133321429Y-58464285D01*
X133226190Y-58511904D01*
X133178571Y-58559523D01*
X133130952Y-58654761D01*
X130357143Y-75440476D02*
X130404762Y-75488095D01*
X130452381Y-75630952D01*
X130452381Y-75726190D01*
X130404762Y-75869048D01*
X130309524Y-75964286D01*
X130214286Y-76011905D01*
X130023810Y-76059524D01*
X129880952Y-76059524D01*
X129690476Y-76011905D01*
X129595238Y-75964286D01*
X129500000Y-75869048D01*
X129452381Y-75726190D01*
X129452381Y-75630952D01*
X129500000Y-75488095D01*
X129547619Y-75440476D01*
X133607143Y-75916666D02*
X133654762Y-75964285D01*
X133702381Y-76107142D01*
X133702381Y-76202380D01*
X133654762Y-76345238D01*
X133559524Y-76440476D01*
X133464286Y-76488095D01*
X133273810Y-76535714D01*
X133130952Y-76535714D01*
X132940476Y-76488095D01*
X132845238Y-76440476D01*
X132750000Y-76345238D01*
X132702381Y-76202380D01*
X132702381Y-76107142D01*
X132750000Y-75964285D01*
X132797619Y-75916666D01*
X133702381Y-75440476D02*
X133702381Y-75250000D01*
X133654762Y-75154761D01*
X133607143Y-75107142D01*
X133464286Y-75011904D01*
X133273810Y-74964285D01*
X132892857Y-74964285D01*
X132797619Y-75011904D01*
X132750000Y-75059523D01*
X132702381Y-75154761D01*
X132702381Y-75345238D01*
X132750000Y-75440476D01*
X132797619Y-75488095D01*
X132892857Y-75535714D01*
X133130952Y-75535714D01*
X133226190Y-75488095D01*
X133273810Y-75440476D01*
X133321429Y-75345238D01*
X133321429Y-75154761D01*
X133273810Y-75059523D01*
X133226190Y-75011904D01*
X133130952Y-74964285D01*
X130357143Y-91940476D02*
X130404762Y-91988095D01*
X130452381Y-92130952D01*
X130452381Y-92226190D01*
X130404762Y-92369048D01*
X130309524Y-92464286D01*
X130214286Y-92511905D01*
X130023810Y-92559524D01*
X129880952Y-92559524D01*
X129690476Y-92511905D01*
X129595238Y-92464286D01*
X129500000Y-92369048D01*
X129452381Y-92226190D01*
X129452381Y-92130952D01*
X129500000Y-91988095D01*
X129547619Y-91940476D01*
X133607143Y-92892857D02*
X133654762Y-92940476D01*
X133702381Y-93083333D01*
X133702381Y-93178571D01*
X133654762Y-93321429D01*
X133559524Y-93416667D01*
X133464286Y-93464286D01*
X133273810Y-93511905D01*
X133130952Y-93511905D01*
X132940476Y-93464286D01*
X132845238Y-93416667D01*
X132750000Y-93321429D01*
X132702381Y-93178571D01*
X132702381Y-93083333D01*
X132750000Y-92940476D01*
X132797619Y-92892857D01*
X133702381Y-91940476D02*
X133702381Y-92511905D01*
X133702381Y-92226191D02*
X132702381Y-92226191D01*
X132845238Y-92321429D01*
X132940476Y-92416667D01*
X132988095Y-92511905D01*
X132702381Y-91321429D02*
X132702381Y-91226190D01*
X132750000Y-91130952D01*
X132797619Y-91083333D01*
X132892857Y-91035714D01*
X133083333Y-90988095D01*
X133321429Y-90988095D01*
X133511905Y-91035714D01*
X133607143Y-91083333D01*
X133654762Y-91130952D01*
X133702381Y-91226190D01*
X133702381Y-91321429D01*
X133654762Y-91416667D01*
X133607143Y-91464286D01*
X133511905Y-91511905D01*
X133321429Y-91559524D01*
X133083333Y-91559524D01*
X132892857Y-91511905D01*
X132797619Y-91464286D01*
X132750000Y-91416667D01*
X132702381Y-91321429D01*
X130357143Y-108440476D02*
X130404762Y-108488095D01*
X130452381Y-108630952D01*
X130452381Y-108726190D01*
X130404762Y-108869048D01*
X130309524Y-108964286D01*
X130214286Y-109011905D01*
X130023810Y-109059524D01*
X129880952Y-109059524D01*
X129690476Y-109011905D01*
X129595238Y-108964286D01*
X129500000Y-108869048D01*
X129452381Y-108726190D01*
X129452381Y-108630952D01*
X129500000Y-108488095D01*
X129547619Y-108440476D01*
X133607143Y-109392857D02*
X133654762Y-109440476D01*
X133702381Y-109583333D01*
X133702381Y-109678571D01*
X133654762Y-109821429D01*
X133559524Y-109916667D01*
X133464286Y-109964286D01*
X133273810Y-110011905D01*
X133130952Y-110011905D01*
X132940476Y-109964286D01*
X132845238Y-109916667D01*
X132750000Y-109821429D01*
X132702381Y-109678571D01*
X132702381Y-109583333D01*
X132750000Y-109440476D01*
X132797619Y-109392857D01*
X133702381Y-108440476D02*
X133702381Y-109011905D01*
X133702381Y-108726191D02*
X132702381Y-108726191D01*
X132845238Y-108821429D01*
X132940476Y-108916667D01*
X132988095Y-109011905D01*
X133702381Y-107488095D02*
X133702381Y-108059524D01*
X133702381Y-107773810D02*
X132702381Y-107773810D01*
X132845238Y-107869048D01*
X132940476Y-107964286D01*
X132988095Y-108059524D01*
X130357143Y-124940476D02*
X130404762Y-124988095D01*
X130452381Y-125130952D01*
X130452381Y-125226190D01*
X130404762Y-125369048D01*
X130309524Y-125464286D01*
X130214286Y-125511905D01*
X130023810Y-125559524D01*
X129880952Y-125559524D01*
X129690476Y-125511905D01*
X129595238Y-125464286D01*
X129500000Y-125369048D01*
X129452381Y-125226190D01*
X129452381Y-125130952D01*
X129500000Y-124988095D01*
X129547619Y-124940476D01*
X133607143Y-125892857D02*
X133654762Y-125940476D01*
X133702381Y-126083333D01*
X133702381Y-126178571D01*
X133654762Y-126321429D01*
X133559524Y-126416667D01*
X133464286Y-126464286D01*
X133273810Y-126511905D01*
X133130952Y-126511905D01*
X132940476Y-126464286D01*
X132845238Y-126416667D01*
X132750000Y-126321429D01*
X132702381Y-126178571D01*
X132702381Y-126083333D01*
X132750000Y-125940476D01*
X132797619Y-125892857D01*
X133702381Y-124940476D02*
X133702381Y-125511905D01*
X133702381Y-125226191D02*
X132702381Y-125226191D01*
X132845238Y-125321429D01*
X132940476Y-125416667D01*
X132988095Y-125511905D01*
X132797619Y-124559524D02*
X132750000Y-124511905D01*
X132702381Y-124416667D01*
X132702381Y-124178571D01*
X132750000Y-124083333D01*
X132797619Y-124035714D01*
X132892857Y-123988095D01*
X132988095Y-123988095D01*
X133130952Y-124035714D01*
X133702381Y-124607143D01*
X133702381Y-123988095D01*
X130357143Y-141440476D02*
X130404762Y-141488095D01*
X130452381Y-141630952D01*
X130452381Y-141726190D01*
X130404762Y-141869048D01*
X130309524Y-141964286D01*
X130214286Y-142011905D01*
X130023810Y-142059524D01*
X129880952Y-142059524D01*
X129690476Y-142011905D01*
X129595238Y-141964286D01*
X129500000Y-141869048D01*
X129452381Y-141726190D01*
X129452381Y-141630952D01*
X129500000Y-141488095D01*
X129547619Y-141440476D01*
X133607143Y-142392857D02*
X133654762Y-142440476D01*
X133702381Y-142583333D01*
X133702381Y-142678571D01*
X133654762Y-142821429D01*
X133559524Y-142916667D01*
X133464286Y-142964286D01*
X133273810Y-143011905D01*
X133130952Y-143011905D01*
X132940476Y-142964286D01*
X132845238Y-142916667D01*
X132750000Y-142821429D01*
X132702381Y-142678571D01*
X132702381Y-142583333D01*
X132750000Y-142440476D01*
X132797619Y-142392857D01*
X133702381Y-141440476D02*
X133702381Y-142011905D01*
X133702381Y-141726191D02*
X132702381Y-141726191D01*
X132845238Y-141821429D01*
X132940476Y-141916667D01*
X132988095Y-142011905D01*
X132702381Y-141107143D02*
X132702381Y-140488095D01*
X133083333Y-140821429D01*
X133083333Y-140678571D01*
X133130952Y-140583333D01*
X133178571Y-140535714D01*
X133273810Y-140488095D01*
X133511905Y-140488095D01*
X133607143Y-140535714D01*
X133654762Y-140583333D01*
X133702381Y-140678571D01*
X133702381Y-140964286D01*
X133654762Y-141059524D01*
X133607143Y-141107143D01*
X146857143Y-58940476D02*
X146904762Y-58988095D01*
X146952381Y-59130952D01*
X146952381Y-59226190D01*
X146904762Y-59369048D01*
X146809524Y-59464286D01*
X146714286Y-59511905D01*
X146523810Y-59559524D01*
X146380952Y-59559524D01*
X146190476Y-59511905D01*
X146095238Y-59464286D01*
X146000000Y-59369048D01*
X145952381Y-59226190D01*
X145952381Y-59130952D01*
X146000000Y-58988095D01*
X146047619Y-58940476D01*
X150107143Y-59892857D02*
X150154762Y-59940476D01*
X150202381Y-60083333D01*
X150202381Y-60178571D01*
X150154762Y-60321429D01*
X150059524Y-60416667D01*
X149964286Y-60464286D01*
X149773810Y-60511905D01*
X149630952Y-60511905D01*
X149440476Y-60464286D01*
X149345238Y-60416667D01*
X149250000Y-60321429D01*
X149202381Y-60178571D01*
X149202381Y-60083333D01*
X149250000Y-59940476D01*
X149297619Y-59892857D01*
X150202381Y-58940476D02*
X150202381Y-59511905D01*
X150202381Y-59226191D02*
X149202381Y-59226191D01*
X149345238Y-59321429D01*
X149440476Y-59416667D01*
X149488095Y-59511905D01*
X149202381Y-58035714D02*
X149202381Y-58511905D01*
X149678571Y-58559524D01*
X149630952Y-58511905D01*
X149583333Y-58416667D01*
X149583333Y-58178571D01*
X149630952Y-58083333D01*
X149678571Y-58035714D01*
X149773810Y-57988095D01*
X150011905Y-57988095D01*
X150107143Y-58035714D01*
X150154762Y-58083333D01*
X150202381Y-58178571D01*
X150202381Y-58416667D01*
X150154762Y-58511905D01*
X150107143Y-58559524D01*
X146857143Y-75440476D02*
X146904762Y-75488095D01*
X146952381Y-75630952D01*
X146952381Y-75726190D01*
X146904762Y-75869048D01*
X146809524Y-75964286D01*
X146714286Y-76011905D01*
X146523810Y-76059524D01*
X146380952Y-76059524D01*
X146190476Y-76011905D01*
X146095238Y-75964286D01*
X146000000Y-75869048D01*
X145952381Y-75726190D01*
X145952381Y-75630952D01*
X146000000Y-75488095D01*
X146047619Y-75440476D01*
X150107143Y-76392857D02*
X150154762Y-76440476D01*
X150202381Y-76583333D01*
X150202381Y-76678571D01*
X150154762Y-76821429D01*
X150059524Y-76916667D01*
X149964286Y-76964286D01*
X149773810Y-77011905D01*
X149630952Y-77011905D01*
X149440476Y-76964286D01*
X149345238Y-76916667D01*
X149250000Y-76821429D01*
X149202381Y-76678571D01*
X149202381Y-76583333D01*
X149250000Y-76440476D01*
X149297619Y-76392857D01*
X150202381Y-75440476D02*
X150202381Y-76011905D01*
X150202381Y-75726191D02*
X149202381Y-75726191D01*
X149345238Y-75821429D01*
X149440476Y-75916667D01*
X149488095Y-76011905D01*
X149202381Y-74583333D02*
X149202381Y-74773810D01*
X149250000Y-74869048D01*
X149297619Y-74916667D01*
X149440476Y-75011905D01*
X149630952Y-75059524D01*
X150011905Y-75059524D01*
X150107143Y-75011905D01*
X150154762Y-74964286D01*
X150202381Y-74869048D01*
X150202381Y-74678571D01*
X150154762Y-74583333D01*
X150107143Y-74535714D01*
X150011905Y-74488095D01*
X149773810Y-74488095D01*
X149678571Y-74535714D01*
X149630952Y-74583333D01*
X149583333Y-74678571D01*
X149583333Y-74869048D01*
X149630952Y-74964286D01*
X149678571Y-75011905D01*
X149773810Y-75059524D01*
X146857143Y-91940476D02*
X146904762Y-91988095D01*
X146952381Y-92130952D01*
X146952381Y-92226190D01*
X146904762Y-92369048D01*
X146809524Y-92464286D01*
X146714286Y-92511905D01*
X146523810Y-92559524D01*
X146380952Y-92559524D01*
X146190476Y-92511905D01*
X146095238Y-92464286D01*
X146000000Y-92369048D01*
X145952381Y-92226190D01*
X145952381Y-92130952D01*
X146000000Y-91988095D01*
X146047619Y-91940476D01*
X150107143Y-92892857D02*
X150154762Y-92940476D01*
X150202381Y-93083333D01*
X150202381Y-93178571D01*
X150154762Y-93321429D01*
X150059524Y-93416667D01*
X149964286Y-93464286D01*
X149773810Y-93511905D01*
X149630952Y-93511905D01*
X149440476Y-93464286D01*
X149345238Y-93416667D01*
X149250000Y-93321429D01*
X149202381Y-93178571D01*
X149202381Y-93083333D01*
X149250000Y-92940476D01*
X149297619Y-92892857D01*
X150202381Y-91940476D02*
X150202381Y-92511905D01*
X150202381Y-92226191D02*
X149202381Y-92226191D01*
X149345238Y-92321429D01*
X149440476Y-92416667D01*
X149488095Y-92511905D01*
X149202381Y-91607143D02*
X149202381Y-90940476D01*
X150202381Y-91369048D01*
X146857143Y-108440476D02*
X146904762Y-108488095D01*
X146952381Y-108630952D01*
X146952381Y-108726190D01*
X146904762Y-108869048D01*
X146809524Y-108964286D01*
X146714286Y-109011905D01*
X146523810Y-109059524D01*
X146380952Y-109059524D01*
X146190476Y-109011905D01*
X146095238Y-108964286D01*
X146000000Y-108869048D01*
X145952381Y-108726190D01*
X145952381Y-108630952D01*
X146000000Y-108488095D01*
X146047619Y-108440476D01*
X150107143Y-109392857D02*
X150154762Y-109440476D01*
X150202381Y-109583333D01*
X150202381Y-109678571D01*
X150154762Y-109821429D01*
X150059524Y-109916667D01*
X149964286Y-109964286D01*
X149773810Y-110011905D01*
X149630952Y-110011905D01*
X149440476Y-109964286D01*
X149345238Y-109916667D01*
X149250000Y-109821429D01*
X149202381Y-109678571D01*
X149202381Y-109583333D01*
X149250000Y-109440476D01*
X149297619Y-109392857D01*
X150202381Y-108440476D02*
X150202381Y-109011905D01*
X150202381Y-108726191D02*
X149202381Y-108726191D01*
X149345238Y-108821429D01*
X149440476Y-108916667D01*
X149488095Y-109011905D01*
X149630952Y-107869048D02*
X149583333Y-107964286D01*
X149535714Y-108011905D01*
X149440476Y-108059524D01*
X149392857Y-108059524D01*
X149297619Y-108011905D01*
X149250000Y-107964286D01*
X149202381Y-107869048D01*
X149202381Y-107678571D01*
X149250000Y-107583333D01*
X149297619Y-107535714D01*
X149392857Y-107488095D01*
X149440476Y-107488095D01*
X149535714Y-107535714D01*
X149583333Y-107583333D01*
X149630952Y-107678571D01*
X149630952Y-107869048D01*
X149678571Y-107964286D01*
X149726190Y-108011905D01*
X149821429Y-108059524D01*
X150011905Y-108059524D01*
X150107143Y-108011905D01*
X150154762Y-107964286D01*
X150202381Y-107869048D01*
X150202381Y-107678571D01*
X150154762Y-107583333D01*
X150107143Y-107535714D01*
X150011905Y-107488095D01*
X149821429Y-107488095D01*
X149726190Y-107535714D01*
X149678571Y-107583333D01*
X149630952Y-107678571D01*
X146857143Y-124940476D02*
X146904762Y-124988095D01*
X146952381Y-125130952D01*
X146952381Y-125226190D01*
X146904762Y-125369048D01*
X146809524Y-125464286D01*
X146714286Y-125511905D01*
X146523810Y-125559524D01*
X146380952Y-125559524D01*
X146190476Y-125511905D01*
X146095238Y-125464286D01*
X146000000Y-125369048D01*
X145952381Y-125226190D01*
X145952381Y-125130952D01*
X146000000Y-124988095D01*
X146047619Y-124940476D01*
X150107143Y-125892857D02*
X150154762Y-125940476D01*
X150202381Y-126083333D01*
X150202381Y-126178571D01*
X150154762Y-126321429D01*
X150059524Y-126416667D01*
X149964286Y-126464286D01*
X149773810Y-126511905D01*
X149630952Y-126511905D01*
X149440476Y-126464286D01*
X149345238Y-126416667D01*
X149250000Y-126321429D01*
X149202381Y-126178571D01*
X149202381Y-126083333D01*
X149250000Y-125940476D01*
X149297619Y-125892857D01*
X150202381Y-124940476D02*
X150202381Y-125511905D01*
X150202381Y-125226191D02*
X149202381Y-125226191D01*
X149345238Y-125321429D01*
X149440476Y-125416667D01*
X149488095Y-125511905D01*
X150202381Y-124464286D02*
X150202381Y-124273810D01*
X150154762Y-124178571D01*
X150107143Y-124130952D01*
X149964286Y-124035714D01*
X149773810Y-123988095D01*
X149392857Y-123988095D01*
X149297619Y-124035714D01*
X149250000Y-124083333D01*
X149202381Y-124178571D01*
X149202381Y-124369048D01*
X149250000Y-124464286D01*
X149297619Y-124511905D01*
X149392857Y-124559524D01*
X149630952Y-124559524D01*
X149726190Y-124511905D01*
X149773810Y-124464286D01*
X149821429Y-124369048D01*
X149821429Y-124178571D01*
X149773810Y-124083333D01*
X149726190Y-124035714D01*
X149630952Y-123988095D01*
X146857143Y-141440476D02*
X146904762Y-141488095D01*
X146952381Y-141630952D01*
X146952381Y-141726190D01*
X146904762Y-141869048D01*
X146809524Y-141964286D01*
X146714286Y-142011905D01*
X146523810Y-142059524D01*
X146380952Y-142059524D01*
X146190476Y-142011905D01*
X146095238Y-141964286D01*
X146000000Y-141869048D01*
X145952381Y-141726190D01*
X145952381Y-141630952D01*
X146000000Y-141488095D01*
X146047619Y-141440476D01*
X150107143Y-142392857D02*
X150154762Y-142440476D01*
X150202381Y-142583333D01*
X150202381Y-142678571D01*
X150154762Y-142821429D01*
X150059524Y-142916667D01*
X149964286Y-142964286D01*
X149773810Y-143011905D01*
X149630952Y-143011905D01*
X149440476Y-142964286D01*
X149345238Y-142916667D01*
X149250000Y-142821429D01*
X149202381Y-142678571D01*
X149202381Y-142583333D01*
X149250000Y-142440476D01*
X149297619Y-142392857D01*
X149297619Y-142011905D02*
X149250000Y-141964286D01*
X149202381Y-141869048D01*
X149202381Y-141630952D01*
X149250000Y-141535714D01*
X149297619Y-141488095D01*
X149392857Y-141440476D01*
X149488095Y-141440476D01*
X149630952Y-141488095D01*
X150202381Y-142059524D01*
X150202381Y-141440476D01*
X149202381Y-140821429D02*
X149202381Y-140726190D01*
X149250000Y-140630952D01*
X149297619Y-140583333D01*
X149392857Y-140535714D01*
X149583333Y-140488095D01*
X149821429Y-140488095D01*
X150011905Y-140535714D01*
X150107143Y-140583333D01*
X150154762Y-140630952D01*
X150202381Y-140726190D01*
X150202381Y-140821429D01*
X150154762Y-140916667D01*
X150107143Y-140964286D01*
X150011905Y-141011905D01*
X149821429Y-141059524D01*
X149583333Y-141059524D01*
X149392857Y-141011905D01*
X149297619Y-140964286D01*
X149250000Y-140916667D01*
X149202381Y-140821429D01*
X163357143Y-58940476D02*
X163404762Y-58988095D01*
X163452381Y-59130952D01*
X163452381Y-59226190D01*
X163404762Y-59369048D01*
X163309524Y-59464286D01*
X163214286Y-59511905D01*
X163023810Y-59559524D01*
X162880952Y-59559524D01*
X162690476Y-59511905D01*
X162595238Y-59464286D01*
X162500000Y-59369048D01*
X162452381Y-59226190D01*
X162452381Y-59130952D01*
X162500000Y-58988095D01*
X162547619Y-58940476D01*
X166607143Y-59892857D02*
X166654762Y-59940476D01*
X166702381Y-60083333D01*
X166702381Y-60178571D01*
X166654762Y-60321429D01*
X166559524Y-60416667D01*
X166464286Y-60464286D01*
X166273810Y-60511905D01*
X166130952Y-60511905D01*
X165940476Y-60464286D01*
X165845238Y-60416667D01*
X165750000Y-60321429D01*
X165702381Y-60178571D01*
X165702381Y-60083333D01*
X165750000Y-59940476D01*
X165797619Y-59892857D01*
X165797619Y-59511905D02*
X165750000Y-59464286D01*
X165702381Y-59369048D01*
X165702381Y-59130952D01*
X165750000Y-59035714D01*
X165797619Y-58988095D01*
X165892857Y-58940476D01*
X165988095Y-58940476D01*
X166130952Y-58988095D01*
X166702381Y-59559524D01*
X166702381Y-58940476D01*
X166702381Y-57988095D02*
X166702381Y-58559524D01*
X166702381Y-58273810D02*
X165702381Y-58273810D01*
X165845238Y-58369048D01*
X165940476Y-58464286D01*
X165988095Y-58559524D01*
X163357143Y-75440476D02*
X163404762Y-75488095D01*
X163452381Y-75630952D01*
X163452381Y-75726190D01*
X163404762Y-75869048D01*
X163309524Y-75964286D01*
X163214286Y-76011905D01*
X163023810Y-76059524D01*
X162880952Y-76059524D01*
X162690476Y-76011905D01*
X162595238Y-75964286D01*
X162500000Y-75869048D01*
X162452381Y-75726190D01*
X162452381Y-75630952D01*
X162500000Y-75488095D01*
X162547619Y-75440476D01*
X166607143Y-76392857D02*
X166654762Y-76440476D01*
X166702381Y-76583333D01*
X166702381Y-76678571D01*
X166654762Y-76821429D01*
X166559524Y-76916667D01*
X166464286Y-76964286D01*
X166273810Y-77011905D01*
X166130952Y-77011905D01*
X165940476Y-76964286D01*
X165845238Y-76916667D01*
X165750000Y-76821429D01*
X165702381Y-76678571D01*
X165702381Y-76583333D01*
X165750000Y-76440476D01*
X165797619Y-76392857D01*
X165797619Y-76011905D02*
X165750000Y-75964286D01*
X165702381Y-75869048D01*
X165702381Y-75630952D01*
X165750000Y-75535714D01*
X165797619Y-75488095D01*
X165892857Y-75440476D01*
X165988095Y-75440476D01*
X166130952Y-75488095D01*
X166702381Y-76059524D01*
X166702381Y-75440476D01*
X165797619Y-75059524D02*
X165750000Y-75011905D01*
X165702381Y-74916667D01*
X165702381Y-74678571D01*
X165750000Y-74583333D01*
X165797619Y-74535714D01*
X165892857Y-74488095D01*
X165988095Y-74488095D01*
X166130952Y-74535714D01*
X166702381Y-75107143D01*
X166702381Y-74488095D01*
X163357143Y-91940476D02*
X163404762Y-91988095D01*
X163452381Y-92130952D01*
X163452381Y-92226190D01*
X163404762Y-92369048D01*
X163309524Y-92464286D01*
X163214286Y-92511905D01*
X163023810Y-92559524D01*
X162880952Y-92559524D01*
X162690476Y-92511905D01*
X162595238Y-92464286D01*
X162500000Y-92369048D01*
X162452381Y-92226190D01*
X162452381Y-92130952D01*
X162500000Y-91988095D01*
X162547619Y-91940476D01*
X166607143Y-92892857D02*
X166654762Y-92940476D01*
X166702381Y-93083333D01*
X166702381Y-93178571D01*
X166654762Y-93321429D01*
X166559524Y-93416667D01*
X166464286Y-93464286D01*
X166273810Y-93511905D01*
X166130952Y-93511905D01*
X165940476Y-93464286D01*
X165845238Y-93416667D01*
X165750000Y-93321429D01*
X165702381Y-93178571D01*
X165702381Y-93083333D01*
X165750000Y-92940476D01*
X165797619Y-92892857D01*
X165797619Y-92511905D02*
X165750000Y-92464286D01*
X165702381Y-92369048D01*
X165702381Y-92130952D01*
X165750000Y-92035714D01*
X165797619Y-91988095D01*
X165892857Y-91940476D01*
X165988095Y-91940476D01*
X166130952Y-91988095D01*
X166702381Y-92559524D01*
X166702381Y-91940476D01*
X165702381Y-91607143D02*
X165702381Y-90988095D01*
X166083333Y-91321429D01*
X166083333Y-91178571D01*
X166130952Y-91083333D01*
X166178571Y-91035714D01*
X166273810Y-90988095D01*
X166511905Y-90988095D01*
X166607143Y-91035714D01*
X166654762Y-91083333D01*
X166702381Y-91178571D01*
X166702381Y-91464286D01*
X166654762Y-91559524D01*
X166607143Y-91607143D01*
X163357143Y-108440476D02*
X163404762Y-108488095D01*
X163452381Y-108630952D01*
X163452381Y-108726190D01*
X163404762Y-108869048D01*
X163309524Y-108964286D01*
X163214286Y-109011905D01*
X163023810Y-109059524D01*
X162880952Y-109059524D01*
X162690476Y-109011905D01*
X162595238Y-108964286D01*
X162500000Y-108869048D01*
X162452381Y-108726190D01*
X162452381Y-108630952D01*
X162500000Y-108488095D01*
X162547619Y-108440476D01*
X166607143Y-109392857D02*
X166654762Y-109440476D01*
X166702381Y-109583333D01*
X166702381Y-109678571D01*
X166654762Y-109821429D01*
X166559524Y-109916667D01*
X166464286Y-109964286D01*
X166273810Y-110011905D01*
X166130952Y-110011905D01*
X165940476Y-109964286D01*
X165845238Y-109916667D01*
X165750000Y-109821429D01*
X165702381Y-109678571D01*
X165702381Y-109583333D01*
X165750000Y-109440476D01*
X165797619Y-109392857D01*
X165797619Y-109011905D02*
X165750000Y-108964286D01*
X165702381Y-108869048D01*
X165702381Y-108630952D01*
X165750000Y-108535714D01*
X165797619Y-108488095D01*
X165892857Y-108440476D01*
X165988095Y-108440476D01*
X166130952Y-108488095D01*
X166702381Y-109059524D01*
X166702381Y-108440476D01*
X166035714Y-107583333D02*
X166702381Y-107583333D01*
X165654762Y-107821429D02*
X166369048Y-108059524D01*
X166369048Y-107440476D01*
X163357143Y-124940476D02*
X163404762Y-124988095D01*
X163452381Y-125130952D01*
X163452381Y-125226190D01*
X163404762Y-125369048D01*
X163309524Y-125464286D01*
X163214286Y-125511905D01*
X163023810Y-125559524D01*
X162880952Y-125559524D01*
X162690476Y-125511905D01*
X162595238Y-125464286D01*
X162500000Y-125369048D01*
X162452381Y-125226190D01*
X162452381Y-125130952D01*
X162500000Y-124988095D01*
X162547619Y-124940476D01*
X166607143Y-125892857D02*
X166654762Y-125940476D01*
X166702381Y-126083333D01*
X166702381Y-126178571D01*
X166654762Y-126321429D01*
X166559524Y-126416667D01*
X166464286Y-126464286D01*
X166273810Y-126511905D01*
X166130952Y-126511905D01*
X165940476Y-126464286D01*
X165845238Y-126416667D01*
X165750000Y-126321429D01*
X165702381Y-126178571D01*
X165702381Y-126083333D01*
X165750000Y-125940476D01*
X165797619Y-125892857D01*
X165797619Y-125511905D02*
X165750000Y-125464286D01*
X165702381Y-125369048D01*
X165702381Y-125130952D01*
X165750000Y-125035714D01*
X165797619Y-124988095D01*
X165892857Y-124940476D01*
X165988095Y-124940476D01*
X166130952Y-124988095D01*
X166702381Y-125559524D01*
X166702381Y-124940476D01*
X165702381Y-124035714D02*
X165702381Y-124511905D01*
X166178571Y-124559524D01*
X166130952Y-124511905D01*
X166083333Y-124416667D01*
X166083333Y-124178571D01*
X166130952Y-124083333D01*
X166178571Y-124035714D01*
X166273810Y-123988095D01*
X166511905Y-123988095D01*
X166607143Y-124035714D01*
X166654762Y-124083333D01*
X166702381Y-124178571D01*
X166702381Y-124416667D01*
X166654762Y-124511905D01*
X166607143Y-124559524D01*
X163357143Y-141440476D02*
X163404762Y-141488095D01*
X163452381Y-141630952D01*
X163452381Y-141726190D01*
X163404762Y-141869048D01*
X163309524Y-141964286D01*
X163214286Y-142011905D01*
X163023810Y-142059524D01*
X162880952Y-142059524D01*
X162690476Y-142011905D01*
X162595238Y-141964286D01*
X162500000Y-141869048D01*
X162452381Y-141726190D01*
X162452381Y-141630952D01*
X162500000Y-141488095D01*
X162547619Y-141440476D01*
X166607143Y-142392857D02*
X166654762Y-142440476D01*
X166702381Y-142583333D01*
X166702381Y-142678571D01*
X166654762Y-142821429D01*
X166559524Y-142916667D01*
X166464286Y-142964286D01*
X166273810Y-143011905D01*
X166130952Y-143011905D01*
X165940476Y-142964286D01*
X165845238Y-142916667D01*
X165750000Y-142821429D01*
X165702381Y-142678571D01*
X165702381Y-142583333D01*
X165750000Y-142440476D01*
X165797619Y-142392857D01*
X165797619Y-142011905D02*
X165750000Y-141964286D01*
X165702381Y-141869048D01*
X165702381Y-141630952D01*
X165750000Y-141535714D01*
X165797619Y-141488095D01*
X165892857Y-141440476D01*
X165988095Y-141440476D01*
X166130952Y-141488095D01*
X166702381Y-142059524D01*
X166702381Y-141440476D01*
X165702381Y-140583333D02*
X165702381Y-140773810D01*
X165750000Y-140869048D01*
X165797619Y-140916667D01*
X165940476Y-141011905D01*
X166130952Y-141059524D01*
X166511905Y-141059524D01*
X166607143Y-141011905D01*
X166654762Y-140964286D01*
X166702381Y-140869048D01*
X166702381Y-140678571D01*
X166654762Y-140583333D01*
X166607143Y-140535714D01*
X166511905Y-140488095D01*
X166273810Y-140488095D01*
X166178571Y-140535714D01*
X166130952Y-140583333D01*
X166083333Y-140678571D01*
X166083333Y-140869048D01*
X166130952Y-140964286D01*
X166178571Y-141011905D01*
X166273810Y-141059524D01*
X179857143Y-58940476D02*
X179904762Y-58988095D01*
X179952381Y-59130952D01*
X179952381Y-59226190D01*
X179904762Y-59369048D01*
X179809524Y-59464286D01*
X179714286Y-59511905D01*
X179523810Y-59559524D01*
X179380952Y-59559524D01*
X179190476Y-59511905D01*
X179095238Y-59464286D01*
X179000000Y-59369048D01*
X178952381Y-59226190D01*
X178952381Y-59130952D01*
X179000000Y-58988095D01*
X179047619Y-58940476D01*
X183107143Y-59892857D02*
X183154762Y-59940476D01*
X183202381Y-60083333D01*
X183202381Y-60178571D01*
X183154762Y-60321429D01*
X183059524Y-60416667D01*
X182964286Y-60464286D01*
X182773810Y-60511905D01*
X182630952Y-60511905D01*
X182440476Y-60464286D01*
X182345238Y-60416667D01*
X182250000Y-60321429D01*
X182202381Y-60178571D01*
X182202381Y-60083333D01*
X182250000Y-59940476D01*
X182297619Y-59892857D01*
X182297619Y-59511905D02*
X182250000Y-59464286D01*
X182202381Y-59369048D01*
X182202381Y-59130952D01*
X182250000Y-59035714D01*
X182297619Y-58988095D01*
X182392857Y-58940476D01*
X182488095Y-58940476D01*
X182630952Y-58988095D01*
X183202381Y-59559524D01*
X183202381Y-58940476D01*
X182202381Y-58607143D02*
X182202381Y-57940476D01*
X183202381Y-58369048D01*
X179857143Y-75440476D02*
X179904762Y-75488095D01*
X179952381Y-75630952D01*
X179952381Y-75726190D01*
X179904762Y-75869048D01*
X179809524Y-75964286D01*
X179714286Y-76011905D01*
X179523810Y-76059524D01*
X179380952Y-76059524D01*
X179190476Y-76011905D01*
X179095238Y-75964286D01*
X179000000Y-75869048D01*
X178952381Y-75726190D01*
X178952381Y-75630952D01*
X179000000Y-75488095D01*
X179047619Y-75440476D01*
X183107143Y-76392857D02*
X183154762Y-76440476D01*
X183202381Y-76583333D01*
X183202381Y-76678571D01*
X183154762Y-76821429D01*
X183059524Y-76916667D01*
X182964286Y-76964286D01*
X182773810Y-77011905D01*
X182630952Y-77011905D01*
X182440476Y-76964286D01*
X182345238Y-76916667D01*
X182250000Y-76821429D01*
X182202381Y-76678571D01*
X182202381Y-76583333D01*
X182250000Y-76440476D01*
X182297619Y-76392857D01*
X182297619Y-76011905D02*
X182250000Y-75964286D01*
X182202381Y-75869048D01*
X182202381Y-75630952D01*
X182250000Y-75535714D01*
X182297619Y-75488095D01*
X182392857Y-75440476D01*
X182488095Y-75440476D01*
X182630952Y-75488095D01*
X183202381Y-76059524D01*
X183202381Y-75440476D01*
X182630952Y-74869048D02*
X182583333Y-74964286D01*
X182535714Y-75011905D01*
X182440476Y-75059524D01*
X182392857Y-75059524D01*
X182297619Y-75011905D01*
X182250000Y-74964286D01*
X182202381Y-74869048D01*
X182202381Y-74678571D01*
X182250000Y-74583333D01*
X182297619Y-74535714D01*
X182392857Y-74488095D01*
X182440476Y-74488095D01*
X182535714Y-74535714D01*
X182583333Y-74583333D01*
X182630952Y-74678571D01*
X182630952Y-74869048D01*
X182678571Y-74964286D01*
X182726190Y-75011905D01*
X182821429Y-75059524D01*
X183011905Y-75059524D01*
X183107143Y-75011905D01*
X183154762Y-74964286D01*
X183202381Y-74869048D01*
X183202381Y-74678571D01*
X183154762Y-74583333D01*
X183107143Y-74535714D01*
X183011905Y-74488095D01*
X182821429Y-74488095D01*
X182726190Y-74535714D01*
X182678571Y-74583333D01*
X182630952Y-74678571D01*
X179857143Y-91940476D02*
X179904762Y-91988095D01*
X179952381Y-92130952D01*
X179952381Y-92226190D01*
X179904762Y-92369048D01*
X179809524Y-92464286D01*
X179714286Y-92511905D01*
X179523810Y-92559524D01*
X179380952Y-92559524D01*
X179190476Y-92511905D01*
X179095238Y-92464286D01*
X179000000Y-92369048D01*
X178952381Y-92226190D01*
X178952381Y-92130952D01*
X179000000Y-91988095D01*
X179047619Y-91940476D01*
X183107143Y-92892857D02*
X183154762Y-92940476D01*
X183202381Y-93083333D01*
X183202381Y-93178571D01*
X183154762Y-93321429D01*
X183059524Y-93416667D01*
X182964286Y-93464286D01*
X182773810Y-93511905D01*
X182630952Y-93511905D01*
X182440476Y-93464286D01*
X182345238Y-93416667D01*
X182250000Y-93321429D01*
X182202381Y-93178571D01*
X182202381Y-93083333D01*
X182250000Y-92940476D01*
X182297619Y-92892857D01*
X182297619Y-92511905D02*
X182250000Y-92464286D01*
X182202381Y-92369048D01*
X182202381Y-92130952D01*
X182250000Y-92035714D01*
X182297619Y-91988095D01*
X182392857Y-91940476D01*
X182488095Y-91940476D01*
X182630952Y-91988095D01*
X183202381Y-92559524D01*
X183202381Y-91940476D01*
X183202381Y-91464286D02*
X183202381Y-91273810D01*
X183154762Y-91178571D01*
X183107143Y-91130952D01*
X182964286Y-91035714D01*
X182773810Y-90988095D01*
X182392857Y-90988095D01*
X182297619Y-91035714D01*
X182250000Y-91083333D01*
X182202381Y-91178571D01*
X182202381Y-91369048D01*
X182250000Y-91464286D01*
X182297619Y-91511905D01*
X182392857Y-91559524D01*
X182630952Y-91559524D01*
X182726190Y-91511905D01*
X182773810Y-91464286D01*
X182821429Y-91369048D01*
X182821429Y-91178571D01*
X182773810Y-91083333D01*
X182726190Y-91035714D01*
X182630952Y-90988095D01*
X179857143Y-108440476D02*
X179904762Y-108488095D01*
X179952381Y-108630952D01*
X179952381Y-108726190D01*
X179904762Y-108869048D01*
X179809524Y-108964286D01*
X179714286Y-109011905D01*
X179523810Y-109059524D01*
X179380952Y-109059524D01*
X179190476Y-109011905D01*
X179095238Y-108964286D01*
X179000000Y-108869048D01*
X178952381Y-108726190D01*
X178952381Y-108630952D01*
X179000000Y-108488095D01*
X179047619Y-108440476D01*
X183107143Y-109392857D02*
X183154762Y-109440476D01*
X183202381Y-109583333D01*
X183202381Y-109678571D01*
X183154762Y-109821429D01*
X183059524Y-109916667D01*
X182964286Y-109964286D01*
X182773810Y-110011905D01*
X182630952Y-110011905D01*
X182440476Y-109964286D01*
X182345238Y-109916667D01*
X182250000Y-109821429D01*
X182202381Y-109678571D01*
X182202381Y-109583333D01*
X182250000Y-109440476D01*
X182297619Y-109392857D01*
X182202381Y-109059524D02*
X182202381Y-108440476D01*
X182583333Y-108773810D01*
X182583333Y-108630952D01*
X182630952Y-108535714D01*
X182678571Y-108488095D01*
X182773810Y-108440476D01*
X183011905Y-108440476D01*
X183107143Y-108488095D01*
X183154762Y-108535714D01*
X183202381Y-108630952D01*
X183202381Y-108916667D01*
X183154762Y-109011905D01*
X183107143Y-109059524D01*
X182202381Y-107821429D02*
X182202381Y-107726190D01*
X182250000Y-107630952D01*
X182297619Y-107583333D01*
X182392857Y-107535714D01*
X182583333Y-107488095D01*
X182821429Y-107488095D01*
X183011905Y-107535714D01*
X183107143Y-107583333D01*
X183154762Y-107630952D01*
X183202381Y-107726190D01*
X183202381Y-107821429D01*
X183154762Y-107916667D01*
X183107143Y-107964286D01*
X183011905Y-108011905D01*
X182821429Y-108059524D01*
X182583333Y-108059524D01*
X182392857Y-108011905D01*
X182297619Y-107964286D01*
X182250000Y-107916667D01*
X182202381Y-107821429D01*
X179857143Y-124940476D02*
X179904762Y-124988095D01*
X179952381Y-125130952D01*
X179952381Y-125226190D01*
X179904762Y-125369048D01*
X179809524Y-125464286D01*
X179714286Y-125511905D01*
X179523810Y-125559524D01*
X179380952Y-125559524D01*
X179190476Y-125511905D01*
X179095238Y-125464286D01*
X179000000Y-125369048D01*
X178952381Y-125226190D01*
X178952381Y-125130952D01*
X179000000Y-124988095D01*
X179047619Y-124940476D01*
X183107143Y-125892857D02*
X183154762Y-125940476D01*
X183202381Y-126083333D01*
X183202381Y-126178571D01*
X183154762Y-126321429D01*
X183059524Y-126416667D01*
X182964286Y-126464286D01*
X182773810Y-126511905D01*
X182630952Y-126511905D01*
X182440476Y-126464286D01*
X182345238Y-126416667D01*
X182250000Y-126321429D01*
X182202381Y-126178571D01*
X182202381Y-126083333D01*
X182250000Y-125940476D01*
X182297619Y-125892857D01*
X182202381Y-125559524D02*
X182202381Y-124940476D01*
X182583333Y-125273810D01*
X182583333Y-125130952D01*
X182630952Y-125035714D01*
X182678571Y-124988095D01*
X182773810Y-124940476D01*
X183011905Y-124940476D01*
X183107143Y-124988095D01*
X183154762Y-125035714D01*
X183202381Y-125130952D01*
X183202381Y-125416667D01*
X183154762Y-125511905D01*
X183107143Y-125559524D01*
X183202381Y-123988095D02*
X183202381Y-124559524D01*
X183202381Y-124273810D02*
X182202381Y-124273810D01*
X182345238Y-124369048D01*
X182440476Y-124464286D01*
X182488095Y-124559524D01*
X179857143Y-141440476D02*
X179904762Y-141488095D01*
X179952381Y-141630952D01*
X179952381Y-141726190D01*
X179904762Y-141869048D01*
X179809524Y-141964286D01*
X179714286Y-142011905D01*
X179523810Y-142059524D01*
X179380952Y-142059524D01*
X179190476Y-142011905D01*
X179095238Y-141964286D01*
X179000000Y-141869048D01*
X178952381Y-141726190D01*
X178952381Y-141630952D01*
X179000000Y-141488095D01*
X179047619Y-141440476D01*
X183107143Y-142392857D02*
X183154762Y-142440476D01*
X183202381Y-142583333D01*
X183202381Y-142678571D01*
X183154762Y-142821429D01*
X183059524Y-142916667D01*
X182964286Y-142964286D01*
X182773810Y-143011905D01*
X182630952Y-143011905D01*
X182440476Y-142964286D01*
X182345238Y-142916667D01*
X182250000Y-142821429D01*
X182202381Y-142678571D01*
X182202381Y-142583333D01*
X182250000Y-142440476D01*
X182297619Y-142392857D01*
X182202381Y-142059524D02*
X182202381Y-141440476D01*
X182583333Y-141773810D01*
X182583333Y-141630952D01*
X182630952Y-141535714D01*
X182678571Y-141488095D01*
X182773810Y-141440476D01*
X183011905Y-141440476D01*
X183107143Y-141488095D01*
X183154762Y-141535714D01*
X183202381Y-141630952D01*
X183202381Y-141916667D01*
X183154762Y-142011905D01*
X183107143Y-142059524D01*
X182297619Y-141059524D02*
X182250000Y-141011905D01*
X182202381Y-140916667D01*
X182202381Y-140678571D01*
X182250000Y-140583333D01*
X182297619Y-140535714D01*
X182392857Y-140488095D01*
X182488095Y-140488095D01*
X182630952Y-140535714D01*
X183202381Y-141107143D01*
X183202381Y-140488095D01*
X196357143Y-58940476D02*
X196404762Y-58988095D01*
X196452381Y-59130952D01*
X196452381Y-59226190D01*
X196404762Y-59369048D01*
X196309524Y-59464286D01*
X196214286Y-59511905D01*
X196023810Y-59559524D01*
X195880952Y-59559524D01*
X195690476Y-59511905D01*
X195595238Y-59464286D01*
X195500000Y-59369048D01*
X195452381Y-59226190D01*
X195452381Y-59130952D01*
X195500000Y-58988095D01*
X195547619Y-58940476D01*
X199607143Y-59892857D02*
X199654762Y-59940476D01*
X199702381Y-60083333D01*
X199702381Y-60178571D01*
X199654762Y-60321429D01*
X199559524Y-60416667D01*
X199464286Y-60464286D01*
X199273810Y-60511905D01*
X199130952Y-60511905D01*
X198940476Y-60464286D01*
X198845238Y-60416667D01*
X198750000Y-60321429D01*
X198702381Y-60178571D01*
X198702381Y-60083333D01*
X198750000Y-59940476D01*
X198797619Y-59892857D01*
X198702381Y-59559524D02*
X198702381Y-58940476D01*
X199083333Y-59273810D01*
X199083333Y-59130952D01*
X199130952Y-59035714D01*
X199178571Y-58988095D01*
X199273810Y-58940476D01*
X199511905Y-58940476D01*
X199607143Y-58988095D01*
X199654762Y-59035714D01*
X199702381Y-59130952D01*
X199702381Y-59416667D01*
X199654762Y-59511905D01*
X199607143Y-59559524D01*
X198702381Y-58607143D02*
X198702381Y-57988095D01*
X199083333Y-58321429D01*
X199083333Y-58178571D01*
X199130952Y-58083333D01*
X199178571Y-58035714D01*
X199273810Y-57988095D01*
X199511905Y-57988095D01*
X199607143Y-58035714D01*
X199654762Y-58083333D01*
X199702381Y-58178571D01*
X199702381Y-58464286D01*
X199654762Y-58559524D01*
X199607143Y-58607143D01*
X196357143Y-75440476D02*
X196404762Y-75488095D01*
X196452381Y-75630952D01*
X196452381Y-75726190D01*
X196404762Y-75869048D01*
X196309524Y-75964286D01*
X196214286Y-76011905D01*
X196023810Y-76059524D01*
X195880952Y-76059524D01*
X195690476Y-76011905D01*
X195595238Y-75964286D01*
X195500000Y-75869048D01*
X195452381Y-75726190D01*
X195452381Y-75630952D01*
X195500000Y-75488095D01*
X195547619Y-75440476D01*
X199607143Y-76392857D02*
X199654762Y-76440476D01*
X199702381Y-76583333D01*
X199702381Y-76678571D01*
X199654762Y-76821429D01*
X199559524Y-76916667D01*
X199464286Y-76964286D01*
X199273810Y-77011905D01*
X199130952Y-77011905D01*
X198940476Y-76964286D01*
X198845238Y-76916667D01*
X198750000Y-76821429D01*
X198702381Y-76678571D01*
X198702381Y-76583333D01*
X198750000Y-76440476D01*
X198797619Y-76392857D01*
X198702381Y-76059524D02*
X198702381Y-75440476D01*
X199083333Y-75773810D01*
X199083333Y-75630952D01*
X199130952Y-75535714D01*
X199178571Y-75488095D01*
X199273810Y-75440476D01*
X199511905Y-75440476D01*
X199607143Y-75488095D01*
X199654762Y-75535714D01*
X199702381Y-75630952D01*
X199702381Y-75916667D01*
X199654762Y-76011905D01*
X199607143Y-76059524D01*
X199035714Y-74583333D02*
X199702381Y-74583333D01*
X198654762Y-74821429D02*
X199369048Y-75059524D01*
X199369048Y-74440476D01*
X196357143Y-91940476D02*
X196404762Y-91988095D01*
X196452381Y-92130952D01*
X196452381Y-92226190D01*
X196404762Y-92369048D01*
X196309524Y-92464286D01*
X196214286Y-92511905D01*
X196023810Y-92559524D01*
X195880952Y-92559524D01*
X195690476Y-92511905D01*
X195595238Y-92464286D01*
X195500000Y-92369048D01*
X195452381Y-92226190D01*
X195452381Y-92130952D01*
X195500000Y-91988095D01*
X195547619Y-91940476D01*
X199607143Y-92892857D02*
X199654762Y-92940476D01*
X199702381Y-93083333D01*
X199702381Y-93178571D01*
X199654762Y-93321429D01*
X199559524Y-93416667D01*
X199464286Y-93464286D01*
X199273810Y-93511905D01*
X199130952Y-93511905D01*
X198940476Y-93464286D01*
X198845238Y-93416667D01*
X198750000Y-93321429D01*
X198702381Y-93178571D01*
X198702381Y-93083333D01*
X198750000Y-92940476D01*
X198797619Y-92892857D01*
X198702381Y-92559524D02*
X198702381Y-91940476D01*
X199083333Y-92273810D01*
X199083333Y-92130952D01*
X199130952Y-92035714D01*
X199178571Y-91988095D01*
X199273810Y-91940476D01*
X199511905Y-91940476D01*
X199607143Y-91988095D01*
X199654762Y-92035714D01*
X199702381Y-92130952D01*
X199702381Y-92416667D01*
X199654762Y-92511905D01*
X199607143Y-92559524D01*
X198702381Y-91035714D02*
X198702381Y-91511905D01*
X199178571Y-91559524D01*
X199130952Y-91511905D01*
X199083333Y-91416667D01*
X199083333Y-91178571D01*
X199130952Y-91083333D01*
X199178571Y-91035714D01*
X199273810Y-90988095D01*
X199511905Y-90988095D01*
X199607143Y-91035714D01*
X199654762Y-91083333D01*
X199702381Y-91178571D01*
X199702381Y-91416667D01*
X199654762Y-91511905D01*
X199607143Y-91559524D01*
X196357143Y-108440476D02*
X196404762Y-108488095D01*
X196452381Y-108630952D01*
X196452381Y-108726190D01*
X196404762Y-108869048D01*
X196309524Y-108964286D01*
X196214286Y-109011905D01*
X196023810Y-109059524D01*
X195880952Y-109059524D01*
X195690476Y-109011905D01*
X195595238Y-108964286D01*
X195500000Y-108869048D01*
X195452381Y-108726190D01*
X195452381Y-108630952D01*
X195500000Y-108488095D01*
X195547619Y-108440476D01*
X199607143Y-109392857D02*
X199654762Y-109440476D01*
X199702381Y-109583333D01*
X199702381Y-109678571D01*
X199654762Y-109821429D01*
X199559524Y-109916667D01*
X199464286Y-109964286D01*
X199273810Y-110011905D01*
X199130952Y-110011905D01*
X198940476Y-109964286D01*
X198845238Y-109916667D01*
X198750000Y-109821429D01*
X198702381Y-109678571D01*
X198702381Y-109583333D01*
X198750000Y-109440476D01*
X198797619Y-109392857D01*
X198702381Y-109059524D02*
X198702381Y-108440476D01*
X199083333Y-108773810D01*
X199083333Y-108630952D01*
X199130952Y-108535714D01*
X199178571Y-108488095D01*
X199273810Y-108440476D01*
X199511905Y-108440476D01*
X199607143Y-108488095D01*
X199654762Y-108535714D01*
X199702381Y-108630952D01*
X199702381Y-108916667D01*
X199654762Y-109011905D01*
X199607143Y-109059524D01*
X198702381Y-107583333D02*
X198702381Y-107773810D01*
X198750000Y-107869048D01*
X198797619Y-107916667D01*
X198940476Y-108011905D01*
X199130952Y-108059524D01*
X199511905Y-108059524D01*
X199607143Y-108011905D01*
X199654762Y-107964286D01*
X199702381Y-107869048D01*
X199702381Y-107678571D01*
X199654762Y-107583333D01*
X199607143Y-107535714D01*
X199511905Y-107488095D01*
X199273810Y-107488095D01*
X199178571Y-107535714D01*
X199130952Y-107583333D01*
X199083333Y-107678571D01*
X199083333Y-107869048D01*
X199130952Y-107964286D01*
X199178571Y-108011905D01*
X199273810Y-108059524D01*
X196357143Y-124940476D02*
X196404762Y-124988095D01*
X196452381Y-125130952D01*
X196452381Y-125226190D01*
X196404762Y-125369048D01*
X196309524Y-125464286D01*
X196214286Y-125511905D01*
X196023810Y-125559524D01*
X195880952Y-125559524D01*
X195690476Y-125511905D01*
X195595238Y-125464286D01*
X195500000Y-125369048D01*
X195452381Y-125226190D01*
X195452381Y-125130952D01*
X195500000Y-124988095D01*
X195547619Y-124940476D01*
X199607143Y-125892857D02*
X199654762Y-125940476D01*
X199702381Y-126083333D01*
X199702381Y-126178571D01*
X199654762Y-126321429D01*
X199559524Y-126416667D01*
X199464286Y-126464286D01*
X199273810Y-126511905D01*
X199130952Y-126511905D01*
X198940476Y-126464286D01*
X198845238Y-126416667D01*
X198750000Y-126321429D01*
X198702381Y-126178571D01*
X198702381Y-126083333D01*
X198750000Y-125940476D01*
X198797619Y-125892857D01*
X198702381Y-125559524D02*
X198702381Y-124940476D01*
X199083333Y-125273810D01*
X199083333Y-125130952D01*
X199130952Y-125035714D01*
X199178571Y-124988095D01*
X199273810Y-124940476D01*
X199511905Y-124940476D01*
X199607143Y-124988095D01*
X199654762Y-125035714D01*
X199702381Y-125130952D01*
X199702381Y-125416667D01*
X199654762Y-125511905D01*
X199607143Y-125559524D01*
X198702381Y-124607143D02*
X198702381Y-123940476D01*
X199702381Y-124369048D01*
X196357143Y-141440476D02*
X196404762Y-141488095D01*
X196452381Y-141630952D01*
X196452381Y-141726190D01*
X196404762Y-141869048D01*
X196309524Y-141964286D01*
X196214286Y-142011905D01*
X196023810Y-142059524D01*
X195880952Y-142059524D01*
X195690476Y-142011905D01*
X195595238Y-141964286D01*
X195500000Y-141869048D01*
X195452381Y-141726190D01*
X195452381Y-141630952D01*
X195500000Y-141488095D01*
X195547619Y-141440476D01*
X199607143Y-142392857D02*
X199654762Y-142440476D01*
X199702381Y-142583333D01*
X199702381Y-142678571D01*
X199654762Y-142821429D01*
X199559524Y-142916667D01*
X199464286Y-142964286D01*
X199273810Y-143011905D01*
X199130952Y-143011905D01*
X198940476Y-142964286D01*
X198845238Y-142916667D01*
X198750000Y-142821429D01*
X198702381Y-142678571D01*
X198702381Y-142583333D01*
X198750000Y-142440476D01*
X198797619Y-142392857D01*
X198702381Y-142059524D02*
X198702381Y-141440476D01*
X199083333Y-141773810D01*
X199083333Y-141630952D01*
X199130952Y-141535714D01*
X199178571Y-141488095D01*
X199273810Y-141440476D01*
X199511905Y-141440476D01*
X199607143Y-141488095D01*
X199654762Y-141535714D01*
X199702381Y-141630952D01*
X199702381Y-141916667D01*
X199654762Y-142011905D01*
X199607143Y-142059524D01*
X199130952Y-140869048D02*
X199083333Y-140964286D01*
X199035714Y-141011905D01*
X198940476Y-141059524D01*
X198892857Y-141059524D01*
X198797619Y-141011905D01*
X198750000Y-140964286D01*
X198702381Y-140869048D01*
X198702381Y-140678571D01*
X198750000Y-140583333D01*
X198797619Y-140535714D01*
X198892857Y-140488095D01*
X198940476Y-140488095D01*
X199035714Y-140535714D01*
X199083333Y-140583333D01*
X199130952Y-140678571D01*
X199130952Y-140869048D01*
X199178571Y-140964286D01*
X199226190Y-141011905D01*
X199321429Y-141059524D01*
X199511905Y-141059524D01*
X199607143Y-141011905D01*
X199654762Y-140964286D01*
X199702381Y-140869048D01*
X199702381Y-140678571D01*
X199654762Y-140583333D01*
X199607143Y-140535714D01*
X199511905Y-140488095D01*
X199321429Y-140488095D01*
X199226190Y-140535714D01*
X199178571Y-140583333D01*
X199130952Y-140678571D01*
X123702381Y-62559524D02*
X124702381Y-62321429D01*
X123988095Y-62130952D01*
X124702381Y-61940476D01*
X123702381Y-61702381D01*
X124654762Y-61369048D02*
X124702381Y-61226191D01*
X124702381Y-60988095D01*
X124654762Y-60892857D01*
X124607143Y-60845238D01*
X124511905Y-60797619D01*
X124416667Y-60797619D01*
X124321429Y-60845238D01*
X124273810Y-60892857D01*
X124226190Y-60988095D01*
X124178571Y-61178572D01*
X124130952Y-61273810D01*
X124083333Y-61321429D01*
X123988095Y-61369048D01*
X123892857Y-61369048D01*
X123797619Y-61321429D01*
X123750000Y-61273810D01*
X123702381Y-61178572D01*
X123702381Y-60940476D01*
X123750000Y-60797619D01*
X123797619Y-60416667D02*
X123750000Y-60369048D01*
X123702381Y-60273810D01*
X123702381Y-60035714D01*
X123750000Y-59940476D01*
X123797619Y-59892857D01*
X123892857Y-59845238D01*
X123988095Y-59845238D01*
X124130952Y-59892857D01*
X124702381Y-60464286D01*
X124702381Y-59845238D01*
X124130952Y-59273810D02*
X124083333Y-59369048D01*
X124035714Y-59416667D01*
X123940476Y-59464286D01*
X123892857Y-59464286D01*
X123797619Y-59416667D01*
X123750000Y-59369048D01*
X123702381Y-59273810D01*
X123702381Y-59083333D01*
X123750000Y-58988095D01*
X123797619Y-58940476D01*
X123892857Y-58892857D01*
X123940476Y-58892857D01*
X124035714Y-58940476D01*
X124083333Y-58988095D01*
X124130952Y-59083333D01*
X124130952Y-59273810D01*
X124178571Y-59369048D01*
X124226190Y-59416667D01*
X124321429Y-59464286D01*
X124511905Y-59464286D01*
X124607143Y-59416667D01*
X124654762Y-59369048D01*
X124702381Y-59273810D01*
X124702381Y-59083333D01*
X124654762Y-58988095D01*
X124607143Y-58940476D01*
X124511905Y-58892857D01*
X124321429Y-58892857D01*
X124226190Y-58940476D01*
X124178571Y-58988095D01*
X124130952Y-59083333D01*
X124702381Y-57940476D02*
X124702381Y-58511905D01*
X124702381Y-58226191D02*
X123702381Y-58226191D01*
X123845238Y-58321429D01*
X123940476Y-58416667D01*
X123988095Y-58511905D01*
X123797619Y-57559524D02*
X123750000Y-57511905D01*
X123702381Y-57416667D01*
X123702381Y-57178571D01*
X123750000Y-57083333D01*
X123797619Y-57035714D01*
X123892857Y-56988095D01*
X123988095Y-56988095D01*
X124130952Y-57035714D01*
X124702381Y-57607143D01*
X124702381Y-56988095D01*
X124178571Y-56226190D02*
X124226190Y-56083333D01*
X124273810Y-56035714D01*
X124369048Y-55988095D01*
X124511905Y-55988095D01*
X124607143Y-56035714D01*
X124654762Y-56083333D01*
X124702381Y-56178571D01*
X124702381Y-56559524D01*
X123702381Y-56559524D01*
X123702381Y-56226190D01*
X123750000Y-56130952D01*
X123797619Y-56083333D01*
X123892857Y-56035714D01*
X123988095Y-56035714D01*
X124083333Y-56083333D01*
X124130952Y-56130952D01*
X124178571Y-56226190D01*
X124178571Y-56559524D01*
X123702381Y-79059524D02*
X124702381Y-78821429D01*
X123988095Y-78630952D01*
X124702381Y-78440476D01*
X123702381Y-78202381D01*
X124654762Y-77869048D02*
X124702381Y-77726191D01*
X124702381Y-77488095D01*
X124654762Y-77392857D01*
X124607143Y-77345238D01*
X124511905Y-77297619D01*
X124416667Y-77297619D01*
X124321429Y-77345238D01*
X124273810Y-77392857D01*
X124226190Y-77488095D01*
X124178571Y-77678572D01*
X124130952Y-77773810D01*
X124083333Y-77821429D01*
X123988095Y-77869048D01*
X123892857Y-77869048D01*
X123797619Y-77821429D01*
X123750000Y-77773810D01*
X123702381Y-77678572D01*
X123702381Y-77440476D01*
X123750000Y-77297619D01*
X123797619Y-76916667D02*
X123750000Y-76869048D01*
X123702381Y-76773810D01*
X123702381Y-76535714D01*
X123750000Y-76440476D01*
X123797619Y-76392857D01*
X123892857Y-76345238D01*
X123988095Y-76345238D01*
X124130952Y-76392857D01*
X124702381Y-76964286D01*
X124702381Y-76345238D01*
X124130952Y-75773810D02*
X124083333Y-75869048D01*
X124035714Y-75916667D01*
X123940476Y-75964286D01*
X123892857Y-75964286D01*
X123797619Y-75916667D01*
X123750000Y-75869048D01*
X123702381Y-75773810D01*
X123702381Y-75583333D01*
X123750000Y-75488095D01*
X123797619Y-75440476D01*
X123892857Y-75392857D01*
X123940476Y-75392857D01*
X124035714Y-75440476D01*
X124083333Y-75488095D01*
X124130952Y-75583333D01*
X124130952Y-75773810D01*
X124178571Y-75869048D01*
X124226190Y-75916667D01*
X124321429Y-75964286D01*
X124511905Y-75964286D01*
X124607143Y-75916667D01*
X124654762Y-75869048D01*
X124702381Y-75773810D01*
X124702381Y-75583333D01*
X124654762Y-75488095D01*
X124607143Y-75440476D01*
X124511905Y-75392857D01*
X124321429Y-75392857D01*
X124226190Y-75440476D01*
X124178571Y-75488095D01*
X124130952Y-75583333D01*
X124702381Y-74440476D02*
X124702381Y-75011905D01*
X124702381Y-74726191D02*
X123702381Y-74726191D01*
X123845238Y-74821429D01*
X123940476Y-74916667D01*
X123988095Y-75011905D01*
X123797619Y-74059524D02*
X123750000Y-74011905D01*
X123702381Y-73916667D01*
X123702381Y-73678571D01*
X123750000Y-73583333D01*
X123797619Y-73535714D01*
X123892857Y-73488095D01*
X123988095Y-73488095D01*
X124130952Y-73535714D01*
X124702381Y-74107143D01*
X124702381Y-73488095D01*
X124178571Y-72726190D02*
X124226190Y-72583333D01*
X124273810Y-72535714D01*
X124369048Y-72488095D01*
X124511905Y-72488095D01*
X124607143Y-72535714D01*
X124654762Y-72583333D01*
X124702381Y-72678571D01*
X124702381Y-73059524D01*
X123702381Y-73059524D01*
X123702381Y-72726190D01*
X123750000Y-72630952D01*
X123797619Y-72583333D01*
X123892857Y-72535714D01*
X123988095Y-72535714D01*
X124083333Y-72583333D01*
X124130952Y-72630952D01*
X124178571Y-72726190D01*
X124178571Y-73059524D01*
X123702381Y-95559524D02*
X124702381Y-95321429D01*
X123988095Y-95130952D01*
X124702381Y-94940476D01*
X123702381Y-94702381D01*
X124654762Y-94369048D02*
X124702381Y-94226191D01*
X124702381Y-93988095D01*
X124654762Y-93892857D01*
X124607143Y-93845238D01*
X124511905Y-93797619D01*
X124416667Y-93797619D01*
X124321429Y-93845238D01*
X124273810Y-93892857D01*
X124226190Y-93988095D01*
X124178571Y-94178572D01*
X124130952Y-94273810D01*
X124083333Y-94321429D01*
X123988095Y-94369048D01*
X123892857Y-94369048D01*
X123797619Y-94321429D01*
X123750000Y-94273810D01*
X123702381Y-94178572D01*
X123702381Y-93940476D01*
X123750000Y-93797619D01*
X123797619Y-93416667D02*
X123750000Y-93369048D01*
X123702381Y-93273810D01*
X123702381Y-93035714D01*
X123750000Y-92940476D01*
X123797619Y-92892857D01*
X123892857Y-92845238D01*
X123988095Y-92845238D01*
X124130952Y-92892857D01*
X124702381Y-93464286D01*
X124702381Y-92845238D01*
X124130952Y-92273810D02*
X124083333Y-92369048D01*
X124035714Y-92416667D01*
X123940476Y-92464286D01*
X123892857Y-92464286D01*
X123797619Y-92416667D01*
X123750000Y-92369048D01*
X123702381Y-92273810D01*
X123702381Y-92083333D01*
X123750000Y-91988095D01*
X123797619Y-91940476D01*
X123892857Y-91892857D01*
X123940476Y-91892857D01*
X124035714Y-91940476D01*
X124083333Y-91988095D01*
X124130952Y-92083333D01*
X124130952Y-92273810D01*
X124178571Y-92369048D01*
X124226190Y-92416667D01*
X124321429Y-92464286D01*
X124511905Y-92464286D01*
X124607143Y-92416667D01*
X124654762Y-92369048D01*
X124702381Y-92273810D01*
X124702381Y-92083333D01*
X124654762Y-91988095D01*
X124607143Y-91940476D01*
X124511905Y-91892857D01*
X124321429Y-91892857D01*
X124226190Y-91940476D01*
X124178571Y-91988095D01*
X124130952Y-92083333D01*
X124702381Y-90940476D02*
X124702381Y-91511905D01*
X124702381Y-91226191D02*
X123702381Y-91226191D01*
X123845238Y-91321429D01*
X123940476Y-91416667D01*
X123988095Y-91511905D01*
X123797619Y-90559524D02*
X123750000Y-90511905D01*
X123702381Y-90416667D01*
X123702381Y-90178571D01*
X123750000Y-90083333D01*
X123797619Y-90035714D01*
X123892857Y-89988095D01*
X123988095Y-89988095D01*
X124130952Y-90035714D01*
X124702381Y-90607143D01*
X124702381Y-89988095D01*
X124178571Y-89226190D02*
X124226190Y-89083333D01*
X124273810Y-89035714D01*
X124369048Y-88988095D01*
X124511905Y-88988095D01*
X124607143Y-89035714D01*
X124654762Y-89083333D01*
X124702381Y-89178571D01*
X124702381Y-89559524D01*
X123702381Y-89559524D01*
X123702381Y-89226190D01*
X123750000Y-89130952D01*
X123797619Y-89083333D01*
X123892857Y-89035714D01*
X123988095Y-89035714D01*
X124083333Y-89083333D01*
X124130952Y-89130952D01*
X124178571Y-89226190D01*
X124178571Y-89559524D01*
X123702381Y-112059524D02*
X124702381Y-111821429D01*
X123988095Y-111630952D01*
X124702381Y-111440476D01*
X123702381Y-111202381D01*
X124654762Y-110869048D02*
X124702381Y-110726191D01*
X124702381Y-110488095D01*
X124654762Y-110392857D01*
X124607143Y-110345238D01*
X124511905Y-110297619D01*
X124416667Y-110297619D01*
X124321429Y-110345238D01*
X124273810Y-110392857D01*
X124226190Y-110488095D01*
X124178571Y-110678572D01*
X124130952Y-110773810D01*
X124083333Y-110821429D01*
X123988095Y-110869048D01*
X123892857Y-110869048D01*
X123797619Y-110821429D01*
X123750000Y-110773810D01*
X123702381Y-110678572D01*
X123702381Y-110440476D01*
X123750000Y-110297619D01*
X123797619Y-109916667D02*
X123750000Y-109869048D01*
X123702381Y-109773810D01*
X123702381Y-109535714D01*
X123750000Y-109440476D01*
X123797619Y-109392857D01*
X123892857Y-109345238D01*
X123988095Y-109345238D01*
X124130952Y-109392857D01*
X124702381Y-109964286D01*
X124702381Y-109345238D01*
X124130952Y-108773810D02*
X124083333Y-108869048D01*
X124035714Y-108916667D01*
X123940476Y-108964286D01*
X123892857Y-108964286D01*
X123797619Y-108916667D01*
X123750000Y-108869048D01*
X123702381Y-108773810D01*
X123702381Y-108583333D01*
X123750000Y-108488095D01*
X123797619Y-108440476D01*
X123892857Y-108392857D01*
X123940476Y-108392857D01*
X124035714Y-108440476D01*
X124083333Y-108488095D01*
X124130952Y-108583333D01*
X124130952Y-108773810D01*
X124178571Y-108869048D01*
X124226190Y-108916667D01*
X124321429Y-108964286D01*
X124511905Y-108964286D01*
X124607143Y-108916667D01*
X124654762Y-108869048D01*
X124702381Y-108773810D01*
X124702381Y-108583333D01*
X124654762Y-108488095D01*
X124607143Y-108440476D01*
X124511905Y-108392857D01*
X124321429Y-108392857D01*
X124226190Y-108440476D01*
X124178571Y-108488095D01*
X124130952Y-108583333D01*
X124702381Y-107440476D02*
X124702381Y-108011905D01*
X124702381Y-107726191D02*
X123702381Y-107726191D01*
X123845238Y-107821429D01*
X123940476Y-107916667D01*
X123988095Y-108011905D01*
X123797619Y-107059524D02*
X123750000Y-107011905D01*
X123702381Y-106916667D01*
X123702381Y-106678571D01*
X123750000Y-106583333D01*
X123797619Y-106535714D01*
X123892857Y-106488095D01*
X123988095Y-106488095D01*
X124130952Y-106535714D01*
X124702381Y-107107143D01*
X124702381Y-106488095D01*
X124178571Y-105726190D02*
X124226190Y-105583333D01*
X124273810Y-105535714D01*
X124369048Y-105488095D01*
X124511905Y-105488095D01*
X124607143Y-105535714D01*
X124654762Y-105583333D01*
X124702381Y-105678571D01*
X124702381Y-106059524D01*
X123702381Y-106059524D01*
X123702381Y-105726190D01*
X123750000Y-105630952D01*
X123797619Y-105583333D01*
X123892857Y-105535714D01*
X123988095Y-105535714D01*
X124083333Y-105583333D01*
X124130952Y-105630952D01*
X124178571Y-105726190D01*
X124178571Y-106059524D01*
X123702381Y-128559524D02*
X124702381Y-128321429D01*
X123988095Y-128130952D01*
X124702381Y-127940476D01*
X123702381Y-127702381D01*
X124654762Y-127369048D02*
X124702381Y-127226191D01*
X124702381Y-126988095D01*
X124654762Y-126892857D01*
X124607143Y-126845238D01*
X124511905Y-126797619D01*
X124416667Y-126797619D01*
X124321429Y-126845238D01*
X124273810Y-126892857D01*
X124226190Y-126988095D01*
X124178571Y-127178572D01*
X124130952Y-127273810D01*
X124083333Y-127321429D01*
X123988095Y-127369048D01*
X123892857Y-127369048D01*
X123797619Y-127321429D01*
X123750000Y-127273810D01*
X123702381Y-127178572D01*
X123702381Y-126940476D01*
X123750000Y-126797619D01*
X123797619Y-126416667D02*
X123750000Y-126369048D01*
X123702381Y-126273810D01*
X123702381Y-126035714D01*
X123750000Y-125940476D01*
X123797619Y-125892857D01*
X123892857Y-125845238D01*
X123988095Y-125845238D01*
X124130952Y-125892857D01*
X124702381Y-126464286D01*
X124702381Y-125845238D01*
X124130952Y-125273810D02*
X124083333Y-125369048D01*
X124035714Y-125416667D01*
X123940476Y-125464286D01*
X123892857Y-125464286D01*
X123797619Y-125416667D01*
X123750000Y-125369048D01*
X123702381Y-125273810D01*
X123702381Y-125083333D01*
X123750000Y-124988095D01*
X123797619Y-124940476D01*
X123892857Y-124892857D01*
X123940476Y-124892857D01*
X124035714Y-124940476D01*
X124083333Y-124988095D01*
X124130952Y-125083333D01*
X124130952Y-125273810D01*
X124178571Y-125369048D01*
X124226190Y-125416667D01*
X124321429Y-125464286D01*
X124511905Y-125464286D01*
X124607143Y-125416667D01*
X124654762Y-125369048D01*
X124702381Y-125273810D01*
X124702381Y-125083333D01*
X124654762Y-124988095D01*
X124607143Y-124940476D01*
X124511905Y-124892857D01*
X124321429Y-124892857D01*
X124226190Y-124940476D01*
X124178571Y-124988095D01*
X124130952Y-125083333D01*
X124702381Y-123940476D02*
X124702381Y-124511905D01*
X124702381Y-124226191D02*
X123702381Y-124226191D01*
X123845238Y-124321429D01*
X123940476Y-124416667D01*
X123988095Y-124511905D01*
X123797619Y-123559524D02*
X123750000Y-123511905D01*
X123702381Y-123416667D01*
X123702381Y-123178571D01*
X123750000Y-123083333D01*
X123797619Y-123035714D01*
X123892857Y-122988095D01*
X123988095Y-122988095D01*
X124130952Y-123035714D01*
X124702381Y-123607143D01*
X124702381Y-122988095D01*
X124178571Y-122226190D02*
X124226190Y-122083333D01*
X124273810Y-122035714D01*
X124369048Y-121988095D01*
X124511905Y-121988095D01*
X124607143Y-122035714D01*
X124654762Y-122083333D01*
X124702381Y-122178571D01*
X124702381Y-122559524D01*
X123702381Y-122559524D01*
X123702381Y-122226190D01*
X123750000Y-122130952D01*
X123797619Y-122083333D01*
X123892857Y-122035714D01*
X123988095Y-122035714D01*
X124083333Y-122083333D01*
X124130952Y-122130952D01*
X124178571Y-122226190D01*
X124178571Y-122559524D01*
X123702381Y-145059524D02*
X124702381Y-144821429D01*
X123988095Y-144630952D01*
X124702381Y-144440476D01*
X123702381Y-144202381D01*
X124654762Y-143869048D02*
X124702381Y-143726191D01*
X124702381Y-143488095D01*
X124654762Y-143392857D01*
X124607143Y-143345238D01*
X124511905Y-143297619D01*
X124416667Y-143297619D01*
X124321429Y-143345238D01*
X124273810Y-143392857D01*
X124226190Y-143488095D01*
X124178571Y-143678572D01*
X124130952Y-143773810D01*
X124083333Y-143821429D01*
X123988095Y-143869048D01*
X123892857Y-143869048D01*
X123797619Y-143821429D01*
X123750000Y-143773810D01*
X123702381Y-143678572D01*
X123702381Y-143440476D01*
X123750000Y-143297619D01*
X123797619Y-142916667D02*
X123750000Y-142869048D01*
X123702381Y-142773810D01*
X123702381Y-142535714D01*
X123750000Y-142440476D01*
X123797619Y-142392857D01*
X123892857Y-142345238D01*
X123988095Y-142345238D01*
X124130952Y-142392857D01*
X124702381Y-142964286D01*
X124702381Y-142345238D01*
X124130952Y-141773810D02*
X124083333Y-141869048D01*
X124035714Y-141916667D01*
X123940476Y-141964286D01*
X123892857Y-141964286D01*
X123797619Y-141916667D01*
X123750000Y-141869048D01*
X123702381Y-141773810D01*
X123702381Y-141583333D01*
X123750000Y-141488095D01*
X123797619Y-141440476D01*
X123892857Y-141392857D01*
X123940476Y-141392857D01*
X124035714Y-141440476D01*
X124083333Y-141488095D01*
X124130952Y-141583333D01*
X124130952Y-141773810D01*
X124178571Y-141869048D01*
X124226190Y-141916667D01*
X124321429Y-141964286D01*
X124511905Y-141964286D01*
X124607143Y-141916667D01*
X124654762Y-141869048D01*
X124702381Y-141773810D01*
X124702381Y-141583333D01*
X124654762Y-141488095D01*
X124607143Y-141440476D01*
X124511905Y-141392857D01*
X124321429Y-141392857D01*
X124226190Y-141440476D01*
X124178571Y-141488095D01*
X124130952Y-141583333D01*
X124702381Y-140440476D02*
X124702381Y-141011905D01*
X124702381Y-140726191D02*
X123702381Y-140726191D01*
X123845238Y-140821429D01*
X123940476Y-140916667D01*
X123988095Y-141011905D01*
X123797619Y-140059524D02*
X123750000Y-140011905D01*
X123702381Y-139916667D01*
X123702381Y-139678571D01*
X123750000Y-139583333D01*
X123797619Y-139535714D01*
X123892857Y-139488095D01*
X123988095Y-139488095D01*
X124130952Y-139535714D01*
X124702381Y-140107143D01*
X124702381Y-139488095D01*
X124178571Y-138726190D02*
X124226190Y-138583333D01*
X124273810Y-138535714D01*
X124369048Y-138488095D01*
X124511905Y-138488095D01*
X124607143Y-138535714D01*
X124654762Y-138583333D01*
X124702381Y-138678571D01*
X124702381Y-139059524D01*
X123702381Y-139059524D01*
X123702381Y-138726190D01*
X123750000Y-138630952D01*
X123797619Y-138583333D01*
X123892857Y-138535714D01*
X123988095Y-138535714D01*
X124083333Y-138583333D01*
X124130952Y-138630952D01*
X124178571Y-138726190D01*
X124178571Y-139059524D01*
X140202381Y-62559524D02*
X141202381Y-62321429D01*
X140488095Y-62130952D01*
X141202381Y-61940476D01*
X140202381Y-61702381D01*
X141154762Y-61369048D02*
X141202381Y-61226191D01*
X141202381Y-60988095D01*
X141154762Y-60892857D01*
X141107143Y-60845238D01*
X141011905Y-60797619D01*
X140916667Y-60797619D01*
X140821429Y-60845238D01*
X140773810Y-60892857D01*
X140726190Y-60988095D01*
X140678571Y-61178572D01*
X140630952Y-61273810D01*
X140583333Y-61321429D01*
X140488095Y-61369048D01*
X140392857Y-61369048D01*
X140297619Y-61321429D01*
X140250000Y-61273810D01*
X140202381Y-61178572D01*
X140202381Y-60940476D01*
X140250000Y-60797619D01*
X140297619Y-60416667D02*
X140250000Y-60369048D01*
X140202381Y-60273810D01*
X140202381Y-60035714D01*
X140250000Y-59940476D01*
X140297619Y-59892857D01*
X140392857Y-59845238D01*
X140488095Y-59845238D01*
X140630952Y-59892857D01*
X141202381Y-60464286D01*
X141202381Y-59845238D01*
X140630952Y-59273810D02*
X140583333Y-59369048D01*
X140535714Y-59416667D01*
X140440476Y-59464286D01*
X140392857Y-59464286D01*
X140297619Y-59416667D01*
X140250000Y-59369048D01*
X140202381Y-59273810D01*
X140202381Y-59083333D01*
X140250000Y-58988095D01*
X140297619Y-58940476D01*
X140392857Y-58892857D01*
X140440476Y-58892857D01*
X140535714Y-58940476D01*
X140583333Y-58988095D01*
X140630952Y-59083333D01*
X140630952Y-59273810D01*
X140678571Y-59369048D01*
X140726190Y-59416667D01*
X140821429Y-59464286D01*
X141011905Y-59464286D01*
X141107143Y-59416667D01*
X141154762Y-59369048D01*
X141202381Y-59273810D01*
X141202381Y-59083333D01*
X141154762Y-58988095D01*
X141107143Y-58940476D01*
X141011905Y-58892857D01*
X140821429Y-58892857D01*
X140726190Y-58940476D01*
X140678571Y-58988095D01*
X140630952Y-59083333D01*
X141202381Y-57940476D02*
X141202381Y-58511905D01*
X141202381Y-58226191D02*
X140202381Y-58226191D01*
X140345238Y-58321429D01*
X140440476Y-58416667D01*
X140488095Y-58511905D01*
X140297619Y-57559524D02*
X140250000Y-57511905D01*
X140202381Y-57416667D01*
X140202381Y-57178571D01*
X140250000Y-57083333D01*
X140297619Y-57035714D01*
X140392857Y-56988095D01*
X140488095Y-56988095D01*
X140630952Y-57035714D01*
X141202381Y-57607143D01*
X141202381Y-56988095D01*
X140678571Y-56226190D02*
X140726190Y-56083333D01*
X140773810Y-56035714D01*
X140869048Y-55988095D01*
X141011905Y-55988095D01*
X141107143Y-56035714D01*
X141154762Y-56083333D01*
X141202381Y-56178571D01*
X141202381Y-56559524D01*
X140202381Y-56559524D01*
X140202381Y-56226190D01*
X140250000Y-56130952D01*
X140297619Y-56083333D01*
X140392857Y-56035714D01*
X140488095Y-56035714D01*
X140583333Y-56083333D01*
X140630952Y-56130952D01*
X140678571Y-56226190D01*
X140678571Y-56559524D01*
X140202381Y-79059524D02*
X141202381Y-78821429D01*
X140488095Y-78630952D01*
X141202381Y-78440476D01*
X140202381Y-78202381D01*
X141154762Y-77869048D02*
X141202381Y-77726191D01*
X141202381Y-77488095D01*
X141154762Y-77392857D01*
X141107143Y-77345238D01*
X141011905Y-77297619D01*
X140916667Y-77297619D01*
X140821429Y-77345238D01*
X140773810Y-77392857D01*
X140726190Y-77488095D01*
X140678571Y-77678572D01*
X140630952Y-77773810D01*
X140583333Y-77821429D01*
X140488095Y-77869048D01*
X140392857Y-77869048D01*
X140297619Y-77821429D01*
X140250000Y-77773810D01*
X140202381Y-77678572D01*
X140202381Y-77440476D01*
X140250000Y-77297619D01*
X140297619Y-76916667D02*
X140250000Y-76869048D01*
X140202381Y-76773810D01*
X140202381Y-76535714D01*
X140250000Y-76440476D01*
X140297619Y-76392857D01*
X140392857Y-76345238D01*
X140488095Y-76345238D01*
X140630952Y-76392857D01*
X141202381Y-76964286D01*
X141202381Y-76345238D01*
X140630952Y-75773810D02*
X140583333Y-75869048D01*
X140535714Y-75916667D01*
X140440476Y-75964286D01*
X140392857Y-75964286D01*
X140297619Y-75916667D01*
X140250000Y-75869048D01*
X140202381Y-75773810D01*
X140202381Y-75583333D01*
X140250000Y-75488095D01*
X140297619Y-75440476D01*
X140392857Y-75392857D01*
X140440476Y-75392857D01*
X140535714Y-75440476D01*
X140583333Y-75488095D01*
X140630952Y-75583333D01*
X140630952Y-75773810D01*
X140678571Y-75869048D01*
X140726190Y-75916667D01*
X140821429Y-75964286D01*
X141011905Y-75964286D01*
X141107143Y-75916667D01*
X141154762Y-75869048D01*
X141202381Y-75773810D01*
X141202381Y-75583333D01*
X141154762Y-75488095D01*
X141107143Y-75440476D01*
X141011905Y-75392857D01*
X140821429Y-75392857D01*
X140726190Y-75440476D01*
X140678571Y-75488095D01*
X140630952Y-75583333D01*
X141202381Y-74440476D02*
X141202381Y-75011905D01*
X141202381Y-74726191D02*
X140202381Y-74726191D01*
X140345238Y-74821429D01*
X140440476Y-74916667D01*
X140488095Y-75011905D01*
X140297619Y-74059524D02*
X140250000Y-74011905D01*
X140202381Y-73916667D01*
X140202381Y-73678571D01*
X140250000Y-73583333D01*
X140297619Y-73535714D01*
X140392857Y-73488095D01*
X140488095Y-73488095D01*
X140630952Y-73535714D01*
X141202381Y-74107143D01*
X141202381Y-73488095D01*
X140678571Y-72726190D02*
X140726190Y-72583333D01*
X140773810Y-72535714D01*
X140869048Y-72488095D01*
X141011905Y-72488095D01*
X141107143Y-72535714D01*
X141154762Y-72583333D01*
X141202381Y-72678571D01*
X141202381Y-73059524D01*
X140202381Y-73059524D01*
X140202381Y-72726190D01*
X140250000Y-72630952D01*
X140297619Y-72583333D01*
X140392857Y-72535714D01*
X140488095Y-72535714D01*
X140583333Y-72583333D01*
X140630952Y-72630952D01*
X140678571Y-72726190D01*
X140678571Y-73059524D01*
X140202381Y-95559524D02*
X141202381Y-95321429D01*
X140488095Y-95130952D01*
X141202381Y-94940476D01*
X140202381Y-94702381D01*
X141154762Y-94369048D02*
X141202381Y-94226191D01*
X141202381Y-93988095D01*
X141154762Y-93892857D01*
X141107143Y-93845238D01*
X141011905Y-93797619D01*
X140916667Y-93797619D01*
X140821429Y-93845238D01*
X140773810Y-93892857D01*
X140726190Y-93988095D01*
X140678571Y-94178572D01*
X140630952Y-94273810D01*
X140583333Y-94321429D01*
X140488095Y-94369048D01*
X140392857Y-94369048D01*
X140297619Y-94321429D01*
X140250000Y-94273810D01*
X140202381Y-94178572D01*
X140202381Y-93940476D01*
X140250000Y-93797619D01*
X140297619Y-93416667D02*
X140250000Y-93369048D01*
X140202381Y-93273810D01*
X140202381Y-93035714D01*
X140250000Y-92940476D01*
X140297619Y-92892857D01*
X140392857Y-92845238D01*
X140488095Y-92845238D01*
X140630952Y-92892857D01*
X141202381Y-93464286D01*
X141202381Y-92845238D01*
X140630952Y-92273810D02*
X140583333Y-92369048D01*
X140535714Y-92416667D01*
X140440476Y-92464286D01*
X140392857Y-92464286D01*
X140297619Y-92416667D01*
X140250000Y-92369048D01*
X140202381Y-92273810D01*
X140202381Y-92083333D01*
X140250000Y-91988095D01*
X140297619Y-91940476D01*
X140392857Y-91892857D01*
X140440476Y-91892857D01*
X140535714Y-91940476D01*
X140583333Y-91988095D01*
X140630952Y-92083333D01*
X140630952Y-92273810D01*
X140678571Y-92369048D01*
X140726190Y-92416667D01*
X140821429Y-92464286D01*
X141011905Y-92464286D01*
X141107143Y-92416667D01*
X141154762Y-92369048D01*
X141202381Y-92273810D01*
X141202381Y-92083333D01*
X141154762Y-91988095D01*
X141107143Y-91940476D01*
X141011905Y-91892857D01*
X140821429Y-91892857D01*
X140726190Y-91940476D01*
X140678571Y-91988095D01*
X140630952Y-92083333D01*
X141202381Y-90940476D02*
X141202381Y-91511905D01*
X141202381Y-91226191D02*
X140202381Y-91226191D01*
X140345238Y-91321429D01*
X140440476Y-91416667D01*
X140488095Y-91511905D01*
X140297619Y-90559524D02*
X140250000Y-90511905D01*
X140202381Y-90416667D01*
X140202381Y-90178571D01*
X140250000Y-90083333D01*
X140297619Y-90035714D01*
X140392857Y-89988095D01*
X140488095Y-89988095D01*
X140630952Y-90035714D01*
X141202381Y-90607143D01*
X141202381Y-89988095D01*
X140678571Y-89226190D02*
X140726190Y-89083333D01*
X140773810Y-89035714D01*
X140869048Y-88988095D01*
X141011905Y-88988095D01*
X141107143Y-89035714D01*
X141154762Y-89083333D01*
X141202381Y-89178571D01*
X141202381Y-89559524D01*
X140202381Y-89559524D01*
X140202381Y-89226190D01*
X140250000Y-89130952D01*
X140297619Y-89083333D01*
X140392857Y-89035714D01*
X140488095Y-89035714D01*
X140583333Y-89083333D01*
X140630952Y-89130952D01*
X140678571Y-89226190D01*
X140678571Y-89559524D01*
X140202381Y-112059524D02*
X141202381Y-111821429D01*
X140488095Y-111630952D01*
X141202381Y-111440476D01*
X140202381Y-111202381D01*
X141154762Y-110869048D02*
X141202381Y-110726191D01*
X141202381Y-110488095D01*
X141154762Y-110392857D01*
X141107143Y-110345238D01*
X141011905Y-110297619D01*
X140916667Y-110297619D01*
X140821429Y-110345238D01*
X140773810Y-110392857D01*
X140726190Y-110488095D01*
X140678571Y-110678572D01*
X140630952Y-110773810D01*
X140583333Y-110821429D01*
X140488095Y-110869048D01*
X140392857Y-110869048D01*
X140297619Y-110821429D01*
X140250000Y-110773810D01*
X140202381Y-110678572D01*
X140202381Y-110440476D01*
X140250000Y-110297619D01*
X140297619Y-109916667D02*
X140250000Y-109869048D01*
X140202381Y-109773810D01*
X140202381Y-109535714D01*
X140250000Y-109440476D01*
X140297619Y-109392857D01*
X140392857Y-109345238D01*
X140488095Y-109345238D01*
X140630952Y-109392857D01*
X141202381Y-109964286D01*
X141202381Y-109345238D01*
X140630952Y-108773810D02*
X140583333Y-108869048D01*
X140535714Y-108916667D01*
X140440476Y-108964286D01*
X140392857Y-108964286D01*
X140297619Y-108916667D01*
X140250000Y-108869048D01*
X140202381Y-108773810D01*
X140202381Y-108583333D01*
X140250000Y-108488095D01*
X140297619Y-108440476D01*
X140392857Y-108392857D01*
X140440476Y-108392857D01*
X140535714Y-108440476D01*
X140583333Y-108488095D01*
X140630952Y-108583333D01*
X140630952Y-108773810D01*
X140678571Y-108869048D01*
X140726190Y-108916667D01*
X140821429Y-108964286D01*
X141011905Y-108964286D01*
X141107143Y-108916667D01*
X141154762Y-108869048D01*
X141202381Y-108773810D01*
X141202381Y-108583333D01*
X141154762Y-108488095D01*
X141107143Y-108440476D01*
X141011905Y-108392857D01*
X140821429Y-108392857D01*
X140726190Y-108440476D01*
X140678571Y-108488095D01*
X140630952Y-108583333D01*
X141202381Y-107440476D02*
X141202381Y-108011905D01*
X141202381Y-107726191D02*
X140202381Y-107726191D01*
X140345238Y-107821429D01*
X140440476Y-107916667D01*
X140488095Y-108011905D01*
X140297619Y-107059524D02*
X140250000Y-107011905D01*
X140202381Y-106916667D01*
X140202381Y-106678571D01*
X140250000Y-106583333D01*
X140297619Y-106535714D01*
X140392857Y-106488095D01*
X140488095Y-106488095D01*
X140630952Y-106535714D01*
X141202381Y-107107143D01*
X141202381Y-106488095D01*
X140678571Y-105726190D02*
X140726190Y-105583333D01*
X140773810Y-105535714D01*
X140869048Y-105488095D01*
X141011905Y-105488095D01*
X141107143Y-105535714D01*
X141154762Y-105583333D01*
X141202381Y-105678571D01*
X141202381Y-106059524D01*
X140202381Y-106059524D01*
X140202381Y-105726190D01*
X140250000Y-105630952D01*
X140297619Y-105583333D01*
X140392857Y-105535714D01*
X140488095Y-105535714D01*
X140583333Y-105583333D01*
X140630952Y-105630952D01*
X140678571Y-105726190D01*
X140678571Y-106059524D01*
X140202381Y-128559524D02*
X141202381Y-128321429D01*
X140488095Y-128130952D01*
X141202381Y-127940476D01*
X140202381Y-127702381D01*
X141154762Y-127369048D02*
X141202381Y-127226191D01*
X141202381Y-126988095D01*
X141154762Y-126892857D01*
X141107143Y-126845238D01*
X141011905Y-126797619D01*
X140916667Y-126797619D01*
X140821429Y-126845238D01*
X140773810Y-126892857D01*
X140726190Y-126988095D01*
X140678571Y-127178572D01*
X140630952Y-127273810D01*
X140583333Y-127321429D01*
X140488095Y-127369048D01*
X140392857Y-127369048D01*
X140297619Y-127321429D01*
X140250000Y-127273810D01*
X140202381Y-127178572D01*
X140202381Y-126940476D01*
X140250000Y-126797619D01*
X140297619Y-126416667D02*
X140250000Y-126369048D01*
X140202381Y-126273810D01*
X140202381Y-126035714D01*
X140250000Y-125940476D01*
X140297619Y-125892857D01*
X140392857Y-125845238D01*
X140488095Y-125845238D01*
X140630952Y-125892857D01*
X141202381Y-126464286D01*
X141202381Y-125845238D01*
X140630952Y-125273810D02*
X140583333Y-125369048D01*
X140535714Y-125416667D01*
X140440476Y-125464286D01*
X140392857Y-125464286D01*
X140297619Y-125416667D01*
X140250000Y-125369048D01*
X140202381Y-125273810D01*
X140202381Y-125083333D01*
X140250000Y-124988095D01*
X140297619Y-124940476D01*
X140392857Y-124892857D01*
X140440476Y-124892857D01*
X140535714Y-124940476D01*
X140583333Y-124988095D01*
X140630952Y-125083333D01*
X140630952Y-125273810D01*
X140678571Y-125369048D01*
X140726190Y-125416667D01*
X140821429Y-125464286D01*
X141011905Y-125464286D01*
X141107143Y-125416667D01*
X141154762Y-125369048D01*
X141202381Y-125273810D01*
X141202381Y-125083333D01*
X141154762Y-124988095D01*
X141107143Y-124940476D01*
X141011905Y-124892857D01*
X140821429Y-124892857D01*
X140726190Y-124940476D01*
X140678571Y-124988095D01*
X140630952Y-125083333D01*
X141202381Y-123940476D02*
X141202381Y-124511905D01*
X141202381Y-124226191D02*
X140202381Y-124226191D01*
X140345238Y-124321429D01*
X140440476Y-124416667D01*
X140488095Y-124511905D01*
X140297619Y-123559524D02*
X140250000Y-123511905D01*
X140202381Y-123416667D01*
X140202381Y-123178571D01*
X140250000Y-123083333D01*
X140297619Y-123035714D01*
X140392857Y-122988095D01*
X140488095Y-122988095D01*
X140630952Y-123035714D01*
X141202381Y-123607143D01*
X141202381Y-122988095D01*
X140678571Y-122226190D02*
X140726190Y-122083333D01*
X140773810Y-122035714D01*
X140869048Y-121988095D01*
X141011905Y-121988095D01*
X141107143Y-122035714D01*
X141154762Y-122083333D01*
X141202381Y-122178571D01*
X141202381Y-122559524D01*
X140202381Y-122559524D01*
X140202381Y-122226190D01*
X140250000Y-122130952D01*
X140297619Y-122083333D01*
X140392857Y-122035714D01*
X140488095Y-122035714D01*
X140583333Y-122083333D01*
X140630952Y-122130952D01*
X140678571Y-122226190D01*
X140678571Y-122559524D01*
X140202381Y-145059524D02*
X141202381Y-144821429D01*
X140488095Y-144630952D01*
X141202381Y-144440476D01*
X140202381Y-144202381D01*
X141154762Y-143869048D02*
X141202381Y-143726191D01*
X141202381Y-143488095D01*
X141154762Y-143392857D01*
X141107143Y-143345238D01*
X141011905Y-143297619D01*
X140916667Y-143297619D01*
X140821429Y-143345238D01*
X140773810Y-143392857D01*
X140726190Y-143488095D01*
X140678571Y-143678572D01*
X140630952Y-143773810D01*
X140583333Y-143821429D01*
X140488095Y-143869048D01*
X140392857Y-143869048D01*
X140297619Y-143821429D01*
X140250000Y-143773810D01*
X140202381Y-143678572D01*
X140202381Y-143440476D01*
X140250000Y-143297619D01*
X140297619Y-142916667D02*
X140250000Y-142869048D01*
X140202381Y-142773810D01*
X140202381Y-142535714D01*
X140250000Y-142440476D01*
X140297619Y-142392857D01*
X140392857Y-142345238D01*
X140488095Y-142345238D01*
X140630952Y-142392857D01*
X141202381Y-142964286D01*
X141202381Y-142345238D01*
X140630952Y-141773810D02*
X140583333Y-141869048D01*
X140535714Y-141916667D01*
X140440476Y-141964286D01*
X140392857Y-141964286D01*
X140297619Y-141916667D01*
X140250000Y-141869048D01*
X140202381Y-141773810D01*
X140202381Y-141583333D01*
X140250000Y-141488095D01*
X140297619Y-141440476D01*
X140392857Y-141392857D01*
X140440476Y-141392857D01*
X140535714Y-141440476D01*
X140583333Y-141488095D01*
X140630952Y-141583333D01*
X140630952Y-141773810D01*
X140678571Y-141869048D01*
X140726190Y-141916667D01*
X140821429Y-141964286D01*
X141011905Y-141964286D01*
X141107143Y-141916667D01*
X141154762Y-141869048D01*
X141202381Y-141773810D01*
X141202381Y-141583333D01*
X141154762Y-141488095D01*
X141107143Y-141440476D01*
X141011905Y-141392857D01*
X140821429Y-141392857D01*
X140726190Y-141440476D01*
X140678571Y-141488095D01*
X140630952Y-141583333D01*
X141202381Y-140440476D02*
X141202381Y-141011905D01*
X141202381Y-140726191D02*
X140202381Y-140726191D01*
X140345238Y-140821429D01*
X140440476Y-140916667D01*
X140488095Y-141011905D01*
X140297619Y-140059524D02*
X140250000Y-140011905D01*
X140202381Y-139916667D01*
X140202381Y-139678571D01*
X140250000Y-139583333D01*
X140297619Y-139535714D01*
X140392857Y-139488095D01*
X140488095Y-139488095D01*
X140630952Y-139535714D01*
X141202381Y-140107143D01*
X141202381Y-139488095D01*
X140678571Y-138726190D02*
X140726190Y-138583333D01*
X140773810Y-138535714D01*
X140869048Y-138488095D01*
X141011905Y-138488095D01*
X141107143Y-138535714D01*
X141154762Y-138583333D01*
X141202381Y-138678571D01*
X141202381Y-139059524D01*
X140202381Y-139059524D01*
X140202381Y-138726190D01*
X140250000Y-138630952D01*
X140297619Y-138583333D01*
X140392857Y-138535714D01*
X140488095Y-138535714D01*
X140583333Y-138583333D01*
X140630952Y-138630952D01*
X140678571Y-138726190D01*
X140678571Y-139059524D01*
X156702381Y-62559524D02*
X157702381Y-62321429D01*
X156988095Y-62130952D01*
X157702381Y-61940476D01*
X156702381Y-61702381D01*
X157654762Y-61369048D02*
X157702381Y-61226191D01*
X157702381Y-60988095D01*
X157654762Y-60892857D01*
X157607143Y-60845238D01*
X157511905Y-60797619D01*
X157416667Y-60797619D01*
X157321429Y-60845238D01*
X157273810Y-60892857D01*
X157226190Y-60988095D01*
X157178571Y-61178572D01*
X157130952Y-61273810D01*
X157083333Y-61321429D01*
X156988095Y-61369048D01*
X156892857Y-61369048D01*
X156797619Y-61321429D01*
X156750000Y-61273810D01*
X156702381Y-61178572D01*
X156702381Y-60940476D01*
X156750000Y-60797619D01*
X156797619Y-60416667D02*
X156750000Y-60369048D01*
X156702381Y-60273810D01*
X156702381Y-60035714D01*
X156750000Y-59940476D01*
X156797619Y-59892857D01*
X156892857Y-59845238D01*
X156988095Y-59845238D01*
X157130952Y-59892857D01*
X157702381Y-60464286D01*
X157702381Y-59845238D01*
X157130952Y-59273810D02*
X157083333Y-59369048D01*
X157035714Y-59416667D01*
X156940476Y-59464286D01*
X156892857Y-59464286D01*
X156797619Y-59416667D01*
X156750000Y-59369048D01*
X156702381Y-59273810D01*
X156702381Y-59083333D01*
X156750000Y-58988095D01*
X156797619Y-58940476D01*
X156892857Y-58892857D01*
X156940476Y-58892857D01*
X157035714Y-58940476D01*
X157083333Y-58988095D01*
X157130952Y-59083333D01*
X157130952Y-59273810D01*
X157178571Y-59369048D01*
X157226190Y-59416667D01*
X157321429Y-59464286D01*
X157511905Y-59464286D01*
X157607143Y-59416667D01*
X157654762Y-59369048D01*
X157702381Y-59273810D01*
X157702381Y-59083333D01*
X157654762Y-58988095D01*
X157607143Y-58940476D01*
X157511905Y-58892857D01*
X157321429Y-58892857D01*
X157226190Y-58940476D01*
X157178571Y-58988095D01*
X157130952Y-59083333D01*
X157702381Y-57940476D02*
X157702381Y-58511905D01*
X157702381Y-58226191D02*
X156702381Y-58226191D01*
X156845238Y-58321429D01*
X156940476Y-58416667D01*
X156988095Y-58511905D01*
X156797619Y-57559524D02*
X156750000Y-57511905D01*
X156702381Y-57416667D01*
X156702381Y-57178571D01*
X156750000Y-57083333D01*
X156797619Y-57035714D01*
X156892857Y-56988095D01*
X156988095Y-56988095D01*
X157130952Y-57035714D01*
X157702381Y-57607143D01*
X157702381Y-56988095D01*
X157178571Y-56226190D02*
X157226190Y-56083333D01*
X157273810Y-56035714D01*
X157369048Y-55988095D01*
X157511905Y-55988095D01*
X157607143Y-56035714D01*
X157654762Y-56083333D01*
X157702381Y-56178571D01*
X157702381Y-56559524D01*
X156702381Y-56559524D01*
X156702381Y-56226190D01*
X156750000Y-56130952D01*
X156797619Y-56083333D01*
X156892857Y-56035714D01*
X156988095Y-56035714D01*
X157083333Y-56083333D01*
X157130952Y-56130952D01*
X157178571Y-56226190D01*
X157178571Y-56559524D01*
X156702381Y-79059524D02*
X157702381Y-78821429D01*
X156988095Y-78630952D01*
X157702381Y-78440476D01*
X156702381Y-78202381D01*
X157654762Y-77869048D02*
X157702381Y-77726191D01*
X157702381Y-77488095D01*
X157654762Y-77392857D01*
X157607143Y-77345238D01*
X157511905Y-77297619D01*
X157416667Y-77297619D01*
X157321429Y-77345238D01*
X157273810Y-77392857D01*
X157226190Y-77488095D01*
X157178571Y-77678572D01*
X157130952Y-77773810D01*
X157083333Y-77821429D01*
X156988095Y-77869048D01*
X156892857Y-77869048D01*
X156797619Y-77821429D01*
X156750000Y-77773810D01*
X156702381Y-77678572D01*
X156702381Y-77440476D01*
X156750000Y-77297619D01*
X156797619Y-76916667D02*
X156750000Y-76869048D01*
X156702381Y-76773810D01*
X156702381Y-76535714D01*
X156750000Y-76440476D01*
X156797619Y-76392857D01*
X156892857Y-76345238D01*
X156988095Y-76345238D01*
X157130952Y-76392857D01*
X157702381Y-76964286D01*
X157702381Y-76345238D01*
X157130952Y-75773810D02*
X157083333Y-75869048D01*
X157035714Y-75916667D01*
X156940476Y-75964286D01*
X156892857Y-75964286D01*
X156797619Y-75916667D01*
X156750000Y-75869048D01*
X156702381Y-75773810D01*
X156702381Y-75583333D01*
X156750000Y-75488095D01*
X156797619Y-75440476D01*
X156892857Y-75392857D01*
X156940476Y-75392857D01*
X157035714Y-75440476D01*
X157083333Y-75488095D01*
X157130952Y-75583333D01*
X157130952Y-75773810D01*
X157178571Y-75869048D01*
X157226190Y-75916667D01*
X157321429Y-75964286D01*
X157511905Y-75964286D01*
X157607143Y-75916667D01*
X157654762Y-75869048D01*
X157702381Y-75773810D01*
X157702381Y-75583333D01*
X157654762Y-75488095D01*
X157607143Y-75440476D01*
X157511905Y-75392857D01*
X157321429Y-75392857D01*
X157226190Y-75440476D01*
X157178571Y-75488095D01*
X157130952Y-75583333D01*
X157702381Y-74440476D02*
X157702381Y-75011905D01*
X157702381Y-74726191D02*
X156702381Y-74726191D01*
X156845238Y-74821429D01*
X156940476Y-74916667D01*
X156988095Y-75011905D01*
X156797619Y-74059524D02*
X156750000Y-74011905D01*
X156702381Y-73916667D01*
X156702381Y-73678571D01*
X156750000Y-73583333D01*
X156797619Y-73535714D01*
X156892857Y-73488095D01*
X156988095Y-73488095D01*
X157130952Y-73535714D01*
X157702381Y-74107143D01*
X157702381Y-73488095D01*
X157178571Y-72726190D02*
X157226190Y-72583333D01*
X157273810Y-72535714D01*
X157369048Y-72488095D01*
X157511905Y-72488095D01*
X157607143Y-72535714D01*
X157654762Y-72583333D01*
X157702381Y-72678571D01*
X157702381Y-73059524D01*
X156702381Y-73059524D01*
X156702381Y-72726190D01*
X156750000Y-72630952D01*
X156797619Y-72583333D01*
X156892857Y-72535714D01*
X156988095Y-72535714D01*
X157083333Y-72583333D01*
X157130952Y-72630952D01*
X157178571Y-72726190D01*
X157178571Y-73059524D01*
X156702381Y-95559524D02*
X157702381Y-95321429D01*
X156988095Y-95130952D01*
X157702381Y-94940476D01*
X156702381Y-94702381D01*
X157654762Y-94369048D02*
X157702381Y-94226191D01*
X157702381Y-93988095D01*
X157654762Y-93892857D01*
X157607143Y-93845238D01*
X157511905Y-93797619D01*
X157416667Y-93797619D01*
X157321429Y-93845238D01*
X157273810Y-93892857D01*
X157226190Y-93988095D01*
X157178571Y-94178572D01*
X157130952Y-94273810D01*
X157083333Y-94321429D01*
X156988095Y-94369048D01*
X156892857Y-94369048D01*
X156797619Y-94321429D01*
X156750000Y-94273810D01*
X156702381Y-94178572D01*
X156702381Y-93940476D01*
X156750000Y-93797619D01*
X156797619Y-93416667D02*
X156750000Y-93369048D01*
X156702381Y-93273810D01*
X156702381Y-93035714D01*
X156750000Y-92940476D01*
X156797619Y-92892857D01*
X156892857Y-92845238D01*
X156988095Y-92845238D01*
X157130952Y-92892857D01*
X157702381Y-93464286D01*
X157702381Y-92845238D01*
X157130952Y-92273810D02*
X157083333Y-92369048D01*
X157035714Y-92416667D01*
X156940476Y-92464286D01*
X156892857Y-92464286D01*
X156797619Y-92416667D01*
X156750000Y-92369048D01*
X156702381Y-92273810D01*
X156702381Y-92083333D01*
X156750000Y-91988095D01*
X156797619Y-91940476D01*
X156892857Y-91892857D01*
X156940476Y-91892857D01*
X157035714Y-91940476D01*
X157083333Y-91988095D01*
X157130952Y-92083333D01*
X157130952Y-92273810D01*
X157178571Y-92369048D01*
X157226190Y-92416667D01*
X157321429Y-92464286D01*
X157511905Y-92464286D01*
X157607143Y-92416667D01*
X157654762Y-92369048D01*
X157702381Y-92273810D01*
X157702381Y-92083333D01*
X157654762Y-91988095D01*
X157607143Y-91940476D01*
X157511905Y-91892857D01*
X157321429Y-91892857D01*
X157226190Y-91940476D01*
X157178571Y-91988095D01*
X157130952Y-92083333D01*
X157702381Y-90940476D02*
X157702381Y-91511905D01*
X157702381Y-91226191D02*
X156702381Y-91226191D01*
X156845238Y-91321429D01*
X156940476Y-91416667D01*
X156988095Y-91511905D01*
X156797619Y-90559524D02*
X156750000Y-90511905D01*
X156702381Y-90416667D01*
X156702381Y-90178571D01*
X156750000Y-90083333D01*
X156797619Y-90035714D01*
X156892857Y-89988095D01*
X156988095Y-89988095D01*
X157130952Y-90035714D01*
X157702381Y-90607143D01*
X157702381Y-89988095D01*
X157178571Y-89226190D02*
X157226190Y-89083333D01*
X157273810Y-89035714D01*
X157369048Y-88988095D01*
X157511905Y-88988095D01*
X157607143Y-89035714D01*
X157654762Y-89083333D01*
X157702381Y-89178571D01*
X157702381Y-89559524D01*
X156702381Y-89559524D01*
X156702381Y-89226190D01*
X156750000Y-89130952D01*
X156797619Y-89083333D01*
X156892857Y-89035714D01*
X156988095Y-89035714D01*
X157083333Y-89083333D01*
X157130952Y-89130952D01*
X157178571Y-89226190D01*
X157178571Y-89559524D01*
X156702381Y-112059524D02*
X157702381Y-111821429D01*
X156988095Y-111630952D01*
X157702381Y-111440476D01*
X156702381Y-111202381D01*
X157654762Y-110869048D02*
X157702381Y-110726191D01*
X157702381Y-110488095D01*
X157654762Y-110392857D01*
X157607143Y-110345238D01*
X157511905Y-110297619D01*
X157416667Y-110297619D01*
X157321429Y-110345238D01*
X157273810Y-110392857D01*
X157226190Y-110488095D01*
X157178571Y-110678572D01*
X157130952Y-110773810D01*
X157083333Y-110821429D01*
X156988095Y-110869048D01*
X156892857Y-110869048D01*
X156797619Y-110821429D01*
X156750000Y-110773810D01*
X156702381Y-110678572D01*
X156702381Y-110440476D01*
X156750000Y-110297619D01*
X156797619Y-109916667D02*
X156750000Y-109869048D01*
X156702381Y-109773810D01*
X156702381Y-109535714D01*
X156750000Y-109440476D01*
X156797619Y-109392857D01*
X156892857Y-109345238D01*
X156988095Y-109345238D01*
X157130952Y-109392857D01*
X157702381Y-109964286D01*
X157702381Y-109345238D01*
X157130952Y-108773810D02*
X157083333Y-108869048D01*
X157035714Y-108916667D01*
X156940476Y-108964286D01*
X156892857Y-108964286D01*
X156797619Y-108916667D01*
X156750000Y-108869048D01*
X156702381Y-108773810D01*
X156702381Y-108583333D01*
X156750000Y-108488095D01*
X156797619Y-108440476D01*
X156892857Y-108392857D01*
X156940476Y-108392857D01*
X157035714Y-108440476D01*
X157083333Y-108488095D01*
X157130952Y-108583333D01*
X157130952Y-108773810D01*
X157178571Y-108869048D01*
X157226190Y-108916667D01*
X157321429Y-108964286D01*
X157511905Y-108964286D01*
X157607143Y-108916667D01*
X157654762Y-108869048D01*
X157702381Y-108773810D01*
X157702381Y-108583333D01*
X157654762Y-108488095D01*
X157607143Y-108440476D01*
X157511905Y-108392857D01*
X157321429Y-108392857D01*
X157226190Y-108440476D01*
X157178571Y-108488095D01*
X157130952Y-108583333D01*
X157702381Y-107440476D02*
X157702381Y-108011905D01*
X157702381Y-107726191D02*
X156702381Y-107726191D01*
X156845238Y-107821429D01*
X156940476Y-107916667D01*
X156988095Y-108011905D01*
X156797619Y-107059524D02*
X156750000Y-107011905D01*
X156702381Y-106916667D01*
X156702381Y-106678571D01*
X156750000Y-106583333D01*
X156797619Y-106535714D01*
X156892857Y-106488095D01*
X156988095Y-106488095D01*
X157130952Y-106535714D01*
X157702381Y-107107143D01*
X157702381Y-106488095D01*
X157178571Y-105726190D02*
X157226190Y-105583333D01*
X157273810Y-105535714D01*
X157369048Y-105488095D01*
X157511905Y-105488095D01*
X157607143Y-105535714D01*
X157654762Y-105583333D01*
X157702381Y-105678571D01*
X157702381Y-106059524D01*
X156702381Y-106059524D01*
X156702381Y-105726190D01*
X156750000Y-105630952D01*
X156797619Y-105583333D01*
X156892857Y-105535714D01*
X156988095Y-105535714D01*
X157083333Y-105583333D01*
X157130952Y-105630952D01*
X157178571Y-105726190D01*
X157178571Y-106059524D01*
X156702381Y-128559524D02*
X157702381Y-128321429D01*
X156988095Y-128130952D01*
X157702381Y-127940476D01*
X156702381Y-127702381D01*
X157654762Y-127369048D02*
X157702381Y-127226191D01*
X157702381Y-126988095D01*
X157654762Y-126892857D01*
X157607143Y-126845238D01*
X157511905Y-126797619D01*
X157416667Y-126797619D01*
X157321429Y-126845238D01*
X157273810Y-126892857D01*
X157226190Y-126988095D01*
X157178571Y-127178572D01*
X157130952Y-127273810D01*
X157083333Y-127321429D01*
X156988095Y-127369048D01*
X156892857Y-127369048D01*
X156797619Y-127321429D01*
X156750000Y-127273810D01*
X156702381Y-127178572D01*
X156702381Y-126940476D01*
X156750000Y-126797619D01*
X156797619Y-126416667D02*
X156750000Y-126369048D01*
X156702381Y-126273810D01*
X156702381Y-126035714D01*
X156750000Y-125940476D01*
X156797619Y-125892857D01*
X156892857Y-125845238D01*
X156988095Y-125845238D01*
X157130952Y-125892857D01*
X157702381Y-126464286D01*
X157702381Y-125845238D01*
X157130952Y-125273810D02*
X157083333Y-125369048D01*
X157035714Y-125416667D01*
X156940476Y-125464286D01*
X156892857Y-125464286D01*
X156797619Y-125416667D01*
X156750000Y-125369048D01*
X156702381Y-125273810D01*
X156702381Y-125083333D01*
X156750000Y-124988095D01*
X156797619Y-124940476D01*
X156892857Y-124892857D01*
X156940476Y-124892857D01*
X157035714Y-124940476D01*
X157083333Y-124988095D01*
X157130952Y-125083333D01*
X157130952Y-125273810D01*
X157178571Y-125369048D01*
X157226190Y-125416667D01*
X157321429Y-125464286D01*
X157511905Y-125464286D01*
X157607143Y-125416667D01*
X157654762Y-125369048D01*
X157702381Y-125273810D01*
X157702381Y-125083333D01*
X157654762Y-124988095D01*
X157607143Y-124940476D01*
X157511905Y-124892857D01*
X157321429Y-124892857D01*
X157226190Y-124940476D01*
X157178571Y-124988095D01*
X157130952Y-125083333D01*
X157702381Y-123940476D02*
X157702381Y-124511905D01*
X157702381Y-124226191D02*
X156702381Y-124226191D01*
X156845238Y-124321429D01*
X156940476Y-124416667D01*
X156988095Y-124511905D01*
X156797619Y-123559524D02*
X156750000Y-123511905D01*
X156702381Y-123416667D01*
X156702381Y-123178571D01*
X156750000Y-123083333D01*
X156797619Y-123035714D01*
X156892857Y-122988095D01*
X156988095Y-122988095D01*
X157130952Y-123035714D01*
X157702381Y-123607143D01*
X157702381Y-122988095D01*
X157178571Y-122226190D02*
X157226190Y-122083333D01*
X157273810Y-122035714D01*
X157369048Y-121988095D01*
X157511905Y-121988095D01*
X157607143Y-122035714D01*
X157654762Y-122083333D01*
X157702381Y-122178571D01*
X157702381Y-122559524D01*
X156702381Y-122559524D01*
X156702381Y-122226190D01*
X156750000Y-122130952D01*
X156797619Y-122083333D01*
X156892857Y-122035714D01*
X156988095Y-122035714D01*
X157083333Y-122083333D01*
X157130952Y-122130952D01*
X157178571Y-122226190D01*
X157178571Y-122559524D01*
X156702381Y-145059524D02*
X157702381Y-144821429D01*
X156988095Y-144630952D01*
X157702381Y-144440476D01*
X156702381Y-144202381D01*
X157654762Y-143869048D02*
X157702381Y-143726191D01*
X157702381Y-143488095D01*
X157654762Y-143392857D01*
X157607143Y-143345238D01*
X157511905Y-143297619D01*
X157416667Y-143297619D01*
X157321429Y-143345238D01*
X157273810Y-143392857D01*
X157226190Y-143488095D01*
X157178571Y-143678572D01*
X157130952Y-143773810D01*
X157083333Y-143821429D01*
X156988095Y-143869048D01*
X156892857Y-143869048D01*
X156797619Y-143821429D01*
X156750000Y-143773810D01*
X156702381Y-143678572D01*
X156702381Y-143440476D01*
X156750000Y-143297619D01*
X156797619Y-142916667D02*
X156750000Y-142869048D01*
X156702381Y-142773810D01*
X156702381Y-142535714D01*
X156750000Y-142440476D01*
X156797619Y-142392857D01*
X156892857Y-142345238D01*
X156988095Y-142345238D01*
X157130952Y-142392857D01*
X157702381Y-142964286D01*
X157702381Y-142345238D01*
X157130952Y-141773810D02*
X157083333Y-141869048D01*
X157035714Y-141916667D01*
X156940476Y-141964286D01*
X156892857Y-141964286D01*
X156797619Y-141916667D01*
X156750000Y-141869048D01*
X156702381Y-141773810D01*
X156702381Y-141583333D01*
X156750000Y-141488095D01*
X156797619Y-141440476D01*
X156892857Y-141392857D01*
X156940476Y-141392857D01*
X157035714Y-141440476D01*
X157083333Y-141488095D01*
X157130952Y-141583333D01*
X157130952Y-141773810D01*
X157178571Y-141869048D01*
X157226190Y-141916667D01*
X157321429Y-141964286D01*
X157511905Y-141964286D01*
X157607143Y-141916667D01*
X157654762Y-141869048D01*
X157702381Y-141773810D01*
X157702381Y-141583333D01*
X157654762Y-141488095D01*
X157607143Y-141440476D01*
X157511905Y-141392857D01*
X157321429Y-141392857D01*
X157226190Y-141440476D01*
X157178571Y-141488095D01*
X157130952Y-141583333D01*
X157702381Y-140440476D02*
X157702381Y-141011905D01*
X157702381Y-140726191D02*
X156702381Y-140726191D01*
X156845238Y-140821429D01*
X156940476Y-140916667D01*
X156988095Y-141011905D01*
X156797619Y-140059524D02*
X156750000Y-140011905D01*
X156702381Y-139916667D01*
X156702381Y-139678571D01*
X156750000Y-139583333D01*
X156797619Y-139535714D01*
X156892857Y-139488095D01*
X156988095Y-139488095D01*
X157130952Y-139535714D01*
X157702381Y-140107143D01*
X157702381Y-139488095D01*
X157178571Y-138726190D02*
X157226190Y-138583333D01*
X157273810Y-138535714D01*
X157369048Y-138488095D01*
X157511905Y-138488095D01*
X157607143Y-138535714D01*
X157654762Y-138583333D01*
X157702381Y-138678571D01*
X157702381Y-139059524D01*
X156702381Y-139059524D01*
X156702381Y-138726190D01*
X156750000Y-138630952D01*
X156797619Y-138583333D01*
X156892857Y-138535714D01*
X156988095Y-138535714D01*
X157083333Y-138583333D01*
X157130952Y-138630952D01*
X157178571Y-138726190D01*
X157178571Y-139059524D01*
X173202381Y-62559524D02*
X174202381Y-62321429D01*
X173488095Y-62130952D01*
X174202381Y-61940476D01*
X173202381Y-61702381D01*
X174154762Y-61369048D02*
X174202381Y-61226191D01*
X174202381Y-60988095D01*
X174154762Y-60892857D01*
X174107143Y-60845238D01*
X174011905Y-60797619D01*
X173916667Y-60797619D01*
X173821429Y-60845238D01*
X173773810Y-60892857D01*
X173726190Y-60988095D01*
X173678571Y-61178572D01*
X173630952Y-61273810D01*
X173583333Y-61321429D01*
X173488095Y-61369048D01*
X173392857Y-61369048D01*
X173297619Y-61321429D01*
X173250000Y-61273810D01*
X173202381Y-61178572D01*
X173202381Y-60940476D01*
X173250000Y-60797619D01*
X173297619Y-60416667D02*
X173250000Y-60369048D01*
X173202381Y-60273810D01*
X173202381Y-60035714D01*
X173250000Y-59940476D01*
X173297619Y-59892857D01*
X173392857Y-59845238D01*
X173488095Y-59845238D01*
X173630952Y-59892857D01*
X174202381Y-60464286D01*
X174202381Y-59845238D01*
X173630952Y-59273810D02*
X173583333Y-59369048D01*
X173535714Y-59416667D01*
X173440476Y-59464286D01*
X173392857Y-59464286D01*
X173297619Y-59416667D01*
X173250000Y-59369048D01*
X173202381Y-59273810D01*
X173202381Y-59083333D01*
X173250000Y-58988095D01*
X173297619Y-58940476D01*
X173392857Y-58892857D01*
X173440476Y-58892857D01*
X173535714Y-58940476D01*
X173583333Y-58988095D01*
X173630952Y-59083333D01*
X173630952Y-59273810D01*
X173678571Y-59369048D01*
X173726190Y-59416667D01*
X173821429Y-59464286D01*
X174011905Y-59464286D01*
X174107143Y-59416667D01*
X174154762Y-59369048D01*
X174202381Y-59273810D01*
X174202381Y-59083333D01*
X174154762Y-58988095D01*
X174107143Y-58940476D01*
X174011905Y-58892857D01*
X173821429Y-58892857D01*
X173726190Y-58940476D01*
X173678571Y-58988095D01*
X173630952Y-59083333D01*
X174202381Y-57940476D02*
X174202381Y-58511905D01*
X174202381Y-58226191D02*
X173202381Y-58226191D01*
X173345238Y-58321429D01*
X173440476Y-58416667D01*
X173488095Y-58511905D01*
X173297619Y-57559524D02*
X173250000Y-57511905D01*
X173202381Y-57416667D01*
X173202381Y-57178571D01*
X173250000Y-57083333D01*
X173297619Y-57035714D01*
X173392857Y-56988095D01*
X173488095Y-56988095D01*
X173630952Y-57035714D01*
X174202381Y-57607143D01*
X174202381Y-56988095D01*
X173678571Y-56226190D02*
X173726190Y-56083333D01*
X173773810Y-56035714D01*
X173869048Y-55988095D01*
X174011905Y-55988095D01*
X174107143Y-56035714D01*
X174154762Y-56083333D01*
X174202381Y-56178571D01*
X174202381Y-56559524D01*
X173202381Y-56559524D01*
X173202381Y-56226190D01*
X173250000Y-56130952D01*
X173297619Y-56083333D01*
X173392857Y-56035714D01*
X173488095Y-56035714D01*
X173583333Y-56083333D01*
X173630952Y-56130952D01*
X173678571Y-56226190D01*
X173678571Y-56559524D01*
X173202381Y-79059524D02*
X174202381Y-78821429D01*
X173488095Y-78630952D01*
X174202381Y-78440476D01*
X173202381Y-78202381D01*
X174154762Y-77869048D02*
X174202381Y-77726191D01*
X174202381Y-77488095D01*
X174154762Y-77392857D01*
X174107143Y-77345238D01*
X174011905Y-77297619D01*
X173916667Y-77297619D01*
X173821429Y-77345238D01*
X173773810Y-77392857D01*
X173726190Y-77488095D01*
X173678571Y-77678572D01*
X173630952Y-77773810D01*
X173583333Y-77821429D01*
X173488095Y-77869048D01*
X173392857Y-77869048D01*
X173297619Y-77821429D01*
X173250000Y-77773810D01*
X173202381Y-77678572D01*
X173202381Y-77440476D01*
X173250000Y-77297619D01*
X173297619Y-76916667D02*
X173250000Y-76869048D01*
X173202381Y-76773810D01*
X173202381Y-76535714D01*
X173250000Y-76440476D01*
X173297619Y-76392857D01*
X173392857Y-76345238D01*
X173488095Y-76345238D01*
X173630952Y-76392857D01*
X174202381Y-76964286D01*
X174202381Y-76345238D01*
X173630952Y-75773810D02*
X173583333Y-75869048D01*
X173535714Y-75916667D01*
X173440476Y-75964286D01*
X173392857Y-75964286D01*
X173297619Y-75916667D01*
X173250000Y-75869048D01*
X173202381Y-75773810D01*
X173202381Y-75583333D01*
X173250000Y-75488095D01*
X173297619Y-75440476D01*
X173392857Y-75392857D01*
X173440476Y-75392857D01*
X173535714Y-75440476D01*
X173583333Y-75488095D01*
X173630952Y-75583333D01*
X173630952Y-75773810D01*
X173678571Y-75869048D01*
X173726190Y-75916667D01*
X173821429Y-75964286D01*
X174011905Y-75964286D01*
X174107143Y-75916667D01*
X174154762Y-75869048D01*
X174202381Y-75773810D01*
X174202381Y-75583333D01*
X174154762Y-75488095D01*
X174107143Y-75440476D01*
X174011905Y-75392857D01*
X173821429Y-75392857D01*
X173726190Y-75440476D01*
X173678571Y-75488095D01*
X173630952Y-75583333D01*
X174202381Y-74440476D02*
X174202381Y-75011905D01*
X174202381Y-74726191D02*
X173202381Y-74726191D01*
X173345238Y-74821429D01*
X173440476Y-74916667D01*
X173488095Y-75011905D01*
X173297619Y-74059524D02*
X173250000Y-74011905D01*
X173202381Y-73916667D01*
X173202381Y-73678571D01*
X173250000Y-73583333D01*
X173297619Y-73535714D01*
X173392857Y-73488095D01*
X173488095Y-73488095D01*
X173630952Y-73535714D01*
X174202381Y-74107143D01*
X174202381Y-73488095D01*
X173678571Y-72726190D02*
X173726190Y-72583333D01*
X173773810Y-72535714D01*
X173869048Y-72488095D01*
X174011905Y-72488095D01*
X174107143Y-72535714D01*
X174154762Y-72583333D01*
X174202381Y-72678571D01*
X174202381Y-73059524D01*
X173202381Y-73059524D01*
X173202381Y-72726190D01*
X173250000Y-72630952D01*
X173297619Y-72583333D01*
X173392857Y-72535714D01*
X173488095Y-72535714D01*
X173583333Y-72583333D01*
X173630952Y-72630952D01*
X173678571Y-72726190D01*
X173678571Y-73059524D01*
X173202381Y-95559524D02*
X174202381Y-95321429D01*
X173488095Y-95130952D01*
X174202381Y-94940476D01*
X173202381Y-94702381D01*
X174154762Y-94369048D02*
X174202381Y-94226191D01*
X174202381Y-93988095D01*
X174154762Y-93892857D01*
X174107143Y-93845238D01*
X174011905Y-93797619D01*
X173916667Y-93797619D01*
X173821429Y-93845238D01*
X173773810Y-93892857D01*
X173726190Y-93988095D01*
X173678571Y-94178572D01*
X173630952Y-94273810D01*
X173583333Y-94321429D01*
X173488095Y-94369048D01*
X173392857Y-94369048D01*
X173297619Y-94321429D01*
X173250000Y-94273810D01*
X173202381Y-94178572D01*
X173202381Y-93940476D01*
X173250000Y-93797619D01*
X173297619Y-93416667D02*
X173250000Y-93369048D01*
X173202381Y-93273810D01*
X173202381Y-93035714D01*
X173250000Y-92940476D01*
X173297619Y-92892857D01*
X173392857Y-92845238D01*
X173488095Y-92845238D01*
X173630952Y-92892857D01*
X174202381Y-93464286D01*
X174202381Y-92845238D01*
X173630952Y-92273810D02*
X173583333Y-92369048D01*
X173535714Y-92416667D01*
X173440476Y-92464286D01*
X173392857Y-92464286D01*
X173297619Y-92416667D01*
X173250000Y-92369048D01*
X173202381Y-92273810D01*
X173202381Y-92083333D01*
X173250000Y-91988095D01*
X173297619Y-91940476D01*
X173392857Y-91892857D01*
X173440476Y-91892857D01*
X173535714Y-91940476D01*
X173583333Y-91988095D01*
X173630952Y-92083333D01*
X173630952Y-92273810D01*
X173678571Y-92369048D01*
X173726190Y-92416667D01*
X173821429Y-92464286D01*
X174011905Y-92464286D01*
X174107143Y-92416667D01*
X174154762Y-92369048D01*
X174202381Y-92273810D01*
X174202381Y-92083333D01*
X174154762Y-91988095D01*
X174107143Y-91940476D01*
X174011905Y-91892857D01*
X173821429Y-91892857D01*
X173726190Y-91940476D01*
X173678571Y-91988095D01*
X173630952Y-92083333D01*
X174202381Y-90940476D02*
X174202381Y-91511905D01*
X174202381Y-91226191D02*
X173202381Y-91226191D01*
X173345238Y-91321429D01*
X173440476Y-91416667D01*
X173488095Y-91511905D01*
X173297619Y-90559524D02*
X173250000Y-90511905D01*
X173202381Y-90416667D01*
X173202381Y-90178571D01*
X173250000Y-90083333D01*
X173297619Y-90035714D01*
X173392857Y-89988095D01*
X173488095Y-89988095D01*
X173630952Y-90035714D01*
X174202381Y-90607143D01*
X174202381Y-89988095D01*
X173678571Y-89226190D02*
X173726190Y-89083333D01*
X173773810Y-89035714D01*
X173869048Y-88988095D01*
X174011905Y-88988095D01*
X174107143Y-89035714D01*
X174154762Y-89083333D01*
X174202381Y-89178571D01*
X174202381Y-89559524D01*
X173202381Y-89559524D01*
X173202381Y-89226190D01*
X173250000Y-89130952D01*
X173297619Y-89083333D01*
X173392857Y-89035714D01*
X173488095Y-89035714D01*
X173583333Y-89083333D01*
X173630952Y-89130952D01*
X173678571Y-89226190D01*
X173678571Y-89559524D01*
X173202381Y-112059524D02*
X174202381Y-111821429D01*
X173488095Y-111630952D01*
X174202381Y-111440476D01*
X173202381Y-111202381D01*
X174154762Y-110869048D02*
X174202381Y-110726191D01*
X174202381Y-110488095D01*
X174154762Y-110392857D01*
X174107143Y-110345238D01*
X174011905Y-110297619D01*
X173916667Y-110297619D01*
X173821429Y-110345238D01*
X173773810Y-110392857D01*
X173726190Y-110488095D01*
X173678571Y-110678572D01*
X173630952Y-110773810D01*
X173583333Y-110821429D01*
X173488095Y-110869048D01*
X173392857Y-110869048D01*
X173297619Y-110821429D01*
X173250000Y-110773810D01*
X173202381Y-110678572D01*
X173202381Y-110440476D01*
X173250000Y-110297619D01*
X173297619Y-109916667D02*
X173250000Y-109869048D01*
X173202381Y-109773810D01*
X173202381Y-109535714D01*
X173250000Y-109440476D01*
X173297619Y-109392857D01*
X173392857Y-109345238D01*
X173488095Y-109345238D01*
X173630952Y-109392857D01*
X174202381Y-109964286D01*
X174202381Y-109345238D01*
X173630952Y-108773810D02*
X173583333Y-108869048D01*
X173535714Y-108916667D01*
X173440476Y-108964286D01*
X173392857Y-108964286D01*
X173297619Y-108916667D01*
X173250000Y-108869048D01*
X173202381Y-108773810D01*
X173202381Y-108583333D01*
X173250000Y-108488095D01*
X173297619Y-108440476D01*
X173392857Y-108392857D01*
X173440476Y-108392857D01*
X173535714Y-108440476D01*
X173583333Y-108488095D01*
X173630952Y-108583333D01*
X173630952Y-108773810D01*
X173678571Y-108869048D01*
X173726190Y-108916667D01*
X173821429Y-108964286D01*
X174011905Y-108964286D01*
X174107143Y-108916667D01*
X174154762Y-108869048D01*
X174202381Y-108773810D01*
X174202381Y-108583333D01*
X174154762Y-108488095D01*
X174107143Y-108440476D01*
X174011905Y-108392857D01*
X173821429Y-108392857D01*
X173726190Y-108440476D01*
X173678571Y-108488095D01*
X173630952Y-108583333D01*
X174202381Y-107440476D02*
X174202381Y-108011905D01*
X174202381Y-107726191D02*
X173202381Y-107726191D01*
X173345238Y-107821429D01*
X173440476Y-107916667D01*
X173488095Y-108011905D01*
X173297619Y-107059524D02*
X173250000Y-107011905D01*
X173202381Y-106916667D01*
X173202381Y-106678571D01*
X173250000Y-106583333D01*
X173297619Y-106535714D01*
X173392857Y-106488095D01*
X173488095Y-106488095D01*
X173630952Y-106535714D01*
X174202381Y-107107143D01*
X174202381Y-106488095D01*
X173678571Y-105726190D02*
X173726190Y-105583333D01*
X173773810Y-105535714D01*
X173869048Y-105488095D01*
X174011905Y-105488095D01*
X174107143Y-105535714D01*
X174154762Y-105583333D01*
X174202381Y-105678571D01*
X174202381Y-106059524D01*
X173202381Y-106059524D01*
X173202381Y-105726190D01*
X173250000Y-105630952D01*
X173297619Y-105583333D01*
X173392857Y-105535714D01*
X173488095Y-105535714D01*
X173583333Y-105583333D01*
X173630952Y-105630952D01*
X173678571Y-105726190D01*
X173678571Y-106059524D01*
X173202381Y-128559524D02*
X174202381Y-128321429D01*
X173488095Y-128130952D01*
X174202381Y-127940476D01*
X173202381Y-127702381D01*
X174154762Y-127369048D02*
X174202381Y-127226191D01*
X174202381Y-126988095D01*
X174154762Y-126892857D01*
X174107143Y-126845238D01*
X174011905Y-126797619D01*
X173916667Y-126797619D01*
X173821429Y-126845238D01*
X173773810Y-126892857D01*
X173726190Y-126988095D01*
X173678571Y-127178572D01*
X173630952Y-127273810D01*
X173583333Y-127321429D01*
X173488095Y-127369048D01*
X173392857Y-127369048D01*
X173297619Y-127321429D01*
X173250000Y-127273810D01*
X173202381Y-127178572D01*
X173202381Y-126940476D01*
X173250000Y-126797619D01*
X173297619Y-126416667D02*
X173250000Y-126369048D01*
X173202381Y-126273810D01*
X173202381Y-126035714D01*
X173250000Y-125940476D01*
X173297619Y-125892857D01*
X173392857Y-125845238D01*
X173488095Y-125845238D01*
X173630952Y-125892857D01*
X174202381Y-126464286D01*
X174202381Y-125845238D01*
X173630952Y-125273810D02*
X173583333Y-125369048D01*
X173535714Y-125416667D01*
X173440476Y-125464286D01*
X173392857Y-125464286D01*
X173297619Y-125416667D01*
X173250000Y-125369048D01*
X173202381Y-125273810D01*
X173202381Y-125083333D01*
X173250000Y-124988095D01*
X173297619Y-124940476D01*
X173392857Y-124892857D01*
X173440476Y-124892857D01*
X173535714Y-124940476D01*
X173583333Y-124988095D01*
X173630952Y-125083333D01*
X173630952Y-125273810D01*
X173678571Y-125369048D01*
X173726190Y-125416667D01*
X173821429Y-125464286D01*
X174011905Y-125464286D01*
X174107143Y-125416667D01*
X174154762Y-125369048D01*
X174202381Y-125273810D01*
X174202381Y-125083333D01*
X174154762Y-124988095D01*
X174107143Y-124940476D01*
X174011905Y-124892857D01*
X173821429Y-124892857D01*
X173726190Y-124940476D01*
X173678571Y-124988095D01*
X173630952Y-125083333D01*
X174202381Y-123940476D02*
X174202381Y-124511905D01*
X174202381Y-124226191D02*
X173202381Y-124226191D01*
X173345238Y-124321429D01*
X173440476Y-124416667D01*
X173488095Y-124511905D01*
X173297619Y-123559524D02*
X173250000Y-123511905D01*
X173202381Y-123416667D01*
X173202381Y-123178571D01*
X173250000Y-123083333D01*
X173297619Y-123035714D01*
X173392857Y-122988095D01*
X173488095Y-122988095D01*
X173630952Y-123035714D01*
X174202381Y-123607143D01*
X174202381Y-122988095D01*
X173678571Y-122226190D02*
X173726190Y-122083333D01*
X173773810Y-122035714D01*
X173869048Y-121988095D01*
X174011905Y-121988095D01*
X174107143Y-122035714D01*
X174154762Y-122083333D01*
X174202381Y-122178571D01*
X174202381Y-122559524D01*
X173202381Y-122559524D01*
X173202381Y-122226190D01*
X173250000Y-122130952D01*
X173297619Y-122083333D01*
X173392857Y-122035714D01*
X173488095Y-122035714D01*
X173583333Y-122083333D01*
X173630952Y-122130952D01*
X173678571Y-122226190D01*
X173678571Y-122559524D01*
X173202381Y-145059524D02*
X174202381Y-144821429D01*
X173488095Y-144630952D01*
X174202381Y-144440476D01*
X173202381Y-144202381D01*
X174154762Y-143869048D02*
X174202381Y-143726191D01*
X174202381Y-143488095D01*
X174154762Y-143392857D01*
X174107143Y-143345238D01*
X174011905Y-143297619D01*
X173916667Y-143297619D01*
X173821429Y-143345238D01*
X173773810Y-143392857D01*
X173726190Y-143488095D01*
X173678571Y-143678572D01*
X173630952Y-143773810D01*
X173583333Y-143821429D01*
X173488095Y-143869048D01*
X173392857Y-143869048D01*
X173297619Y-143821429D01*
X173250000Y-143773810D01*
X173202381Y-143678572D01*
X173202381Y-143440476D01*
X173250000Y-143297619D01*
X173297619Y-142916667D02*
X173250000Y-142869048D01*
X173202381Y-142773810D01*
X173202381Y-142535714D01*
X173250000Y-142440476D01*
X173297619Y-142392857D01*
X173392857Y-142345238D01*
X173488095Y-142345238D01*
X173630952Y-142392857D01*
X174202381Y-142964286D01*
X174202381Y-142345238D01*
X173630952Y-141773810D02*
X173583333Y-141869048D01*
X173535714Y-141916667D01*
X173440476Y-141964286D01*
X173392857Y-141964286D01*
X173297619Y-141916667D01*
X173250000Y-141869048D01*
X173202381Y-141773810D01*
X173202381Y-141583333D01*
X173250000Y-141488095D01*
X173297619Y-141440476D01*
X173392857Y-141392857D01*
X173440476Y-141392857D01*
X173535714Y-141440476D01*
X173583333Y-141488095D01*
X173630952Y-141583333D01*
X173630952Y-141773810D01*
X173678571Y-141869048D01*
X173726190Y-141916667D01*
X173821429Y-141964286D01*
X174011905Y-141964286D01*
X174107143Y-141916667D01*
X174154762Y-141869048D01*
X174202381Y-141773810D01*
X174202381Y-141583333D01*
X174154762Y-141488095D01*
X174107143Y-141440476D01*
X174011905Y-141392857D01*
X173821429Y-141392857D01*
X173726190Y-141440476D01*
X173678571Y-141488095D01*
X173630952Y-141583333D01*
X174202381Y-140440476D02*
X174202381Y-141011905D01*
X174202381Y-140726191D02*
X173202381Y-140726191D01*
X173345238Y-140821429D01*
X173440476Y-140916667D01*
X173488095Y-141011905D01*
X173297619Y-140059524D02*
X173250000Y-140011905D01*
X173202381Y-139916667D01*
X173202381Y-139678571D01*
X173250000Y-139583333D01*
X173297619Y-139535714D01*
X173392857Y-139488095D01*
X173488095Y-139488095D01*
X173630952Y-139535714D01*
X174202381Y-140107143D01*
X174202381Y-139488095D01*
X173678571Y-138726190D02*
X173726190Y-138583333D01*
X173773810Y-138535714D01*
X173869048Y-138488095D01*
X174011905Y-138488095D01*
X174107143Y-138535714D01*
X174154762Y-138583333D01*
X174202381Y-138678571D01*
X174202381Y-139059524D01*
X173202381Y-139059524D01*
X173202381Y-138726190D01*
X173250000Y-138630952D01*
X173297619Y-138583333D01*
X173392857Y-138535714D01*
X173488095Y-138535714D01*
X173583333Y-138583333D01*
X173630952Y-138630952D01*
X173678571Y-138726190D01*
X173678571Y-139059524D01*
X189702381Y-62559524D02*
X190702381Y-62321429D01*
X189988095Y-62130952D01*
X190702381Y-61940476D01*
X189702381Y-61702381D01*
X190654762Y-61369048D02*
X190702381Y-61226191D01*
X190702381Y-60988095D01*
X190654762Y-60892857D01*
X190607143Y-60845238D01*
X190511905Y-60797619D01*
X190416667Y-60797619D01*
X190321429Y-60845238D01*
X190273810Y-60892857D01*
X190226190Y-60988095D01*
X190178571Y-61178572D01*
X190130952Y-61273810D01*
X190083333Y-61321429D01*
X189988095Y-61369048D01*
X189892857Y-61369048D01*
X189797619Y-61321429D01*
X189750000Y-61273810D01*
X189702381Y-61178572D01*
X189702381Y-60940476D01*
X189750000Y-60797619D01*
X189797619Y-60416667D02*
X189750000Y-60369048D01*
X189702381Y-60273810D01*
X189702381Y-60035714D01*
X189750000Y-59940476D01*
X189797619Y-59892857D01*
X189892857Y-59845238D01*
X189988095Y-59845238D01*
X190130952Y-59892857D01*
X190702381Y-60464286D01*
X190702381Y-59845238D01*
X190130952Y-59273810D02*
X190083333Y-59369048D01*
X190035714Y-59416667D01*
X189940476Y-59464286D01*
X189892857Y-59464286D01*
X189797619Y-59416667D01*
X189750000Y-59369048D01*
X189702381Y-59273810D01*
X189702381Y-59083333D01*
X189750000Y-58988095D01*
X189797619Y-58940476D01*
X189892857Y-58892857D01*
X189940476Y-58892857D01*
X190035714Y-58940476D01*
X190083333Y-58988095D01*
X190130952Y-59083333D01*
X190130952Y-59273810D01*
X190178571Y-59369048D01*
X190226190Y-59416667D01*
X190321429Y-59464286D01*
X190511905Y-59464286D01*
X190607143Y-59416667D01*
X190654762Y-59369048D01*
X190702381Y-59273810D01*
X190702381Y-59083333D01*
X190654762Y-58988095D01*
X190607143Y-58940476D01*
X190511905Y-58892857D01*
X190321429Y-58892857D01*
X190226190Y-58940476D01*
X190178571Y-58988095D01*
X190130952Y-59083333D01*
X190702381Y-57940476D02*
X190702381Y-58511905D01*
X190702381Y-58226191D02*
X189702381Y-58226191D01*
X189845238Y-58321429D01*
X189940476Y-58416667D01*
X189988095Y-58511905D01*
X189797619Y-57559524D02*
X189750000Y-57511905D01*
X189702381Y-57416667D01*
X189702381Y-57178571D01*
X189750000Y-57083333D01*
X189797619Y-57035714D01*
X189892857Y-56988095D01*
X189988095Y-56988095D01*
X190130952Y-57035714D01*
X190702381Y-57607143D01*
X190702381Y-56988095D01*
X190178571Y-56226190D02*
X190226190Y-56083333D01*
X190273810Y-56035714D01*
X190369048Y-55988095D01*
X190511905Y-55988095D01*
X190607143Y-56035714D01*
X190654762Y-56083333D01*
X190702381Y-56178571D01*
X190702381Y-56559524D01*
X189702381Y-56559524D01*
X189702381Y-56226190D01*
X189750000Y-56130952D01*
X189797619Y-56083333D01*
X189892857Y-56035714D01*
X189988095Y-56035714D01*
X190083333Y-56083333D01*
X190130952Y-56130952D01*
X190178571Y-56226190D01*
X190178571Y-56559524D01*
X189702381Y-79059524D02*
X190702381Y-78821429D01*
X189988095Y-78630952D01*
X190702381Y-78440476D01*
X189702381Y-78202381D01*
X190654762Y-77869048D02*
X190702381Y-77726191D01*
X190702381Y-77488095D01*
X190654762Y-77392857D01*
X190607143Y-77345238D01*
X190511905Y-77297619D01*
X190416667Y-77297619D01*
X190321429Y-77345238D01*
X190273810Y-77392857D01*
X190226190Y-77488095D01*
X190178571Y-77678572D01*
X190130952Y-77773810D01*
X190083333Y-77821429D01*
X189988095Y-77869048D01*
X189892857Y-77869048D01*
X189797619Y-77821429D01*
X189750000Y-77773810D01*
X189702381Y-77678572D01*
X189702381Y-77440476D01*
X189750000Y-77297619D01*
X189797619Y-76916667D02*
X189750000Y-76869048D01*
X189702381Y-76773810D01*
X189702381Y-76535714D01*
X189750000Y-76440476D01*
X189797619Y-76392857D01*
X189892857Y-76345238D01*
X189988095Y-76345238D01*
X190130952Y-76392857D01*
X190702381Y-76964286D01*
X190702381Y-76345238D01*
X190130952Y-75773810D02*
X190083333Y-75869048D01*
X190035714Y-75916667D01*
X189940476Y-75964286D01*
X189892857Y-75964286D01*
X189797619Y-75916667D01*
X189750000Y-75869048D01*
X189702381Y-75773810D01*
X189702381Y-75583333D01*
X189750000Y-75488095D01*
X189797619Y-75440476D01*
X189892857Y-75392857D01*
X189940476Y-75392857D01*
X190035714Y-75440476D01*
X190083333Y-75488095D01*
X190130952Y-75583333D01*
X190130952Y-75773810D01*
X190178571Y-75869048D01*
X190226190Y-75916667D01*
X190321429Y-75964286D01*
X190511905Y-75964286D01*
X190607143Y-75916667D01*
X190654762Y-75869048D01*
X190702381Y-75773810D01*
X190702381Y-75583333D01*
X190654762Y-75488095D01*
X190607143Y-75440476D01*
X190511905Y-75392857D01*
X190321429Y-75392857D01*
X190226190Y-75440476D01*
X190178571Y-75488095D01*
X190130952Y-75583333D01*
X190702381Y-74440476D02*
X190702381Y-75011905D01*
X190702381Y-74726191D02*
X189702381Y-74726191D01*
X189845238Y-74821429D01*
X189940476Y-74916667D01*
X189988095Y-75011905D01*
X189797619Y-74059524D02*
X189750000Y-74011905D01*
X189702381Y-73916667D01*
X189702381Y-73678571D01*
X189750000Y-73583333D01*
X189797619Y-73535714D01*
X189892857Y-73488095D01*
X189988095Y-73488095D01*
X190130952Y-73535714D01*
X190702381Y-74107143D01*
X190702381Y-73488095D01*
X190178571Y-72726190D02*
X190226190Y-72583333D01*
X190273810Y-72535714D01*
X190369048Y-72488095D01*
X190511905Y-72488095D01*
X190607143Y-72535714D01*
X190654762Y-72583333D01*
X190702381Y-72678571D01*
X190702381Y-73059524D01*
X189702381Y-73059524D01*
X189702381Y-72726190D01*
X189750000Y-72630952D01*
X189797619Y-72583333D01*
X189892857Y-72535714D01*
X189988095Y-72535714D01*
X190083333Y-72583333D01*
X190130952Y-72630952D01*
X190178571Y-72726190D01*
X190178571Y-73059524D01*
X189702381Y-95559524D02*
X190702381Y-95321429D01*
X189988095Y-95130952D01*
X190702381Y-94940476D01*
X189702381Y-94702381D01*
X190654762Y-94369048D02*
X190702381Y-94226191D01*
X190702381Y-93988095D01*
X190654762Y-93892857D01*
X190607143Y-93845238D01*
X190511905Y-93797619D01*
X190416667Y-93797619D01*
X190321429Y-93845238D01*
X190273810Y-93892857D01*
X190226190Y-93988095D01*
X190178571Y-94178572D01*
X190130952Y-94273810D01*
X190083333Y-94321429D01*
X189988095Y-94369048D01*
X189892857Y-94369048D01*
X189797619Y-94321429D01*
X189750000Y-94273810D01*
X189702381Y-94178572D01*
X189702381Y-93940476D01*
X189750000Y-93797619D01*
X189797619Y-93416667D02*
X189750000Y-93369048D01*
X189702381Y-93273810D01*
X189702381Y-93035714D01*
X189750000Y-92940476D01*
X189797619Y-92892857D01*
X189892857Y-92845238D01*
X189988095Y-92845238D01*
X190130952Y-92892857D01*
X190702381Y-93464286D01*
X190702381Y-92845238D01*
X190130952Y-92273810D02*
X190083333Y-92369048D01*
X190035714Y-92416667D01*
X189940476Y-92464286D01*
X189892857Y-92464286D01*
X189797619Y-92416667D01*
X189750000Y-92369048D01*
X189702381Y-92273810D01*
X189702381Y-92083333D01*
X189750000Y-91988095D01*
X189797619Y-91940476D01*
X189892857Y-91892857D01*
X189940476Y-91892857D01*
X190035714Y-91940476D01*
X190083333Y-91988095D01*
X190130952Y-92083333D01*
X190130952Y-92273810D01*
X190178571Y-92369048D01*
X190226190Y-92416667D01*
X190321429Y-92464286D01*
X190511905Y-92464286D01*
X190607143Y-92416667D01*
X190654762Y-92369048D01*
X190702381Y-92273810D01*
X190702381Y-92083333D01*
X190654762Y-91988095D01*
X190607143Y-91940476D01*
X190511905Y-91892857D01*
X190321429Y-91892857D01*
X190226190Y-91940476D01*
X190178571Y-91988095D01*
X190130952Y-92083333D01*
X190702381Y-90940476D02*
X190702381Y-91511905D01*
X190702381Y-91226191D02*
X189702381Y-91226191D01*
X189845238Y-91321429D01*
X189940476Y-91416667D01*
X189988095Y-91511905D01*
X189797619Y-90559524D02*
X189750000Y-90511905D01*
X189702381Y-90416667D01*
X189702381Y-90178571D01*
X189750000Y-90083333D01*
X189797619Y-90035714D01*
X189892857Y-89988095D01*
X189988095Y-89988095D01*
X190130952Y-90035714D01*
X190702381Y-90607143D01*
X190702381Y-89988095D01*
X190178571Y-89226190D02*
X190226190Y-89083333D01*
X190273810Y-89035714D01*
X190369048Y-88988095D01*
X190511905Y-88988095D01*
X190607143Y-89035714D01*
X190654762Y-89083333D01*
X190702381Y-89178571D01*
X190702381Y-89559524D01*
X189702381Y-89559524D01*
X189702381Y-89226190D01*
X189750000Y-89130952D01*
X189797619Y-89083333D01*
X189892857Y-89035714D01*
X189988095Y-89035714D01*
X190083333Y-89083333D01*
X190130952Y-89130952D01*
X190178571Y-89226190D01*
X190178571Y-89559524D01*
X189702381Y-112059524D02*
X190702381Y-111821429D01*
X189988095Y-111630952D01*
X190702381Y-111440476D01*
X189702381Y-111202381D01*
X190654762Y-110869048D02*
X190702381Y-110726191D01*
X190702381Y-110488095D01*
X190654762Y-110392857D01*
X190607143Y-110345238D01*
X190511905Y-110297619D01*
X190416667Y-110297619D01*
X190321429Y-110345238D01*
X190273810Y-110392857D01*
X190226190Y-110488095D01*
X190178571Y-110678572D01*
X190130952Y-110773810D01*
X190083333Y-110821429D01*
X189988095Y-110869048D01*
X189892857Y-110869048D01*
X189797619Y-110821429D01*
X189750000Y-110773810D01*
X189702381Y-110678572D01*
X189702381Y-110440476D01*
X189750000Y-110297619D01*
X189797619Y-109916667D02*
X189750000Y-109869048D01*
X189702381Y-109773810D01*
X189702381Y-109535714D01*
X189750000Y-109440476D01*
X189797619Y-109392857D01*
X189892857Y-109345238D01*
X189988095Y-109345238D01*
X190130952Y-109392857D01*
X190702381Y-109964286D01*
X190702381Y-109345238D01*
X190130952Y-108773810D02*
X190083333Y-108869048D01*
X190035714Y-108916667D01*
X189940476Y-108964286D01*
X189892857Y-108964286D01*
X189797619Y-108916667D01*
X189750000Y-108869048D01*
X189702381Y-108773810D01*
X189702381Y-108583333D01*
X189750000Y-108488095D01*
X189797619Y-108440476D01*
X189892857Y-108392857D01*
X189940476Y-108392857D01*
X190035714Y-108440476D01*
X190083333Y-108488095D01*
X190130952Y-108583333D01*
X190130952Y-108773810D01*
X190178571Y-108869048D01*
X190226190Y-108916667D01*
X190321429Y-108964286D01*
X190511905Y-108964286D01*
X190607143Y-108916667D01*
X190654762Y-108869048D01*
X190702381Y-108773810D01*
X190702381Y-108583333D01*
X190654762Y-108488095D01*
X190607143Y-108440476D01*
X190511905Y-108392857D01*
X190321429Y-108392857D01*
X190226190Y-108440476D01*
X190178571Y-108488095D01*
X190130952Y-108583333D01*
X190702381Y-107440476D02*
X190702381Y-108011905D01*
X190702381Y-107726191D02*
X189702381Y-107726191D01*
X189845238Y-107821429D01*
X189940476Y-107916667D01*
X189988095Y-108011905D01*
X189797619Y-107059524D02*
X189750000Y-107011905D01*
X189702381Y-106916667D01*
X189702381Y-106678571D01*
X189750000Y-106583333D01*
X189797619Y-106535714D01*
X189892857Y-106488095D01*
X189988095Y-106488095D01*
X190130952Y-106535714D01*
X190702381Y-107107143D01*
X190702381Y-106488095D01*
X190178571Y-105726190D02*
X190226190Y-105583333D01*
X190273810Y-105535714D01*
X190369048Y-105488095D01*
X190511905Y-105488095D01*
X190607143Y-105535714D01*
X190654762Y-105583333D01*
X190702381Y-105678571D01*
X190702381Y-106059524D01*
X189702381Y-106059524D01*
X189702381Y-105726190D01*
X189750000Y-105630952D01*
X189797619Y-105583333D01*
X189892857Y-105535714D01*
X189988095Y-105535714D01*
X190083333Y-105583333D01*
X190130952Y-105630952D01*
X190178571Y-105726190D01*
X190178571Y-106059524D01*
X189702381Y-128559524D02*
X190702381Y-128321429D01*
X189988095Y-128130952D01*
X190702381Y-127940476D01*
X189702381Y-127702381D01*
X190654762Y-127369048D02*
X190702381Y-127226191D01*
X190702381Y-126988095D01*
X190654762Y-126892857D01*
X190607143Y-126845238D01*
X190511905Y-126797619D01*
X190416667Y-126797619D01*
X190321429Y-126845238D01*
X190273810Y-126892857D01*
X190226190Y-126988095D01*
X190178571Y-127178572D01*
X190130952Y-127273810D01*
X190083333Y-127321429D01*
X189988095Y-127369048D01*
X189892857Y-127369048D01*
X189797619Y-127321429D01*
X189750000Y-127273810D01*
X189702381Y-127178572D01*
X189702381Y-126940476D01*
X189750000Y-126797619D01*
X189797619Y-126416667D02*
X189750000Y-126369048D01*
X189702381Y-126273810D01*
X189702381Y-126035714D01*
X189750000Y-125940476D01*
X189797619Y-125892857D01*
X189892857Y-125845238D01*
X189988095Y-125845238D01*
X190130952Y-125892857D01*
X190702381Y-126464286D01*
X190702381Y-125845238D01*
X190130952Y-125273810D02*
X190083333Y-125369048D01*
X190035714Y-125416667D01*
X189940476Y-125464286D01*
X189892857Y-125464286D01*
X189797619Y-125416667D01*
X189750000Y-125369048D01*
X189702381Y-125273810D01*
X189702381Y-125083333D01*
X189750000Y-124988095D01*
X189797619Y-124940476D01*
X189892857Y-124892857D01*
X189940476Y-124892857D01*
X190035714Y-124940476D01*
X190083333Y-124988095D01*
X190130952Y-125083333D01*
X190130952Y-125273810D01*
X190178571Y-125369048D01*
X190226190Y-125416667D01*
X190321429Y-125464286D01*
X190511905Y-125464286D01*
X190607143Y-125416667D01*
X190654762Y-125369048D01*
X190702381Y-125273810D01*
X190702381Y-125083333D01*
X190654762Y-124988095D01*
X190607143Y-124940476D01*
X190511905Y-124892857D01*
X190321429Y-124892857D01*
X190226190Y-124940476D01*
X190178571Y-124988095D01*
X190130952Y-125083333D01*
X190702381Y-123940476D02*
X190702381Y-124511905D01*
X190702381Y-124226191D02*
X189702381Y-124226191D01*
X189845238Y-124321429D01*
X189940476Y-124416667D01*
X189988095Y-124511905D01*
X189797619Y-123559524D02*
X189750000Y-123511905D01*
X189702381Y-123416667D01*
X189702381Y-123178571D01*
X189750000Y-123083333D01*
X189797619Y-123035714D01*
X189892857Y-122988095D01*
X189988095Y-122988095D01*
X190130952Y-123035714D01*
X190702381Y-123607143D01*
X190702381Y-122988095D01*
X190178571Y-122226190D02*
X190226190Y-122083333D01*
X190273810Y-122035714D01*
X190369048Y-121988095D01*
X190511905Y-121988095D01*
X190607143Y-122035714D01*
X190654762Y-122083333D01*
X190702381Y-122178571D01*
X190702381Y-122559524D01*
X189702381Y-122559524D01*
X189702381Y-122226190D01*
X189750000Y-122130952D01*
X189797619Y-122083333D01*
X189892857Y-122035714D01*
X189988095Y-122035714D01*
X190083333Y-122083333D01*
X190130952Y-122130952D01*
X190178571Y-122226190D01*
X190178571Y-122559524D01*
X189702381Y-145059524D02*
X190702381Y-144821429D01*
X189988095Y-144630952D01*
X190702381Y-144440476D01*
X189702381Y-144202381D01*
X190654762Y-143869048D02*
X190702381Y-143726191D01*
X190702381Y-143488095D01*
X190654762Y-143392857D01*
X190607143Y-143345238D01*
X190511905Y-143297619D01*
X190416667Y-143297619D01*
X190321429Y-143345238D01*
X190273810Y-143392857D01*
X190226190Y-143488095D01*
X190178571Y-143678572D01*
X190130952Y-143773810D01*
X190083333Y-143821429D01*
X189988095Y-143869048D01*
X189892857Y-143869048D01*
X189797619Y-143821429D01*
X189750000Y-143773810D01*
X189702381Y-143678572D01*
X189702381Y-143440476D01*
X189750000Y-143297619D01*
X189797619Y-142916667D02*
X189750000Y-142869048D01*
X189702381Y-142773810D01*
X189702381Y-142535714D01*
X189750000Y-142440476D01*
X189797619Y-142392857D01*
X189892857Y-142345238D01*
X189988095Y-142345238D01*
X190130952Y-142392857D01*
X190702381Y-142964286D01*
X190702381Y-142345238D01*
X190130952Y-141773810D02*
X190083333Y-141869048D01*
X190035714Y-141916667D01*
X189940476Y-141964286D01*
X189892857Y-141964286D01*
X189797619Y-141916667D01*
X189750000Y-141869048D01*
X189702381Y-141773810D01*
X189702381Y-141583333D01*
X189750000Y-141488095D01*
X189797619Y-141440476D01*
X189892857Y-141392857D01*
X189940476Y-141392857D01*
X190035714Y-141440476D01*
X190083333Y-141488095D01*
X190130952Y-141583333D01*
X190130952Y-141773810D01*
X190178571Y-141869048D01*
X190226190Y-141916667D01*
X190321429Y-141964286D01*
X190511905Y-141964286D01*
X190607143Y-141916667D01*
X190654762Y-141869048D01*
X190702381Y-141773810D01*
X190702381Y-141583333D01*
X190654762Y-141488095D01*
X190607143Y-141440476D01*
X190511905Y-141392857D01*
X190321429Y-141392857D01*
X190226190Y-141440476D01*
X190178571Y-141488095D01*
X190130952Y-141583333D01*
X190702381Y-140440476D02*
X190702381Y-141011905D01*
X190702381Y-140726191D02*
X189702381Y-140726191D01*
X189845238Y-140821429D01*
X189940476Y-140916667D01*
X189988095Y-141011905D01*
X189797619Y-140059524D02*
X189750000Y-140011905D01*
X189702381Y-139916667D01*
X189702381Y-139678571D01*
X189750000Y-139583333D01*
X189797619Y-139535714D01*
X189892857Y-139488095D01*
X189988095Y-139488095D01*
X190130952Y-139535714D01*
X190702381Y-140107143D01*
X190702381Y-139488095D01*
X190178571Y-138726190D02*
X190226190Y-138583333D01*
X190273810Y-138535714D01*
X190369048Y-138488095D01*
X190511905Y-138488095D01*
X190607143Y-138535714D01*
X190654762Y-138583333D01*
X190702381Y-138678571D01*
X190702381Y-139059524D01*
X189702381Y-139059524D01*
X189702381Y-138726190D01*
X189750000Y-138630952D01*
X189797619Y-138583333D01*
X189892857Y-138535714D01*
X189988095Y-138535714D01*
X190083333Y-138583333D01*
X190130952Y-138630952D01*
X190178571Y-138726190D01*
X190178571Y-139059524D01*
X206202381Y-62559524D02*
X207202381Y-62321429D01*
X206488095Y-62130952D01*
X207202381Y-61940476D01*
X206202381Y-61702381D01*
X207154762Y-61369048D02*
X207202381Y-61226191D01*
X207202381Y-60988095D01*
X207154762Y-60892857D01*
X207107143Y-60845238D01*
X207011905Y-60797619D01*
X206916667Y-60797619D01*
X206821429Y-60845238D01*
X206773810Y-60892857D01*
X206726190Y-60988095D01*
X206678571Y-61178572D01*
X206630952Y-61273810D01*
X206583333Y-61321429D01*
X206488095Y-61369048D01*
X206392857Y-61369048D01*
X206297619Y-61321429D01*
X206250000Y-61273810D01*
X206202381Y-61178572D01*
X206202381Y-60940476D01*
X206250000Y-60797619D01*
X206297619Y-60416667D02*
X206250000Y-60369048D01*
X206202381Y-60273810D01*
X206202381Y-60035714D01*
X206250000Y-59940476D01*
X206297619Y-59892857D01*
X206392857Y-59845238D01*
X206488095Y-59845238D01*
X206630952Y-59892857D01*
X207202381Y-60464286D01*
X207202381Y-59845238D01*
X206630952Y-59273810D02*
X206583333Y-59369048D01*
X206535714Y-59416667D01*
X206440476Y-59464286D01*
X206392857Y-59464286D01*
X206297619Y-59416667D01*
X206250000Y-59369048D01*
X206202381Y-59273810D01*
X206202381Y-59083333D01*
X206250000Y-58988095D01*
X206297619Y-58940476D01*
X206392857Y-58892857D01*
X206440476Y-58892857D01*
X206535714Y-58940476D01*
X206583333Y-58988095D01*
X206630952Y-59083333D01*
X206630952Y-59273810D01*
X206678571Y-59369048D01*
X206726190Y-59416667D01*
X206821429Y-59464286D01*
X207011905Y-59464286D01*
X207107143Y-59416667D01*
X207154762Y-59369048D01*
X207202381Y-59273810D01*
X207202381Y-59083333D01*
X207154762Y-58988095D01*
X207107143Y-58940476D01*
X207011905Y-58892857D01*
X206821429Y-58892857D01*
X206726190Y-58940476D01*
X206678571Y-58988095D01*
X206630952Y-59083333D01*
X207202381Y-57940476D02*
X207202381Y-58511905D01*
X207202381Y-58226191D02*
X206202381Y-58226191D01*
X206345238Y-58321429D01*
X206440476Y-58416667D01*
X206488095Y-58511905D01*
X206297619Y-57559524D02*
X206250000Y-57511905D01*
X206202381Y-57416667D01*
X206202381Y-57178571D01*
X206250000Y-57083333D01*
X206297619Y-57035714D01*
X206392857Y-56988095D01*
X206488095Y-56988095D01*
X206630952Y-57035714D01*
X207202381Y-57607143D01*
X207202381Y-56988095D01*
X206678571Y-56226190D02*
X206726190Y-56083333D01*
X206773810Y-56035714D01*
X206869048Y-55988095D01*
X207011905Y-55988095D01*
X207107143Y-56035714D01*
X207154762Y-56083333D01*
X207202381Y-56178571D01*
X207202381Y-56559524D01*
X206202381Y-56559524D01*
X206202381Y-56226190D01*
X206250000Y-56130952D01*
X206297619Y-56083333D01*
X206392857Y-56035714D01*
X206488095Y-56035714D01*
X206583333Y-56083333D01*
X206630952Y-56130952D01*
X206678571Y-56226190D01*
X206678571Y-56559524D01*
X206202381Y-79059524D02*
X207202381Y-78821429D01*
X206488095Y-78630952D01*
X207202381Y-78440476D01*
X206202381Y-78202381D01*
X207154762Y-77869048D02*
X207202381Y-77726191D01*
X207202381Y-77488095D01*
X207154762Y-77392857D01*
X207107143Y-77345238D01*
X207011905Y-77297619D01*
X206916667Y-77297619D01*
X206821429Y-77345238D01*
X206773810Y-77392857D01*
X206726190Y-77488095D01*
X206678571Y-77678572D01*
X206630952Y-77773810D01*
X206583333Y-77821429D01*
X206488095Y-77869048D01*
X206392857Y-77869048D01*
X206297619Y-77821429D01*
X206250000Y-77773810D01*
X206202381Y-77678572D01*
X206202381Y-77440476D01*
X206250000Y-77297619D01*
X206297619Y-76916667D02*
X206250000Y-76869048D01*
X206202381Y-76773810D01*
X206202381Y-76535714D01*
X206250000Y-76440476D01*
X206297619Y-76392857D01*
X206392857Y-76345238D01*
X206488095Y-76345238D01*
X206630952Y-76392857D01*
X207202381Y-76964286D01*
X207202381Y-76345238D01*
X206630952Y-75773810D02*
X206583333Y-75869048D01*
X206535714Y-75916667D01*
X206440476Y-75964286D01*
X206392857Y-75964286D01*
X206297619Y-75916667D01*
X206250000Y-75869048D01*
X206202381Y-75773810D01*
X206202381Y-75583333D01*
X206250000Y-75488095D01*
X206297619Y-75440476D01*
X206392857Y-75392857D01*
X206440476Y-75392857D01*
X206535714Y-75440476D01*
X206583333Y-75488095D01*
X206630952Y-75583333D01*
X206630952Y-75773810D01*
X206678571Y-75869048D01*
X206726190Y-75916667D01*
X206821429Y-75964286D01*
X207011905Y-75964286D01*
X207107143Y-75916667D01*
X207154762Y-75869048D01*
X207202381Y-75773810D01*
X207202381Y-75583333D01*
X207154762Y-75488095D01*
X207107143Y-75440476D01*
X207011905Y-75392857D01*
X206821429Y-75392857D01*
X206726190Y-75440476D01*
X206678571Y-75488095D01*
X206630952Y-75583333D01*
X207202381Y-74440476D02*
X207202381Y-75011905D01*
X207202381Y-74726191D02*
X206202381Y-74726191D01*
X206345238Y-74821429D01*
X206440476Y-74916667D01*
X206488095Y-75011905D01*
X206297619Y-74059524D02*
X206250000Y-74011905D01*
X206202381Y-73916667D01*
X206202381Y-73678571D01*
X206250000Y-73583333D01*
X206297619Y-73535714D01*
X206392857Y-73488095D01*
X206488095Y-73488095D01*
X206630952Y-73535714D01*
X207202381Y-74107143D01*
X207202381Y-73488095D01*
X206678571Y-72726190D02*
X206726190Y-72583333D01*
X206773810Y-72535714D01*
X206869048Y-72488095D01*
X207011905Y-72488095D01*
X207107143Y-72535714D01*
X207154762Y-72583333D01*
X207202381Y-72678571D01*
X207202381Y-73059524D01*
X206202381Y-73059524D01*
X206202381Y-72726190D01*
X206250000Y-72630952D01*
X206297619Y-72583333D01*
X206392857Y-72535714D01*
X206488095Y-72535714D01*
X206583333Y-72583333D01*
X206630952Y-72630952D01*
X206678571Y-72726190D01*
X206678571Y-73059524D01*
X206202381Y-95559524D02*
X207202381Y-95321429D01*
X206488095Y-95130952D01*
X207202381Y-94940476D01*
X206202381Y-94702381D01*
X207154762Y-94369048D02*
X207202381Y-94226191D01*
X207202381Y-93988095D01*
X207154762Y-93892857D01*
X207107143Y-93845238D01*
X207011905Y-93797619D01*
X206916667Y-93797619D01*
X206821429Y-93845238D01*
X206773810Y-93892857D01*
X206726190Y-93988095D01*
X206678571Y-94178572D01*
X206630952Y-94273810D01*
X206583333Y-94321429D01*
X206488095Y-94369048D01*
X206392857Y-94369048D01*
X206297619Y-94321429D01*
X206250000Y-94273810D01*
X206202381Y-94178572D01*
X206202381Y-93940476D01*
X206250000Y-93797619D01*
X206297619Y-93416667D02*
X206250000Y-93369048D01*
X206202381Y-93273810D01*
X206202381Y-93035714D01*
X206250000Y-92940476D01*
X206297619Y-92892857D01*
X206392857Y-92845238D01*
X206488095Y-92845238D01*
X206630952Y-92892857D01*
X207202381Y-93464286D01*
X207202381Y-92845238D01*
X206630952Y-92273810D02*
X206583333Y-92369048D01*
X206535714Y-92416667D01*
X206440476Y-92464286D01*
X206392857Y-92464286D01*
X206297619Y-92416667D01*
X206250000Y-92369048D01*
X206202381Y-92273810D01*
X206202381Y-92083333D01*
X206250000Y-91988095D01*
X206297619Y-91940476D01*
X206392857Y-91892857D01*
X206440476Y-91892857D01*
X206535714Y-91940476D01*
X206583333Y-91988095D01*
X206630952Y-92083333D01*
X206630952Y-92273810D01*
X206678571Y-92369048D01*
X206726190Y-92416667D01*
X206821429Y-92464286D01*
X207011905Y-92464286D01*
X207107143Y-92416667D01*
X207154762Y-92369048D01*
X207202381Y-92273810D01*
X207202381Y-92083333D01*
X207154762Y-91988095D01*
X207107143Y-91940476D01*
X207011905Y-91892857D01*
X206821429Y-91892857D01*
X206726190Y-91940476D01*
X206678571Y-91988095D01*
X206630952Y-92083333D01*
X207202381Y-90940476D02*
X207202381Y-91511905D01*
X207202381Y-91226191D02*
X206202381Y-91226191D01*
X206345238Y-91321429D01*
X206440476Y-91416667D01*
X206488095Y-91511905D01*
X206297619Y-90559524D02*
X206250000Y-90511905D01*
X206202381Y-90416667D01*
X206202381Y-90178571D01*
X206250000Y-90083333D01*
X206297619Y-90035714D01*
X206392857Y-89988095D01*
X206488095Y-89988095D01*
X206630952Y-90035714D01*
X207202381Y-90607143D01*
X207202381Y-89988095D01*
X206678571Y-89226190D02*
X206726190Y-89083333D01*
X206773810Y-89035714D01*
X206869048Y-88988095D01*
X207011905Y-88988095D01*
X207107143Y-89035714D01*
X207154762Y-89083333D01*
X207202381Y-89178571D01*
X207202381Y-89559524D01*
X206202381Y-89559524D01*
X206202381Y-89226190D01*
X206250000Y-89130952D01*
X206297619Y-89083333D01*
X206392857Y-89035714D01*
X206488095Y-89035714D01*
X206583333Y-89083333D01*
X206630952Y-89130952D01*
X206678571Y-89226190D01*
X206678571Y-89559524D01*
X206202381Y-112059524D02*
X207202381Y-111821429D01*
X206488095Y-111630952D01*
X207202381Y-111440476D01*
X206202381Y-111202381D01*
X207154762Y-110869048D02*
X207202381Y-110726191D01*
X207202381Y-110488095D01*
X207154762Y-110392857D01*
X207107143Y-110345238D01*
X207011905Y-110297619D01*
X206916667Y-110297619D01*
X206821429Y-110345238D01*
X206773810Y-110392857D01*
X206726190Y-110488095D01*
X206678571Y-110678572D01*
X206630952Y-110773810D01*
X206583333Y-110821429D01*
X206488095Y-110869048D01*
X206392857Y-110869048D01*
X206297619Y-110821429D01*
X206250000Y-110773810D01*
X206202381Y-110678572D01*
X206202381Y-110440476D01*
X206250000Y-110297619D01*
X206297619Y-109916667D02*
X206250000Y-109869048D01*
X206202381Y-109773810D01*
X206202381Y-109535714D01*
X206250000Y-109440476D01*
X206297619Y-109392857D01*
X206392857Y-109345238D01*
X206488095Y-109345238D01*
X206630952Y-109392857D01*
X207202381Y-109964286D01*
X207202381Y-109345238D01*
X206630952Y-108773810D02*
X206583333Y-108869048D01*
X206535714Y-108916667D01*
X206440476Y-108964286D01*
X206392857Y-108964286D01*
X206297619Y-108916667D01*
X206250000Y-108869048D01*
X206202381Y-108773810D01*
X206202381Y-108583333D01*
X206250000Y-108488095D01*
X206297619Y-108440476D01*
X206392857Y-108392857D01*
X206440476Y-108392857D01*
X206535714Y-108440476D01*
X206583333Y-108488095D01*
X206630952Y-108583333D01*
X206630952Y-108773810D01*
X206678571Y-108869048D01*
X206726190Y-108916667D01*
X206821429Y-108964286D01*
X207011905Y-108964286D01*
X207107143Y-108916667D01*
X207154762Y-108869048D01*
X207202381Y-108773810D01*
X207202381Y-108583333D01*
X207154762Y-108488095D01*
X207107143Y-108440476D01*
X207011905Y-108392857D01*
X206821429Y-108392857D01*
X206726190Y-108440476D01*
X206678571Y-108488095D01*
X206630952Y-108583333D01*
X207202381Y-107440476D02*
X207202381Y-108011905D01*
X207202381Y-107726191D02*
X206202381Y-107726191D01*
X206345238Y-107821429D01*
X206440476Y-107916667D01*
X206488095Y-108011905D01*
X206297619Y-107059524D02*
X206250000Y-107011905D01*
X206202381Y-106916667D01*
X206202381Y-106678571D01*
X206250000Y-106583333D01*
X206297619Y-106535714D01*
X206392857Y-106488095D01*
X206488095Y-106488095D01*
X206630952Y-106535714D01*
X207202381Y-107107143D01*
X207202381Y-106488095D01*
X206678571Y-105726190D02*
X206726190Y-105583333D01*
X206773810Y-105535714D01*
X206869048Y-105488095D01*
X207011905Y-105488095D01*
X207107143Y-105535714D01*
X207154762Y-105583333D01*
X207202381Y-105678571D01*
X207202381Y-106059524D01*
X206202381Y-106059524D01*
X206202381Y-105726190D01*
X206250000Y-105630952D01*
X206297619Y-105583333D01*
X206392857Y-105535714D01*
X206488095Y-105535714D01*
X206583333Y-105583333D01*
X206630952Y-105630952D01*
X206678571Y-105726190D01*
X206678571Y-106059524D01*
X206202381Y-128559524D02*
X207202381Y-128321429D01*
X206488095Y-128130952D01*
X207202381Y-127940476D01*
X206202381Y-127702381D01*
X207154762Y-127369048D02*
X207202381Y-127226191D01*
X207202381Y-126988095D01*
X207154762Y-126892857D01*
X207107143Y-126845238D01*
X207011905Y-126797619D01*
X206916667Y-126797619D01*
X206821429Y-126845238D01*
X206773810Y-126892857D01*
X206726190Y-126988095D01*
X206678571Y-127178572D01*
X206630952Y-127273810D01*
X206583333Y-127321429D01*
X206488095Y-127369048D01*
X206392857Y-127369048D01*
X206297619Y-127321429D01*
X206250000Y-127273810D01*
X206202381Y-127178572D01*
X206202381Y-126940476D01*
X206250000Y-126797619D01*
X206297619Y-126416667D02*
X206250000Y-126369048D01*
X206202381Y-126273810D01*
X206202381Y-126035714D01*
X206250000Y-125940476D01*
X206297619Y-125892857D01*
X206392857Y-125845238D01*
X206488095Y-125845238D01*
X206630952Y-125892857D01*
X207202381Y-126464286D01*
X207202381Y-125845238D01*
X206630952Y-125273810D02*
X206583333Y-125369048D01*
X206535714Y-125416667D01*
X206440476Y-125464286D01*
X206392857Y-125464286D01*
X206297619Y-125416667D01*
X206250000Y-125369048D01*
X206202381Y-125273810D01*
X206202381Y-125083333D01*
X206250000Y-124988095D01*
X206297619Y-124940476D01*
X206392857Y-124892857D01*
X206440476Y-124892857D01*
X206535714Y-124940476D01*
X206583333Y-124988095D01*
X206630952Y-125083333D01*
X206630952Y-125273810D01*
X206678571Y-125369048D01*
X206726190Y-125416667D01*
X206821429Y-125464286D01*
X207011905Y-125464286D01*
X207107143Y-125416667D01*
X207154762Y-125369048D01*
X207202381Y-125273810D01*
X207202381Y-125083333D01*
X207154762Y-124988095D01*
X207107143Y-124940476D01*
X207011905Y-124892857D01*
X206821429Y-124892857D01*
X206726190Y-124940476D01*
X206678571Y-124988095D01*
X206630952Y-125083333D01*
X207202381Y-123940476D02*
X207202381Y-124511905D01*
X207202381Y-124226191D02*
X206202381Y-124226191D01*
X206345238Y-124321429D01*
X206440476Y-124416667D01*
X206488095Y-124511905D01*
X206297619Y-123559524D02*
X206250000Y-123511905D01*
X206202381Y-123416667D01*
X206202381Y-123178571D01*
X206250000Y-123083333D01*
X206297619Y-123035714D01*
X206392857Y-122988095D01*
X206488095Y-122988095D01*
X206630952Y-123035714D01*
X207202381Y-123607143D01*
X207202381Y-122988095D01*
X206678571Y-122226190D02*
X206726190Y-122083333D01*
X206773810Y-122035714D01*
X206869048Y-121988095D01*
X207011905Y-121988095D01*
X207107143Y-122035714D01*
X207154762Y-122083333D01*
X207202381Y-122178571D01*
X207202381Y-122559524D01*
X206202381Y-122559524D01*
X206202381Y-122226190D01*
X206250000Y-122130952D01*
X206297619Y-122083333D01*
X206392857Y-122035714D01*
X206488095Y-122035714D01*
X206583333Y-122083333D01*
X206630952Y-122130952D01*
X206678571Y-122226190D01*
X206678571Y-122559524D01*
X206202381Y-145059524D02*
X207202381Y-144821429D01*
X206488095Y-144630952D01*
X207202381Y-144440476D01*
X206202381Y-144202381D01*
X207154762Y-143869048D02*
X207202381Y-143726191D01*
X207202381Y-143488095D01*
X207154762Y-143392857D01*
X207107143Y-143345238D01*
X207011905Y-143297619D01*
X206916667Y-143297619D01*
X206821429Y-143345238D01*
X206773810Y-143392857D01*
X206726190Y-143488095D01*
X206678571Y-143678572D01*
X206630952Y-143773810D01*
X206583333Y-143821429D01*
X206488095Y-143869048D01*
X206392857Y-143869048D01*
X206297619Y-143821429D01*
X206250000Y-143773810D01*
X206202381Y-143678572D01*
X206202381Y-143440476D01*
X206250000Y-143297619D01*
X206297619Y-142916667D02*
X206250000Y-142869048D01*
X206202381Y-142773810D01*
X206202381Y-142535714D01*
X206250000Y-142440476D01*
X206297619Y-142392857D01*
X206392857Y-142345238D01*
X206488095Y-142345238D01*
X206630952Y-142392857D01*
X207202381Y-142964286D01*
X207202381Y-142345238D01*
X206630952Y-141773810D02*
X206583333Y-141869048D01*
X206535714Y-141916667D01*
X206440476Y-141964286D01*
X206392857Y-141964286D01*
X206297619Y-141916667D01*
X206250000Y-141869048D01*
X206202381Y-141773810D01*
X206202381Y-141583333D01*
X206250000Y-141488095D01*
X206297619Y-141440476D01*
X206392857Y-141392857D01*
X206440476Y-141392857D01*
X206535714Y-141440476D01*
X206583333Y-141488095D01*
X206630952Y-141583333D01*
X206630952Y-141773810D01*
X206678571Y-141869048D01*
X206726190Y-141916667D01*
X206821429Y-141964286D01*
X207011905Y-141964286D01*
X207107143Y-141916667D01*
X207154762Y-141869048D01*
X207202381Y-141773810D01*
X207202381Y-141583333D01*
X207154762Y-141488095D01*
X207107143Y-141440476D01*
X207011905Y-141392857D01*
X206821429Y-141392857D01*
X206726190Y-141440476D01*
X206678571Y-141488095D01*
X206630952Y-141583333D01*
X207202381Y-140440476D02*
X207202381Y-141011905D01*
X207202381Y-140726191D02*
X206202381Y-140726191D01*
X206345238Y-140821429D01*
X206440476Y-140916667D01*
X206488095Y-141011905D01*
X206297619Y-140059524D02*
X206250000Y-140011905D01*
X206202381Y-139916667D01*
X206202381Y-139678571D01*
X206250000Y-139583333D01*
X206297619Y-139535714D01*
X206392857Y-139488095D01*
X206488095Y-139488095D01*
X206630952Y-139535714D01*
X207202381Y-140107143D01*
X207202381Y-139488095D01*
X206678571Y-138726190D02*
X206726190Y-138583333D01*
X206773810Y-138535714D01*
X206869048Y-138488095D01*
X207011905Y-138488095D01*
X207107143Y-138535714D01*
X207154762Y-138583333D01*
X207202381Y-138678571D01*
X207202381Y-139059524D01*
X206202381Y-139059524D01*
X206202381Y-138726190D01*
X206250000Y-138630952D01*
X206297619Y-138583333D01*
X206392857Y-138535714D01*
X206488095Y-138535714D01*
X206583333Y-138583333D01*
X206630952Y-138630952D01*
X206678571Y-138726190D01*
X206678571Y-139059524D01*
X157617143Y-141412381D02*
X157617143Y-140412381D01*
X157855238Y-140412381D01*
X157998096Y-140460000D01*
X158093334Y-140555238D01*
X158140953Y-140650476D01*
X158188572Y-140840952D01*
X158188572Y-140983810D01*
X158140953Y-141174286D01*
X158093334Y-141269524D01*
X157998096Y-141364762D01*
X157855238Y-141412381D01*
X157617143Y-141412381D01*
X158569524Y-141364762D02*
X158712381Y-141412381D01*
X158950477Y-141412381D01*
X159045715Y-141364762D01*
X159093334Y-141317143D01*
X159140953Y-141221905D01*
X159140953Y-141126667D01*
X159093334Y-141031429D01*
X159045715Y-140983810D01*
X158950477Y-140936190D01*
X158760000Y-140888571D01*
X158664762Y-140840952D01*
X158617143Y-140793333D01*
X158569524Y-140698095D01*
X158569524Y-140602857D01*
X158617143Y-140507619D01*
X158664762Y-140460000D01*
X158760000Y-140412381D01*
X158998096Y-140412381D01*
X159140953Y-140460000D01*
X160093334Y-141412381D02*
X159521905Y-141412381D01*
X159807619Y-141412381D02*
X159807619Y-140412381D01*
X159712381Y-140555238D01*
X159617143Y-140650476D01*
X159521905Y-140698095D01*
X160426667Y-140412381D02*
X161045715Y-140412381D01*
X160712381Y-140793333D01*
X160855239Y-140793333D01*
X160950477Y-140840952D01*
X160998096Y-140888571D01*
X161045715Y-140983810D01*
X161045715Y-141221905D01*
X160998096Y-141317143D01*
X160950477Y-141364762D01*
X160855239Y-141412381D01*
X160569524Y-141412381D01*
X160474286Y-141364762D01*
X160426667Y-141317143D01*
X161664762Y-140412381D02*
X161760001Y-140412381D01*
X161855239Y-140460000D01*
X161902858Y-140507619D01*
X161950477Y-140602857D01*
X161998096Y-140793333D01*
X161998096Y-141031429D01*
X161950477Y-141221905D01*
X161902858Y-141317143D01*
X161855239Y-141364762D01*
X161760001Y-141412381D01*
X161664762Y-141412381D01*
X161569524Y-141364762D01*
X161521905Y-141317143D01*
X161474286Y-141221905D01*
X161426667Y-141031429D01*
X161426667Y-140793333D01*
X161474286Y-140602857D01*
X161521905Y-140507619D01*
X161569524Y-140460000D01*
X161664762Y-140412381D01*
X162379048Y-140507619D02*
X162426667Y-140460000D01*
X162521905Y-140412381D01*
X162760001Y-140412381D01*
X162855239Y-140460000D01*
X162902858Y-140507619D01*
X162950477Y-140602857D01*
X162950477Y-140698095D01*
X162902858Y-140840952D01*
X162331429Y-141412381D01*
X162950477Y-141412381D01*
X159521905Y-126592381D02*
X159521905Y-125592381D01*
X159902858Y-125592381D01*
X159998096Y-125640000D01*
X160045715Y-125687619D01*
X160093334Y-125782857D01*
X160093334Y-125925714D01*
X160045715Y-126020952D01*
X159998096Y-126068571D01*
X159902858Y-126116190D01*
X159521905Y-126116190D01*
X160426667Y-125592381D02*
X161045715Y-125592381D01*
X160712381Y-125973333D01*
X160855239Y-125973333D01*
X160950477Y-126020952D01*
X160998096Y-126068571D01*
X161045715Y-126163810D01*
X161045715Y-126401905D01*
X160998096Y-126497143D01*
X160950477Y-126544762D01*
X160855239Y-126592381D01*
X160569524Y-126592381D01*
X160474286Y-126544762D01*
X160426667Y-126497143D01*
X194580476Y-77022381D02*
X194580476Y-76022381D01*
X194961429Y-76022381D01*
X195056667Y-76070000D01*
X195104286Y-76117619D01*
X195151905Y-76212857D01*
X195151905Y-76355714D01*
X195104286Y-76450952D01*
X195056667Y-76498571D01*
X194961429Y-76546190D01*
X194580476Y-76546190D01*
X195770952Y-76022381D02*
X195961429Y-76022381D01*
X196056667Y-76070000D01*
X196151905Y-76165238D01*
X196199524Y-76355714D01*
X196199524Y-76689048D01*
X196151905Y-76879524D01*
X196056667Y-76974762D01*
X195961429Y-77022381D01*
X195770952Y-77022381D01*
X195675714Y-76974762D01*
X195580476Y-76879524D01*
X195532857Y-76689048D01*
X195532857Y-76355714D01*
X195580476Y-76165238D01*
X195675714Y-76070000D01*
X195770952Y-76022381D01*
X196532857Y-76022381D02*
X196770952Y-77022381D01*
X196961429Y-76308095D01*
X197151905Y-77022381D01*
X197390000Y-76022381D01*
X197770952Y-76498571D02*
X198104286Y-76498571D01*
X198247143Y-77022381D02*
X197770952Y-77022381D01*
X197770952Y-76022381D01*
X198247143Y-76022381D01*
X199247143Y-77022381D02*
X198913809Y-76546190D01*
X198675714Y-77022381D02*
X198675714Y-76022381D01*
X199056667Y-76022381D01*
X199151905Y-76070000D01*
X199199524Y-76117619D01*
X199247143Y-76212857D01*
X199247143Y-76355714D01*
X199199524Y-76450952D01*
X199151905Y-76498571D01*
X199056667Y-76546190D01*
X198675714Y-76546190D01*
X196151905Y-91842381D02*
X196151905Y-90842381D01*
X196532858Y-90842381D01*
X196628096Y-90890000D01*
X196675715Y-90937619D01*
X196723334Y-91032857D01*
X196723334Y-91175714D01*
X196675715Y-91270952D01*
X196628096Y-91318571D01*
X196532858Y-91366190D01*
X196151905Y-91366190D01*
X197628096Y-90842381D02*
X197151905Y-90842381D01*
X197104286Y-91318571D01*
X197151905Y-91270952D01*
X197247143Y-91223333D01*
X197485239Y-91223333D01*
X197580477Y-91270952D01*
X197628096Y-91318571D01*
X197675715Y-91413810D01*
X197675715Y-91651905D01*
X197628096Y-91747143D01*
X197580477Y-91794762D01*
X197485239Y-91842381D01*
X197247143Y-91842381D01*
X197151905Y-91794762D01*
X197104286Y-91747143D01*
X208762381Y-103784048D02*
X207762381Y-103784048D01*
X208762381Y-103212619D01*
X207762381Y-103212619D01*
X208476667Y-102784048D02*
X208476667Y-102307857D01*
X208762381Y-102879286D02*
X207762381Y-102545953D01*
X208762381Y-102212619D01*
X208762381Y-101879286D02*
X207762381Y-101879286D01*
X208762381Y-101307857D01*
X207762381Y-101307857D01*
X207762381Y-100641191D02*
X207762381Y-100450714D01*
X207810000Y-100355476D01*
X207905238Y-100260238D01*
X208095714Y-100212619D01*
X208429048Y-100212619D01*
X208619524Y-100260238D01*
X208714762Y-100355476D01*
X208762381Y-100450714D01*
X208762381Y-100641191D01*
X208714762Y-100736429D01*
X208619524Y-100831667D01*
X208429048Y-100879286D01*
X208095714Y-100879286D01*
X207905238Y-100831667D01*
X207810000Y-100736429D01*
X207762381Y-100641191D01*
X208857619Y-100022143D02*
X208857619Y-99260238D01*
X208762381Y-98498333D02*
X208762381Y-99069762D01*
X208762381Y-98784048D02*
X207762381Y-98784048D01*
X207905238Y-98879286D01*
X208000476Y-98974524D01*
X208048095Y-99069762D01*
X168542381Y-101903095D02*
X167542381Y-101903095D01*
X167542381Y-101522142D01*
X167590000Y-101426904D01*
X167637619Y-101379285D01*
X167732857Y-101331666D01*
X167875714Y-101331666D01*
X167970952Y-101379285D01*
X168018571Y-101426904D01*
X168066190Y-101522142D01*
X168066190Y-101903095D01*
X168542381Y-100379285D02*
X168542381Y-100950714D01*
X168542381Y-100665000D02*
X167542381Y-100665000D01*
X167685238Y-100760238D01*
X167780476Y-100855476D01*
X167828095Y-100950714D01*
X208762381Y-119024048D02*
X207762381Y-119024048D01*
X208762381Y-118452619D01*
X207762381Y-118452619D01*
X208476667Y-118024048D02*
X208476667Y-117547857D01*
X208762381Y-118119286D02*
X207762381Y-117785953D01*
X208762381Y-117452619D01*
X208762381Y-117119286D02*
X207762381Y-117119286D01*
X208762381Y-116547857D01*
X207762381Y-116547857D01*
X207762381Y-115881191D02*
X207762381Y-115690714D01*
X207810000Y-115595476D01*
X207905238Y-115500238D01*
X208095714Y-115452619D01*
X208429048Y-115452619D01*
X208619524Y-115500238D01*
X208714762Y-115595476D01*
X208762381Y-115690714D01*
X208762381Y-115881191D01*
X208714762Y-115976429D01*
X208619524Y-116071667D01*
X208429048Y-116119286D01*
X208095714Y-116119286D01*
X207905238Y-116071667D01*
X207810000Y-115976429D01*
X207762381Y-115881191D01*
X208857619Y-115262143D02*
X208857619Y-114500238D01*
X207857619Y-114309762D02*
X207810000Y-114262143D01*
X207762381Y-114166905D01*
X207762381Y-113928809D01*
X207810000Y-113833571D01*
X207857619Y-113785952D01*
X207952857Y-113738333D01*
X208048095Y-113738333D01*
X208190952Y-113785952D01*
X208762381Y-114357381D01*
X208762381Y-113738333D01*
X168542381Y-117143095D02*
X167542381Y-117143095D01*
X167542381Y-116762142D01*
X167590000Y-116666904D01*
X167637619Y-116619285D01*
X167732857Y-116571666D01*
X167875714Y-116571666D01*
X167970952Y-116619285D01*
X168018571Y-116666904D01*
X168066190Y-116762142D01*
X168066190Y-117143095D01*
X167637619Y-116190714D02*
X167590000Y-116143095D01*
X167542381Y-116047857D01*
X167542381Y-115809761D01*
X167590000Y-115714523D01*
X167637619Y-115666904D01*
X167732857Y-115619285D01*
X167828095Y-115619285D01*
X167970952Y-115666904D01*
X168542381Y-116238333D01*
X168542381Y-115619285D01*
X126714286Y-138404762D02*
X126857143Y-138452381D01*
X127095239Y-138452381D01*
X127190477Y-138404762D01*
X127238096Y-138357143D01*
X127285715Y-138261905D01*
X127285715Y-138166667D01*
X127238096Y-138071429D01*
X127190477Y-138023810D01*
X127095239Y-137976190D01*
X126904762Y-137928571D01*
X126809524Y-137880952D01*
X126761905Y-137833333D01*
X126714286Y-137738095D01*
X126714286Y-137642857D01*
X126761905Y-137547619D01*
X126809524Y-137500000D01*
X126904762Y-137452381D01*
X127142858Y-137452381D01*
X127285715Y-137500000D01*
X195714286Y-138404762D02*
X195857143Y-138452381D01*
X196095239Y-138452381D01*
X196190477Y-138404762D01*
X196238096Y-138357143D01*
X196285715Y-138261905D01*
X196285715Y-138166667D01*
X196238096Y-138071429D01*
X196190477Y-138023810D01*
X196095239Y-137976190D01*
X195904762Y-137928571D01*
X195809524Y-137880952D01*
X195761905Y-137833333D01*
X195714286Y-137738095D01*
X195714286Y-137642857D01*
X195761905Y-137547619D01*
X195809524Y-137500000D01*
X195904762Y-137452381D01*
X196142858Y-137452381D01*
X196285715Y-137500000D01*
X195714286Y-69404762D02*
X195857143Y-69452381D01*
X196095239Y-69452381D01*
X196190477Y-69404762D01*
X196238096Y-69357143D01*
X196285715Y-69261905D01*
X196285715Y-69166667D01*
X196238096Y-69071429D01*
X196190477Y-69023810D01*
X196095239Y-68976190D01*
X195904762Y-68928571D01*
X195809524Y-68880952D01*
X195761905Y-68833333D01*
X195714286Y-68738095D01*
X195714286Y-68642857D01*
X195761905Y-68547619D01*
X195809524Y-68500000D01*
X195904762Y-68452381D01*
X196142858Y-68452381D01*
X196285715Y-68500000D01*
X126714286Y-68404762D02*
X126857143Y-68452381D01*
X127095239Y-68452381D01*
X127190477Y-68404762D01*
X127238096Y-68357143D01*
X127285715Y-68261905D01*
X127285715Y-68166667D01*
X127238096Y-68071429D01*
X127190477Y-68023810D01*
X127095239Y-67976190D01*
X126904762Y-67928571D01*
X126809524Y-67880952D01*
X126761905Y-67833333D01*
X126714286Y-67738095D01*
X126714286Y-67642857D01*
X126761905Y-67547619D01*
X126809524Y-67500000D01*
X126904762Y-67452381D01*
X127142858Y-67452381D01*
X127285715Y-67500000D01*
X161285714Y-163479763D02*
X161380952Y-163527382D01*
X161571428Y-163527382D01*
X161666667Y-163479763D01*
X161714286Y-163384525D01*
X161714286Y-163336906D01*
X161666667Y-163241668D01*
X161571428Y-163194049D01*
X161428571Y-163194049D01*
X161333333Y-163146430D01*
X161285714Y-163051191D01*
X161285714Y-163003572D01*
X161333333Y-162908334D01*
X161428571Y-162860715D01*
X161571428Y-162860715D01*
X161666667Y-162908334D01*
M02*
