M48
;DRILL file {KiCad 4.0.5} date 
;FORMAT={-:-/ absolute / metric / decimal}
FMAT,2
METRIC,TZ
T1C0.400
T2C0.813
T3C0.998
T4C1.000
T5C3.048
%
G90
G05
M71
T1
X118.5Y-54.75
X118.8Y-141.8
X122.25Y-59.25
X136.25Y-86.
X158.75Y-99.25
X161.25Y-116.
X162.25Y-103.
X162.5Y-105.
X162.75Y-88.75
X162.75Y-101.
X164.Y-131.
X165.75Y-103.75
X166.75Y-100.25
X174.25Y-121.
X176.3Y-109.7
X192.25Y-75.75
X194.25Y-80.5
X194.5Y-102.5
X195.Y-59.75
X195.Y-108.5
X199.Y-96.
X201.Y-92.
X202.75Y-75.75
X205.25Y-70.
X206.5Y-106.25
T2
X125.96Y-71.65
X125.96Y-84.35
X131.04Y-71.65
X131.04Y-84.35
X142.46Y-71.65
X142.46Y-84.35
X147.54Y-71.65
X147.54Y-84.35
X159.21Y-71.65
X159.21Y-84.35
X164.29Y-71.65
X164.29Y-84.35
T3
X126.46Y-119.
X129.Y-119.
X131.54Y-119.
T4
X160.26Y-128.47
X160.26Y-131.01
X160.26Y-133.55
X160.26Y-136.09
X160.26Y-138.63
X170.42Y-101.165
X170.42Y-116.405
X172.96Y-101.165
X172.96Y-116.405
X175.5Y-101.165
X175.5Y-116.405
X178.04Y-101.165
X178.04Y-116.405
X180.58Y-101.165
X180.58Y-116.405
X183.12Y-101.165
X183.12Y-116.405
X185.66Y-101.165
X185.66Y-116.405
X188.2Y-101.165
X188.2Y-116.405
X190.74Y-101.165
X190.74Y-116.405
X193.28Y-101.165
X193.28Y-116.405
X195.82Y-101.165
X195.82Y-116.405
X196.89Y-78.9
X196.89Y-81.44
X196.89Y-83.98
X196.89Y-86.52
X196.89Y-89.06
X198.36Y-101.165
X198.36Y-116.405
X200.9Y-101.165
X200.9Y-116.405
X203.44Y-101.165
X203.44Y-116.405
X205.98Y-101.165
X205.98Y-116.405
T5
X127.Y-65.
X127.Y-135.
X161.5Y-160.075
X196.Y-66.
X196.Y-135.
T0
M30
