G04 #@! TF.FileFunction,Copper,L2,Bot,Signal*
%FSLAX46Y46*%
G04 Gerber Fmt 4.6, Leading zero omitted, Abs format (unit mm)*
G04 Created by KiCad (PCBNEW 4.0.5) date *
%MOMM*%
%LPD*%
G01*
G04 APERTURE LIST*
%ADD10C,0.100000*%
%ADD11R,1.506220X3.014980*%
%ADD12O,1.506220X3.014980*%
%ADD13R,1.300000X0.700000*%
%ADD14R,1.700000X1.700000*%
%ADD15O,1.700000X1.700000*%
%ADD16O,1.727200X3.048000*%
%ADD17C,4.064000*%
%ADD18C,0.600000*%
%ADD19C,0.250000*%
%ADD20C,0.300000*%
%ADD21C,0.254000*%
G04 APERTURE END LIST*
D10*
D11*
X131540000Y-119000000D03*
D12*
X129000000Y-119000000D03*
X126460000Y-119000000D03*
D13*
X123000000Y-66300000D03*
X123000000Y-68200000D03*
X139500000Y-66300000D03*
X139500000Y-68200000D03*
X156000000Y-66300000D03*
X156000000Y-68200000D03*
D14*
X160260000Y-128470000D03*
D15*
X160260000Y-131010000D03*
X160260000Y-133550000D03*
X160260000Y-136090000D03*
X160260000Y-138630000D03*
D14*
X196890000Y-89060000D03*
D15*
X196890000Y-86520000D03*
X196890000Y-83980000D03*
X196890000Y-81440000D03*
X196890000Y-78900000D03*
D14*
X170420000Y-101165000D03*
D15*
X172960000Y-101165000D03*
X175500000Y-101165000D03*
X178040000Y-101165000D03*
X180580000Y-101165000D03*
X183120000Y-101165000D03*
X185660000Y-101165000D03*
X188200000Y-101165000D03*
X190740000Y-101165000D03*
X193280000Y-101165000D03*
X195820000Y-101165000D03*
X198360000Y-101165000D03*
X200900000Y-101165000D03*
X203440000Y-101165000D03*
X205980000Y-101165000D03*
D14*
X170420000Y-116405000D03*
D15*
X172960000Y-116405000D03*
X175500000Y-116405000D03*
X178040000Y-116405000D03*
X180580000Y-116405000D03*
X183120000Y-116405000D03*
X185660000Y-116405000D03*
X188200000Y-116405000D03*
X190740000Y-116405000D03*
X193280000Y-116405000D03*
X195820000Y-116405000D03*
X198360000Y-116405000D03*
X200900000Y-116405000D03*
X203440000Y-116405000D03*
X205980000Y-116405000D03*
D16*
X125960000Y-71650000D03*
X131040000Y-71650000D03*
X125960000Y-84350000D03*
X131040000Y-84350000D03*
X142460000Y-71650000D03*
X147540000Y-71650000D03*
X142460000Y-84350000D03*
X147540000Y-84350000D03*
X159210000Y-71650000D03*
X164290000Y-71650000D03*
X159210000Y-84350000D03*
X164290000Y-84350000D03*
D17*
X127000000Y-135000000D03*
X196000000Y-135000000D03*
X196000000Y-66000000D03*
X127000000Y-65000000D03*
X161500000Y-160075001D03*
D18*
X161250000Y-116000000D03*
X162750000Y-101000000D03*
X166750000Y-100250000D03*
X158750000Y-99250000D03*
X118500000Y-54750000D03*
X176300000Y-109700000D03*
X122250000Y-59250000D03*
X174250000Y-121000000D03*
X205250000Y-70000000D03*
X194250000Y-80500000D03*
X206500000Y-106250000D03*
X195000000Y-108500000D03*
X195000000Y-59750000D03*
X162750000Y-88750000D03*
X136250000Y-86000000D03*
X202750000Y-75750000D03*
X192250000Y-75750000D03*
X118800000Y-141800000D03*
X164000000Y-131000000D03*
X199000000Y-96000000D03*
X201000000Y-92000000D03*
X165750000Y-103750000D03*
X162500000Y-105000000D03*
X194500000Y-102500000D03*
X162250000Y-103000000D03*
D19*
X161250000Y-116000000D02*
X161750000Y-115500000D01*
X161750000Y-115500000D02*
X163500000Y-115500000D01*
X163500000Y-115500000D02*
X164000000Y-115000000D01*
X164000000Y-115000000D02*
X164000000Y-114250000D01*
X164000000Y-114250000D02*
X161250000Y-111500000D01*
X161250000Y-111500000D02*
X161250000Y-106500000D01*
X161250000Y-106500000D02*
X160500000Y-105750000D01*
X160500000Y-105750000D02*
X160500000Y-103000000D01*
X160500000Y-103000000D02*
X162500000Y-101000000D01*
X162500000Y-101000000D02*
X162750000Y-101000000D01*
X166750000Y-100250000D02*
X167750000Y-99250000D01*
X167750000Y-99250000D02*
X187500000Y-99250000D01*
X187500000Y-99250000D02*
X188200000Y-99950000D01*
X188200000Y-99950000D02*
X188200000Y-101165000D01*
X150500000Y-99250000D02*
X158750000Y-99250000D01*
X139000000Y-87750000D02*
X150500000Y-99250000D01*
X123000000Y-87750000D02*
X139000000Y-87750000D01*
X120250000Y-85000000D02*
X123000000Y-87750000D01*
X120250000Y-78000000D02*
X120250000Y-85000000D01*
X120250000Y-55000000D02*
X120250000Y-78000000D01*
X118750000Y-55000000D02*
X120250000Y-55000000D01*
X118500000Y-54750000D02*
X118750000Y-55000000D01*
X172960000Y-116405000D02*
X172960000Y-114840000D01*
X176300000Y-111500000D02*
X176300000Y-109700000D01*
X172960000Y-114840000D02*
X176300000Y-111500000D01*
X178040000Y-116405000D02*
X178040000Y-106290000D01*
X162750000Y-98500000D02*
X162750000Y-88750000D01*
X168000000Y-103750000D02*
X162750000Y-98500000D01*
X175500000Y-103750000D02*
X168000000Y-103750000D01*
X178040000Y-106290000D02*
X175500000Y-103750000D01*
X125960000Y-84350000D02*
X125960000Y-84960000D01*
X125960000Y-84960000D02*
X127750000Y-86750000D01*
X135500000Y-86750000D02*
X136250000Y-86000000D01*
X127750000Y-86750000D02*
X135500000Y-86750000D01*
X159210000Y-71650000D02*
X159210000Y-84350000D01*
X142460000Y-71650000D02*
X142460000Y-84350000D01*
X125960000Y-71650000D02*
X125960000Y-84350000D01*
X123000000Y-68200000D02*
X123200000Y-68200000D01*
X123200000Y-68200000D02*
X124000000Y-69000000D01*
X124000000Y-69000000D02*
X128390000Y-69000000D01*
X128390000Y-69000000D02*
X131040000Y-71650000D01*
X190740000Y-101165000D02*
X190740000Y-100010000D01*
X137100000Y-84350000D02*
X131040000Y-84350000D01*
X140500000Y-87750000D02*
X137100000Y-84350000D01*
X167250000Y-87750000D02*
X140500000Y-87750000D01*
X168750000Y-86250000D02*
X167250000Y-87750000D01*
X188000000Y-86250000D02*
X168750000Y-86250000D01*
X192500000Y-90750000D02*
X188000000Y-86250000D01*
X192500000Y-98250000D02*
X192500000Y-90750000D01*
X190740000Y-100010000D02*
X192500000Y-98250000D01*
X131040000Y-71650000D02*
X131040000Y-71960000D01*
X131040000Y-71960000D02*
X129750000Y-73250000D01*
X129750000Y-73250000D02*
X129750000Y-83060000D01*
X129750000Y-83060000D02*
X131040000Y-84350000D01*
X164290000Y-84350000D02*
X188600000Y-84350000D01*
X195820000Y-99070000D02*
X195820000Y-101165000D01*
X194250000Y-97500000D02*
X195820000Y-99070000D01*
X194250000Y-90000000D02*
X194250000Y-97500000D01*
X188600000Y-84350000D02*
X194250000Y-90000000D01*
X156000000Y-68200000D02*
X160840000Y-68200000D01*
X160840000Y-68200000D02*
X164290000Y-71650000D01*
X164290000Y-84350000D02*
X164290000Y-83040000D01*
X164290000Y-83040000D02*
X163000000Y-81750000D01*
X163000000Y-81750000D02*
X163000000Y-72940000D01*
X163000000Y-72940000D02*
X164290000Y-71650000D01*
X147540000Y-84350000D02*
X149600000Y-84350000D01*
X193280000Y-90280000D02*
X193280000Y-101165000D01*
X188250000Y-85250000D02*
X193280000Y-90280000D01*
X168500000Y-85250000D02*
X188250000Y-85250000D01*
X166750000Y-87000000D02*
X168500000Y-85250000D01*
X152250000Y-87000000D02*
X166750000Y-87000000D01*
X149600000Y-84350000D02*
X152250000Y-87000000D01*
X139500000Y-68200000D02*
X144090000Y-68200000D01*
X144090000Y-68200000D02*
X147540000Y-71650000D01*
X147540000Y-84350000D02*
X147540000Y-83290000D01*
X147540000Y-83290000D02*
X146250000Y-82000000D01*
X146250000Y-82000000D02*
X146250000Y-72940000D01*
X146250000Y-72940000D02*
X147540000Y-71650000D01*
X160260000Y-128470000D02*
X160260000Y-127260000D01*
X203440000Y-117560000D02*
X203440000Y-116405000D01*
X202000000Y-119000000D02*
X203440000Y-117560000D01*
X168000000Y-119000000D02*
X202000000Y-119000000D01*
X166000000Y-121000000D02*
X168000000Y-119000000D01*
X160000000Y-121000000D02*
X166000000Y-121000000D01*
X159000000Y-122000000D02*
X160000000Y-121000000D01*
X159000000Y-126000000D02*
X159000000Y-122000000D01*
X160260000Y-127260000D02*
X159000000Y-126000000D01*
D20*
X192250000Y-75750000D02*
X202750000Y-75750000D01*
X161800000Y-141800000D02*
X118800000Y-141800000D01*
X162700000Y-140900000D02*
X161800000Y-141800000D01*
X162700000Y-132300000D02*
X162700000Y-140900000D01*
X164000000Y-131000000D02*
X162700000Y-132300000D01*
X199000000Y-96000000D02*
X201000000Y-94000000D01*
X201000000Y-94000000D02*
X201000000Y-92000000D01*
D19*
X160260000Y-133550000D02*
X159300000Y-133550000D01*
X166250000Y-104250000D02*
X165750000Y-103750000D01*
X166250000Y-119000000D02*
X166250000Y-104250000D01*
X165000000Y-120250000D02*
X166250000Y-119000000D01*
X159500000Y-120250000D02*
X165000000Y-120250000D01*
X158250000Y-121500000D02*
X159500000Y-120250000D01*
X158250000Y-132500000D02*
X158250000Y-121500000D01*
X159300000Y-133550000D02*
X158250000Y-132500000D01*
X162500000Y-105000000D02*
X163250000Y-105750000D01*
X163250000Y-105750000D02*
X163250000Y-111250000D01*
X163250000Y-111250000D02*
X164000000Y-112000000D01*
X164000000Y-112000000D02*
X165250000Y-112000000D01*
X165250000Y-112000000D02*
X165500000Y-112250000D01*
X165500000Y-112250000D02*
X165500000Y-118500000D01*
X165500000Y-118500000D02*
X164500000Y-119500000D01*
X164500000Y-119500000D02*
X159250000Y-119500000D01*
X159250000Y-119500000D02*
X157500000Y-121250000D01*
X157500000Y-121250000D02*
X157500000Y-134750000D01*
X157500000Y-134750000D02*
X158840000Y-136090000D01*
X158840000Y-136090000D02*
X160260000Y-136090000D01*
X160260000Y-138630000D02*
X158380000Y-138630000D01*
X200855000Y-103750000D02*
X203440000Y-101165000D01*
X195750000Y-103750000D02*
X200855000Y-103750000D01*
X194500000Y-102500000D02*
X195750000Y-103750000D01*
X161500000Y-103750000D02*
X162250000Y-103000000D01*
X161500000Y-105500000D02*
X161500000Y-103750000D01*
X162250000Y-106250000D02*
X161500000Y-105500000D01*
X162250000Y-111250000D02*
X162250000Y-106250000D01*
X164750000Y-113750000D02*
X162250000Y-111250000D01*
X164750000Y-117750000D02*
X164750000Y-113750000D01*
X163750000Y-118750000D02*
X164750000Y-117750000D01*
X158750000Y-118750000D02*
X163750000Y-118750000D01*
X156750000Y-120750000D02*
X158750000Y-118750000D01*
X156750000Y-137000000D02*
X156750000Y-120750000D01*
X158380000Y-138630000D02*
X156750000Y-137000000D01*
D21*
G36*
X210290000Y-149290000D02*
X112710000Y-149290000D01*
X112710000Y-141985167D01*
X117864838Y-141985167D01*
X118006883Y-142328943D01*
X118269673Y-142592192D01*
X118613201Y-142734838D01*
X118985167Y-142735162D01*
X119328943Y-142593117D01*
X119337074Y-142585000D01*
X161800000Y-142585000D01*
X162100407Y-142525245D01*
X162355079Y-142355079D01*
X163255079Y-141455079D01*
X163425245Y-141200407D01*
X163485000Y-140900000D01*
X163485000Y-135528172D01*
X193332538Y-135528172D01*
X193737709Y-136508761D01*
X194487293Y-137259655D01*
X195467173Y-137666536D01*
X196528172Y-137667462D01*
X197508761Y-137262291D01*
X198259655Y-136512707D01*
X198666536Y-135532827D01*
X198667462Y-134471828D01*
X198262291Y-133491239D01*
X197512707Y-132740345D01*
X196532827Y-132333464D01*
X195471828Y-132332538D01*
X194491239Y-132737709D01*
X193740345Y-133487293D01*
X193333464Y-134467173D01*
X193332538Y-135528172D01*
X163485000Y-135528172D01*
X163485000Y-132625158D01*
X164175005Y-131935153D01*
X164185167Y-131935162D01*
X164528943Y-131793117D01*
X164792192Y-131530327D01*
X164934838Y-131186799D01*
X164935162Y-130814833D01*
X164793117Y-130471057D01*
X164530327Y-130207808D01*
X164186799Y-130065162D01*
X163814833Y-130064838D01*
X163471057Y-130206883D01*
X163207808Y-130469673D01*
X163065162Y-130813201D01*
X163065152Y-130824690D01*
X162144921Y-131744921D01*
X161974755Y-131999593D01*
X161974755Y-131999594D01*
X161915000Y-132300000D01*
X161915000Y-140574842D01*
X161474842Y-141015000D01*
X119337506Y-141015000D01*
X119330327Y-141007808D01*
X118986799Y-140865162D01*
X118614833Y-140864838D01*
X118271057Y-141006883D01*
X118007808Y-141269673D01*
X117865162Y-141613201D01*
X117864838Y-141985167D01*
X112710000Y-141985167D01*
X112710000Y-135528172D01*
X124332538Y-135528172D01*
X124737709Y-136508761D01*
X125487293Y-137259655D01*
X126467173Y-137666536D01*
X127528172Y-137667462D01*
X128508761Y-137262291D01*
X129259655Y-136512707D01*
X129666536Y-135532827D01*
X129667462Y-134471828D01*
X129262291Y-133491239D01*
X128512707Y-132740345D01*
X127532827Y-132333464D01*
X126471828Y-132332538D01*
X125491239Y-132737709D01*
X124740345Y-133487293D01*
X124333464Y-134467173D01*
X124332538Y-135528172D01*
X112710000Y-135528172D01*
X112710000Y-119127000D01*
X125071890Y-119127000D01*
X125071890Y-119881380D01*
X125226154Y-120402919D01*
X125568260Y-120825724D01*
X126046125Y-121085427D01*
X126118326Y-121099783D01*
X126333000Y-120977162D01*
X126333000Y-119127000D01*
X125071890Y-119127000D01*
X112710000Y-119127000D01*
X112710000Y-118118620D01*
X125071890Y-118118620D01*
X125071890Y-118873000D01*
X126333000Y-118873000D01*
X126333000Y-117022838D01*
X126587000Y-117022838D01*
X126587000Y-118873000D01*
X126607000Y-118873000D01*
X126607000Y-119127000D01*
X126587000Y-119127000D01*
X126587000Y-120977162D01*
X126801674Y-121099783D01*
X126873875Y-121085427D01*
X127351740Y-120825724D01*
X127693846Y-120402919D01*
X127716984Y-120324694D01*
X127717554Y-120327561D01*
X128018458Y-120777896D01*
X128468793Y-121078800D01*
X129000000Y-121184464D01*
X129531207Y-121078800D01*
X129981542Y-120777896D01*
X130144454Y-120534081D01*
X130183728Y-120742807D01*
X130322800Y-120958931D01*
X130535000Y-121103921D01*
X130786890Y-121154930D01*
X132293110Y-121154930D01*
X132528427Y-121110652D01*
X132744551Y-120971580D01*
X132889541Y-120759380D01*
X132940550Y-120507490D01*
X132940550Y-117492510D01*
X132896272Y-117257193D01*
X132757200Y-117041069D01*
X132545000Y-116896079D01*
X132293110Y-116845070D01*
X130786890Y-116845070D01*
X130551573Y-116889348D01*
X130335449Y-117028420D01*
X130190459Y-117240620D01*
X130144746Y-117466357D01*
X129981542Y-117222104D01*
X129531207Y-116921200D01*
X129000000Y-116815536D01*
X128468793Y-116921200D01*
X128018458Y-117222104D01*
X127717554Y-117672439D01*
X127716984Y-117675306D01*
X127693846Y-117597081D01*
X127351740Y-117174276D01*
X126873875Y-116914573D01*
X126801674Y-116900217D01*
X126587000Y-117022838D01*
X126333000Y-117022838D01*
X126118326Y-116900217D01*
X126046125Y-116914573D01*
X125568260Y-117174276D01*
X125226154Y-117597081D01*
X125071890Y-118118620D01*
X112710000Y-118118620D01*
X112710000Y-54935167D01*
X117564838Y-54935167D01*
X117706883Y-55278943D01*
X117969673Y-55542192D01*
X118313201Y-55684838D01*
X118433410Y-55684943D01*
X118459160Y-55702148D01*
X118750000Y-55760000D01*
X119490000Y-55760000D01*
X119490000Y-85000000D01*
X119547852Y-85290839D01*
X119712599Y-85537401D01*
X122462599Y-88287401D01*
X122709160Y-88452148D01*
X123000000Y-88510000D01*
X138685198Y-88510000D01*
X149962599Y-99787401D01*
X150209161Y-99952148D01*
X150500000Y-100010000D01*
X158187537Y-100010000D01*
X158219673Y-100042192D01*
X158563201Y-100184838D01*
X158935167Y-100185162D01*
X159278943Y-100043117D01*
X159542192Y-99780327D01*
X159684838Y-99436799D01*
X159685162Y-99064833D01*
X159543117Y-98721057D01*
X159280327Y-98457808D01*
X158936799Y-98315162D01*
X158564833Y-98314838D01*
X158221057Y-98456883D01*
X158187882Y-98490000D01*
X150814802Y-98490000D01*
X140834802Y-88510000D01*
X161837253Y-88510000D01*
X161815162Y-88563201D01*
X161814838Y-88935167D01*
X161956883Y-89278943D01*
X161990000Y-89312118D01*
X161990000Y-98500000D01*
X162047852Y-98790839D01*
X162212599Y-99037401D01*
X166028394Y-102853196D01*
X165936799Y-102815162D01*
X165564833Y-102814838D01*
X165221057Y-102956883D01*
X164957808Y-103219673D01*
X164815162Y-103563201D01*
X164814838Y-103935167D01*
X164956883Y-104278943D01*
X165219673Y-104542192D01*
X165490000Y-104654442D01*
X165490000Y-111287739D01*
X165250000Y-111240000D01*
X164314802Y-111240000D01*
X164010000Y-110935198D01*
X164010000Y-105750000D01*
X164002560Y-105712599D01*
X163952148Y-105459160D01*
X163787401Y-105212599D01*
X163435122Y-104860320D01*
X163435162Y-104814833D01*
X163293117Y-104471057D01*
X163030327Y-104207808D01*
X162686799Y-104065162D01*
X162314833Y-104064838D01*
X162260000Y-104087494D01*
X162260000Y-104064802D01*
X162389680Y-103935122D01*
X162435167Y-103935162D01*
X162778943Y-103793117D01*
X163042192Y-103530327D01*
X163184838Y-103186799D01*
X163185162Y-102814833D01*
X163043117Y-102471057D01*
X162780327Y-102207808D01*
X162488268Y-102086534D01*
X162639897Y-101934905D01*
X162935167Y-101935162D01*
X163278943Y-101793117D01*
X163542192Y-101530327D01*
X163684838Y-101186799D01*
X163685162Y-100814833D01*
X163543117Y-100471057D01*
X163280327Y-100207808D01*
X162936799Y-100065162D01*
X162564833Y-100064838D01*
X162221057Y-100206883D01*
X161969541Y-100457961D01*
X161962599Y-100462599D01*
X159962599Y-102462599D01*
X159797852Y-102709161D01*
X159740000Y-103000000D01*
X159740000Y-105750000D01*
X159797852Y-106040839D01*
X159962599Y-106287401D01*
X160490000Y-106814802D01*
X160490000Y-111500000D01*
X160547852Y-111790839D01*
X160712599Y-112037401D01*
X163240000Y-114564802D01*
X163240000Y-114685198D01*
X163185198Y-114740000D01*
X161750000Y-114740000D01*
X161459161Y-114797852D01*
X161212599Y-114962599D01*
X161110320Y-115064878D01*
X161064833Y-115064838D01*
X160721057Y-115206883D01*
X160457808Y-115469673D01*
X160315162Y-115813201D01*
X160314838Y-116185167D01*
X160456883Y-116528943D01*
X160719673Y-116792192D01*
X161063201Y-116934838D01*
X161435167Y-116935162D01*
X161778943Y-116793117D01*
X162042192Y-116530327D01*
X162154442Y-116260000D01*
X163500000Y-116260000D01*
X163790839Y-116202148D01*
X163990000Y-116069073D01*
X163990000Y-117435198D01*
X163435198Y-117990000D01*
X158750000Y-117990000D01*
X158459161Y-118047852D01*
X158212599Y-118212599D01*
X156212599Y-120212599D01*
X156047852Y-120459161D01*
X155990000Y-120750000D01*
X155990000Y-137000000D01*
X156047852Y-137290839D01*
X156212599Y-137537401D01*
X157842599Y-139167401D01*
X158089161Y-139332148D01*
X158380000Y-139390000D01*
X158987046Y-139390000D01*
X159180853Y-139680054D01*
X159662622Y-140001961D01*
X160230907Y-140115000D01*
X160289093Y-140115000D01*
X160857378Y-140001961D01*
X161339147Y-139680054D01*
X161661054Y-139198285D01*
X161774093Y-138630000D01*
X161661054Y-138061715D01*
X161339147Y-137579946D01*
X161009974Y-137360000D01*
X161339147Y-137140054D01*
X161661054Y-136658285D01*
X161774093Y-136090000D01*
X161661054Y-135521715D01*
X161339147Y-135039946D01*
X161009974Y-134820000D01*
X161339147Y-134600054D01*
X161661054Y-134118285D01*
X161774093Y-133550000D01*
X161661054Y-132981715D01*
X161339147Y-132499946D01*
X160998447Y-132272298D01*
X161141358Y-132205183D01*
X161531645Y-131776924D01*
X161701476Y-131366890D01*
X161580155Y-131137000D01*
X160387000Y-131137000D01*
X160387000Y-131157000D01*
X160133000Y-131157000D01*
X160133000Y-131137000D01*
X160113000Y-131137000D01*
X160113000Y-130883000D01*
X160133000Y-130883000D01*
X160133000Y-130863000D01*
X160387000Y-130863000D01*
X160387000Y-130883000D01*
X161580155Y-130883000D01*
X161701476Y-130653110D01*
X161531645Y-130243076D01*
X161255499Y-129940063D01*
X161345317Y-129923162D01*
X161561441Y-129784090D01*
X161706431Y-129571890D01*
X161757440Y-129320000D01*
X161757440Y-127620000D01*
X161713162Y-127384683D01*
X161574090Y-127168559D01*
X161361890Y-127023569D01*
X161110000Y-126972560D01*
X160962824Y-126972560D01*
X160962148Y-126969161D01*
X160797401Y-126722599D01*
X159760000Y-125685198D01*
X159760000Y-122314802D01*
X160314802Y-121760000D01*
X166000000Y-121760000D01*
X166290839Y-121702148D01*
X166537401Y-121537401D01*
X168314802Y-119760000D01*
X202000000Y-119760000D01*
X202290839Y-119702148D01*
X202537401Y-119537401D01*
X203977401Y-118097401D01*
X204142148Y-117850839D01*
X204172941Y-117696035D01*
X204490054Y-117484147D01*
X204710000Y-117154974D01*
X204929946Y-117484147D01*
X205411715Y-117806054D01*
X205980000Y-117919093D01*
X206548285Y-117806054D01*
X207030054Y-117484147D01*
X207351961Y-117002378D01*
X207465000Y-116434093D01*
X207465000Y-116375907D01*
X207351961Y-115807622D01*
X207030054Y-115325853D01*
X206548285Y-115003946D01*
X205980000Y-114890907D01*
X205411715Y-115003946D01*
X204929946Y-115325853D01*
X204710000Y-115655026D01*
X204490054Y-115325853D01*
X204008285Y-115003946D01*
X203440000Y-114890907D01*
X202871715Y-115003946D01*
X202389946Y-115325853D01*
X202170000Y-115655026D01*
X201950054Y-115325853D01*
X201468285Y-115003946D01*
X200900000Y-114890907D01*
X200331715Y-115003946D01*
X199849946Y-115325853D01*
X199630000Y-115655026D01*
X199410054Y-115325853D01*
X198928285Y-115003946D01*
X198360000Y-114890907D01*
X197791715Y-115003946D01*
X197309946Y-115325853D01*
X197090000Y-115655026D01*
X196870054Y-115325853D01*
X196388285Y-115003946D01*
X195820000Y-114890907D01*
X195251715Y-115003946D01*
X194769946Y-115325853D01*
X194550000Y-115655026D01*
X194330054Y-115325853D01*
X193848285Y-115003946D01*
X193280000Y-114890907D01*
X192711715Y-115003946D01*
X192229946Y-115325853D01*
X192010000Y-115655026D01*
X191790054Y-115325853D01*
X191308285Y-115003946D01*
X190740000Y-114890907D01*
X190171715Y-115003946D01*
X189689946Y-115325853D01*
X189470000Y-115655026D01*
X189250054Y-115325853D01*
X188768285Y-115003946D01*
X188200000Y-114890907D01*
X187631715Y-115003946D01*
X187149946Y-115325853D01*
X186930000Y-115655026D01*
X186710054Y-115325853D01*
X186228285Y-115003946D01*
X185660000Y-114890907D01*
X185091715Y-115003946D01*
X184609946Y-115325853D01*
X184390000Y-115655026D01*
X184170054Y-115325853D01*
X183688285Y-115003946D01*
X183120000Y-114890907D01*
X182551715Y-115003946D01*
X182069946Y-115325853D01*
X181850000Y-115655026D01*
X181630054Y-115325853D01*
X181148285Y-115003946D01*
X180580000Y-114890907D01*
X180011715Y-115003946D01*
X179529946Y-115325853D01*
X179310000Y-115655026D01*
X179090054Y-115325853D01*
X178800000Y-115132046D01*
X178800000Y-106290000D01*
X178750438Y-106040839D01*
X178742148Y-105999160D01*
X178577401Y-105752599D01*
X176037401Y-103212599D01*
X175790839Y-103047852D01*
X175500000Y-102990000D01*
X168314802Y-102990000D01*
X166471606Y-101146804D01*
X166563201Y-101184838D01*
X166935167Y-101185162D01*
X167278943Y-101043117D01*
X167542192Y-100780327D01*
X167684838Y-100436799D01*
X167684879Y-100389923D01*
X168064802Y-100010000D01*
X169009857Y-100010000D01*
X168973569Y-100063110D01*
X168922560Y-100315000D01*
X168922560Y-102015000D01*
X168966838Y-102250317D01*
X169105910Y-102466441D01*
X169318110Y-102611431D01*
X169570000Y-102662440D01*
X171270000Y-102662440D01*
X171505317Y-102618162D01*
X171721441Y-102479090D01*
X171866431Y-102266890D01*
X171880086Y-102199459D01*
X171909946Y-102244147D01*
X172391715Y-102566054D01*
X172960000Y-102679093D01*
X173528285Y-102566054D01*
X174010054Y-102244147D01*
X174230000Y-101914974D01*
X174449946Y-102244147D01*
X174931715Y-102566054D01*
X175500000Y-102679093D01*
X176068285Y-102566054D01*
X176550054Y-102244147D01*
X176777702Y-101903447D01*
X176844817Y-102046358D01*
X177273076Y-102436645D01*
X177683110Y-102606476D01*
X177913000Y-102485155D01*
X177913000Y-101292000D01*
X177893000Y-101292000D01*
X177893000Y-101038000D01*
X177913000Y-101038000D01*
X177913000Y-101018000D01*
X178167000Y-101018000D01*
X178167000Y-101038000D01*
X178187000Y-101038000D01*
X178187000Y-101292000D01*
X178167000Y-101292000D01*
X178167000Y-102485155D01*
X178396890Y-102606476D01*
X178806924Y-102436645D01*
X179235183Y-102046358D01*
X179302298Y-101903447D01*
X179529946Y-102244147D01*
X180011715Y-102566054D01*
X180580000Y-102679093D01*
X181148285Y-102566054D01*
X181630054Y-102244147D01*
X181850000Y-101914974D01*
X182069946Y-102244147D01*
X182551715Y-102566054D01*
X183120000Y-102679093D01*
X183688285Y-102566054D01*
X184170054Y-102244147D01*
X184390000Y-101914974D01*
X184609946Y-102244147D01*
X185091715Y-102566054D01*
X185660000Y-102679093D01*
X186228285Y-102566054D01*
X186710054Y-102244147D01*
X186930000Y-101914974D01*
X187149946Y-102244147D01*
X187631715Y-102566054D01*
X188200000Y-102679093D01*
X188768285Y-102566054D01*
X189250054Y-102244147D01*
X189470000Y-101914974D01*
X189689946Y-102244147D01*
X190171715Y-102566054D01*
X190740000Y-102679093D01*
X191308285Y-102566054D01*
X191790054Y-102244147D01*
X192010000Y-101914974D01*
X192229946Y-102244147D01*
X192711715Y-102566054D01*
X193280000Y-102679093D01*
X193564893Y-102622424D01*
X193564838Y-102685167D01*
X193706883Y-103028943D01*
X193969673Y-103292192D01*
X194313201Y-103434838D01*
X194360077Y-103434879D01*
X195212599Y-104287401D01*
X195459161Y-104452148D01*
X195750000Y-104510000D01*
X200855000Y-104510000D01*
X201145839Y-104452148D01*
X201392401Y-104287401D01*
X203073592Y-102606210D01*
X203440000Y-102679093D01*
X204008285Y-102566054D01*
X204490054Y-102244147D01*
X204710000Y-101914974D01*
X204929946Y-102244147D01*
X205411715Y-102566054D01*
X205980000Y-102679093D01*
X206548285Y-102566054D01*
X207030054Y-102244147D01*
X207351961Y-101762378D01*
X207465000Y-101194093D01*
X207465000Y-101135907D01*
X207351961Y-100567622D01*
X207030054Y-100085853D01*
X206548285Y-99763946D01*
X205980000Y-99650907D01*
X205411715Y-99763946D01*
X204929946Y-100085853D01*
X204710000Y-100415026D01*
X204490054Y-100085853D01*
X204008285Y-99763946D01*
X203440000Y-99650907D01*
X202871715Y-99763946D01*
X202389946Y-100085853D01*
X202170000Y-100415026D01*
X201950054Y-100085853D01*
X201468285Y-99763946D01*
X200900000Y-99650907D01*
X200331715Y-99763946D01*
X199849946Y-100085853D01*
X199630000Y-100415026D01*
X199410054Y-100085853D01*
X198928285Y-99763946D01*
X198360000Y-99650907D01*
X197791715Y-99763946D01*
X197309946Y-100085853D01*
X197090000Y-100415026D01*
X196870054Y-100085853D01*
X196580000Y-99892046D01*
X196580000Y-99070000D01*
X196522148Y-98779161D01*
X196522148Y-98779160D01*
X196357401Y-98532599D01*
X195010000Y-97185198D01*
X195010000Y-96185167D01*
X198064838Y-96185167D01*
X198206883Y-96528943D01*
X198469673Y-96792192D01*
X198813201Y-96934838D01*
X199185167Y-96935162D01*
X199528943Y-96793117D01*
X199792192Y-96530327D01*
X199934838Y-96186799D01*
X199934848Y-96175310D01*
X201555079Y-94555079D01*
X201725245Y-94300407D01*
X201785000Y-94000000D01*
X201785000Y-92537506D01*
X201792192Y-92530327D01*
X201934838Y-92186799D01*
X201935162Y-91814833D01*
X201793117Y-91471057D01*
X201530327Y-91207808D01*
X201186799Y-91065162D01*
X200814833Y-91064838D01*
X200471057Y-91206883D01*
X200207808Y-91469673D01*
X200065162Y-91813201D01*
X200064838Y-92185167D01*
X200206883Y-92528943D01*
X200215000Y-92537074D01*
X200215000Y-93674842D01*
X198824995Y-95064847D01*
X198814833Y-95064838D01*
X198471057Y-95206883D01*
X198207808Y-95469673D01*
X198065162Y-95813201D01*
X198064838Y-96185167D01*
X195010000Y-96185167D01*
X195010000Y-90000000D01*
X194952148Y-89709161D01*
X194787401Y-89462599D01*
X194670552Y-89345750D01*
X195405000Y-89345750D01*
X195405000Y-90036310D01*
X195501673Y-90269699D01*
X195680302Y-90448327D01*
X195913691Y-90545000D01*
X196604250Y-90545000D01*
X196763000Y-90386250D01*
X196763000Y-89187000D01*
X197017000Y-89187000D01*
X197017000Y-90386250D01*
X197175750Y-90545000D01*
X197866309Y-90545000D01*
X198099698Y-90448327D01*
X198278327Y-90269699D01*
X198375000Y-90036310D01*
X198375000Y-89345750D01*
X198216250Y-89187000D01*
X197017000Y-89187000D01*
X196763000Y-89187000D01*
X195563750Y-89187000D01*
X195405000Y-89345750D01*
X194670552Y-89345750D01*
X189137401Y-83812599D01*
X188890839Y-83647852D01*
X188600000Y-83590000D01*
X165777202Y-83590000D01*
X165674526Y-83073814D01*
X165349670Y-82587633D01*
X164863489Y-82262777D01*
X164519071Y-82194268D01*
X163760000Y-81435198D01*
X163760000Y-78900000D01*
X195375907Y-78900000D01*
X195488946Y-79468285D01*
X195810853Y-79950054D01*
X196140026Y-80170000D01*
X195810853Y-80389946D01*
X195488946Y-80871715D01*
X195375907Y-81440000D01*
X195488946Y-82008285D01*
X195810853Y-82490054D01*
X196140026Y-82710000D01*
X195810853Y-82929946D01*
X195488946Y-83411715D01*
X195375907Y-83980000D01*
X195488946Y-84548285D01*
X195810853Y-85030054D01*
X196140026Y-85250000D01*
X195810853Y-85469946D01*
X195488946Y-85951715D01*
X195375907Y-86520000D01*
X195488946Y-87088285D01*
X195810853Y-87570054D01*
X195854777Y-87599403D01*
X195680302Y-87671673D01*
X195501673Y-87850301D01*
X195405000Y-88083690D01*
X195405000Y-88774250D01*
X195563750Y-88933000D01*
X196763000Y-88933000D01*
X196763000Y-88913000D01*
X197017000Y-88913000D01*
X197017000Y-88933000D01*
X198216250Y-88933000D01*
X198375000Y-88774250D01*
X198375000Y-88083690D01*
X198278327Y-87850301D01*
X198099698Y-87671673D01*
X197925223Y-87599403D01*
X197969147Y-87570054D01*
X198291054Y-87088285D01*
X198404093Y-86520000D01*
X198291054Y-85951715D01*
X197969147Y-85469946D01*
X197639974Y-85250000D01*
X197969147Y-85030054D01*
X198291054Y-84548285D01*
X198404093Y-83980000D01*
X198291054Y-83411715D01*
X197969147Y-82929946D01*
X197639974Y-82710000D01*
X197969147Y-82490054D01*
X198291054Y-82008285D01*
X198404093Y-81440000D01*
X198291054Y-80871715D01*
X197969147Y-80389946D01*
X197639974Y-80170000D01*
X197969147Y-79950054D01*
X198291054Y-79468285D01*
X198404093Y-78900000D01*
X198291054Y-78331715D01*
X197969147Y-77849946D01*
X197487378Y-77528039D01*
X196919093Y-77415000D01*
X196860907Y-77415000D01*
X196292622Y-77528039D01*
X195810853Y-77849946D01*
X195488946Y-78331715D01*
X195375907Y-78900000D01*
X163760000Y-78900000D01*
X163760000Y-75935167D01*
X191314838Y-75935167D01*
X191456883Y-76278943D01*
X191719673Y-76542192D01*
X192063201Y-76684838D01*
X192435167Y-76685162D01*
X192778943Y-76543117D01*
X192787074Y-76535000D01*
X202212494Y-76535000D01*
X202219673Y-76542192D01*
X202563201Y-76684838D01*
X202935167Y-76685162D01*
X203278943Y-76543117D01*
X203542192Y-76280327D01*
X203684838Y-75936799D01*
X203685162Y-75564833D01*
X203543117Y-75221057D01*
X203280327Y-74957808D01*
X202936799Y-74815162D01*
X202564833Y-74814838D01*
X202221057Y-74956883D01*
X202212926Y-74965000D01*
X192787506Y-74965000D01*
X192780327Y-74957808D01*
X192436799Y-74815162D01*
X192064833Y-74814838D01*
X191721057Y-74956883D01*
X191457808Y-75219673D01*
X191315162Y-75563201D01*
X191314838Y-75935167D01*
X163760000Y-75935167D01*
X163760000Y-73745873D01*
X164290000Y-73851297D01*
X164863489Y-73737223D01*
X165349670Y-73412367D01*
X165674526Y-72926186D01*
X165788600Y-72352697D01*
X165788600Y-70947303D01*
X165674526Y-70373814D01*
X165349670Y-69887633D01*
X164863489Y-69562777D01*
X164290000Y-69448703D01*
X163716511Y-69562777D01*
X163453391Y-69738589D01*
X161377401Y-67662599D01*
X161130839Y-67497852D01*
X160840000Y-67440000D01*
X157140757Y-67440000D01*
X157114090Y-67398559D01*
X156901890Y-67253569D01*
X156868510Y-67246809D01*
X157009699Y-67188327D01*
X157188327Y-67009698D01*
X157285000Y-66776309D01*
X157285000Y-66585750D01*
X157227422Y-66528172D01*
X193332538Y-66528172D01*
X193737709Y-67508761D01*
X194487293Y-68259655D01*
X195467173Y-68666536D01*
X196528172Y-68667462D01*
X197508761Y-68262291D01*
X198259655Y-67512707D01*
X198666536Y-66532827D01*
X198667462Y-65471828D01*
X198262291Y-64491239D01*
X197512707Y-63740345D01*
X196532827Y-63333464D01*
X195471828Y-63332538D01*
X194491239Y-63737709D01*
X193740345Y-64487293D01*
X193333464Y-65467173D01*
X193332538Y-66528172D01*
X157227422Y-66528172D01*
X157126250Y-66427000D01*
X156127000Y-66427000D01*
X156127000Y-66447000D01*
X155873000Y-66447000D01*
X155873000Y-66427000D01*
X154873750Y-66427000D01*
X154715000Y-66585750D01*
X154715000Y-66776309D01*
X154811673Y-67009698D01*
X154990301Y-67188327D01*
X155126287Y-67244654D01*
X155114683Y-67246838D01*
X154898559Y-67385910D01*
X154753569Y-67598110D01*
X154702560Y-67850000D01*
X154702560Y-68550000D01*
X154746838Y-68785317D01*
X154885910Y-69001441D01*
X155098110Y-69146431D01*
X155350000Y-69197440D01*
X156650000Y-69197440D01*
X156885317Y-69153162D01*
X157101441Y-69014090D01*
X157138399Y-68960000D01*
X160525198Y-68960000D01*
X162791400Y-71226202D01*
X162791400Y-72073798D01*
X162462599Y-72402599D01*
X162297852Y-72649161D01*
X162240000Y-72940000D01*
X162240000Y-81750000D01*
X162297852Y-82040839D01*
X162462599Y-82287401D01*
X163043076Y-82867878D01*
X162905474Y-83073814D01*
X162791400Y-83647303D01*
X162791400Y-85052697D01*
X162905474Y-85626186D01*
X163230330Y-86112367D01*
X163421346Y-86240000D01*
X160078654Y-86240000D01*
X160269670Y-86112367D01*
X160594526Y-85626186D01*
X160708600Y-85052697D01*
X160708600Y-83647303D01*
X160594526Y-83073814D01*
X160269670Y-82587633D01*
X159970000Y-82387400D01*
X159970000Y-73612600D01*
X160269670Y-73412367D01*
X160594526Y-72926186D01*
X160708600Y-72352697D01*
X160708600Y-70947303D01*
X160594526Y-70373814D01*
X160269670Y-69887633D01*
X159783489Y-69562777D01*
X159210000Y-69448703D01*
X158636511Y-69562777D01*
X158150330Y-69887633D01*
X157825474Y-70373814D01*
X157711400Y-70947303D01*
X157711400Y-72352697D01*
X157825474Y-72926186D01*
X158150330Y-73412367D01*
X158450000Y-73612600D01*
X158450000Y-82387400D01*
X158150330Y-82587633D01*
X157825474Y-83073814D01*
X157711400Y-83647303D01*
X157711400Y-85052697D01*
X157825474Y-85626186D01*
X158150330Y-86112367D01*
X158341346Y-86240000D01*
X152564802Y-86240000D01*
X150137401Y-83812599D01*
X149890839Y-83647852D01*
X149600000Y-83590000D01*
X149027202Y-83590000D01*
X148924526Y-83073814D01*
X148599670Y-82587633D01*
X148113489Y-82262777D01*
X147540000Y-82148703D01*
X147484538Y-82159735D01*
X147010000Y-81685198D01*
X147010000Y-73745873D01*
X147540000Y-73851297D01*
X148113489Y-73737223D01*
X148599670Y-73412367D01*
X148924526Y-72926186D01*
X149038600Y-72352697D01*
X149038600Y-70947303D01*
X148924526Y-70373814D01*
X148599670Y-69887633D01*
X148113489Y-69562777D01*
X147540000Y-69448703D01*
X146966511Y-69562777D01*
X146703391Y-69738589D01*
X144627401Y-67662599D01*
X144380839Y-67497852D01*
X144090000Y-67440000D01*
X140640757Y-67440000D01*
X140614090Y-67398559D01*
X140401890Y-67253569D01*
X140368510Y-67246809D01*
X140509699Y-67188327D01*
X140688327Y-67009698D01*
X140785000Y-66776309D01*
X140785000Y-66585750D01*
X140626250Y-66427000D01*
X139627000Y-66427000D01*
X139627000Y-66447000D01*
X139373000Y-66447000D01*
X139373000Y-66427000D01*
X138373750Y-66427000D01*
X138215000Y-66585750D01*
X138215000Y-66776309D01*
X138311673Y-67009698D01*
X138490301Y-67188327D01*
X138626287Y-67244654D01*
X138614683Y-67246838D01*
X138398559Y-67385910D01*
X138253569Y-67598110D01*
X138202560Y-67850000D01*
X138202560Y-68550000D01*
X138246838Y-68785317D01*
X138385910Y-69001441D01*
X138598110Y-69146431D01*
X138850000Y-69197440D01*
X140150000Y-69197440D01*
X140385317Y-69153162D01*
X140601441Y-69014090D01*
X140638399Y-68960000D01*
X143775198Y-68960000D01*
X146041400Y-71226202D01*
X146041400Y-72073798D01*
X145712599Y-72402599D01*
X145547852Y-72649161D01*
X145490000Y-72940000D01*
X145490000Y-82000000D01*
X145547852Y-82290839D01*
X145712599Y-82537401D01*
X146192940Y-83017742D01*
X146155474Y-83073814D01*
X146041400Y-83647303D01*
X146041400Y-85052697D01*
X146155474Y-85626186D01*
X146480330Y-86112367D01*
X146966511Y-86437223D01*
X147540000Y-86551297D01*
X148113489Y-86437223D01*
X148599670Y-86112367D01*
X148924526Y-85626186D01*
X149027202Y-85110000D01*
X149285198Y-85110000D01*
X151165198Y-86990000D01*
X140814802Y-86990000D01*
X137637401Y-83812599D01*
X137390839Y-83647852D01*
X137100000Y-83590000D01*
X132527202Y-83590000D01*
X132424526Y-83073814D01*
X132099670Y-82587633D01*
X131613489Y-82262777D01*
X131040000Y-82148703D01*
X130510000Y-82254127D01*
X130510000Y-73745873D01*
X131040000Y-73851297D01*
X131613489Y-73737223D01*
X132099670Y-73412367D01*
X132424526Y-72926186D01*
X132538600Y-72352697D01*
X132538600Y-70947303D01*
X140961400Y-70947303D01*
X140961400Y-72352697D01*
X141075474Y-72926186D01*
X141400330Y-73412367D01*
X141700000Y-73612600D01*
X141700000Y-82387400D01*
X141400330Y-82587633D01*
X141075474Y-83073814D01*
X140961400Y-83647303D01*
X140961400Y-85052697D01*
X141075474Y-85626186D01*
X141400330Y-86112367D01*
X141886511Y-86437223D01*
X142460000Y-86551297D01*
X143033489Y-86437223D01*
X143519670Y-86112367D01*
X143844526Y-85626186D01*
X143958600Y-85052697D01*
X143958600Y-83647303D01*
X143844526Y-83073814D01*
X143519670Y-82587633D01*
X143220000Y-82387400D01*
X143220000Y-73612600D01*
X143519670Y-73412367D01*
X143844526Y-72926186D01*
X143958600Y-72352697D01*
X143958600Y-70947303D01*
X143844526Y-70373814D01*
X143519670Y-69887633D01*
X143033489Y-69562777D01*
X142460000Y-69448703D01*
X141886511Y-69562777D01*
X141400330Y-69887633D01*
X141075474Y-70373814D01*
X140961400Y-70947303D01*
X132538600Y-70947303D01*
X132424526Y-70373814D01*
X132099670Y-69887633D01*
X131613489Y-69562777D01*
X131040000Y-69448703D01*
X130466511Y-69562777D01*
X130203391Y-69738589D01*
X128927401Y-68462599D01*
X128680839Y-68297852D01*
X128390000Y-68240000D01*
X124314802Y-68240000D01*
X124297440Y-68222638D01*
X124297440Y-67850000D01*
X124253162Y-67614683D01*
X124114090Y-67398559D01*
X123901890Y-67253569D01*
X123868510Y-67246809D01*
X124009699Y-67188327D01*
X124188327Y-67009698D01*
X124285000Y-66776309D01*
X124285000Y-66585750D01*
X124126250Y-66427000D01*
X123127000Y-66427000D01*
X123127000Y-66447000D01*
X122873000Y-66447000D01*
X122873000Y-66427000D01*
X121873750Y-66427000D01*
X121715000Y-66585750D01*
X121715000Y-66776309D01*
X121811673Y-67009698D01*
X121990301Y-67188327D01*
X122126287Y-67244654D01*
X122114683Y-67246838D01*
X121898559Y-67385910D01*
X121753569Y-67598110D01*
X121702560Y-67850000D01*
X121702560Y-68550000D01*
X121746838Y-68785317D01*
X121885910Y-69001441D01*
X122098110Y-69146431D01*
X122350000Y-69197440D01*
X123122638Y-69197440D01*
X123462599Y-69537401D01*
X123709161Y-69702148D01*
X124000000Y-69760000D01*
X125091346Y-69760000D01*
X124900330Y-69887633D01*
X124575474Y-70373814D01*
X124461400Y-70947303D01*
X124461400Y-72352697D01*
X124575474Y-72926186D01*
X124900330Y-73412367D01*
X125200000Y-73612600D01*
X125200000Y-82387400D01*
X124900330Y-82587633D01*
X124575474Y-83073814D01*
X124461400Y-83647303D01*
X124461400Y-85052697D01*
X124575474Y-85626186D01*
X124900330Y-86112367D01*
X125386511Y-86437223D01*
X125960000Y-86551297D01*
X126390803Y-86465605D01*
X126915198Y-86990000D01*
X123314802Y-86990000D01*
X121010000Y-84685198D01*
X121010000Y-65823691D01*
X121715000Y-65823691D01*
X121715000Y-66014250D01*
X121873750Y-66173000D01*
X122873000Y-66173000D01*
X122873000Y-65473750D01*
X123127000Y-65473750D01*
X123127000Y-66173000D01*
X124126250Y-66173000D01*
X124285000Y-66014250D01*
X124285000Y-65823691D01*
X124188327Y-65590302D01*
X124126198Y-65528172D01*
X124332538Y-65528172D01*
X124737709Y-66508761D01*
X125487293Y-67259655D01*
X126467173Y-67666536D01*
X127528172Y-67667462D01*
X128508761Y-67262291D01*
X129259655Y-66512707D01*
X129545758Y-65823691D01*
X138215000Y-65823691D01*
X138215000Y-66014250D01*
X138373750Y-66173000D01*
X139373000Y-66173000D01*
X139373000Y-65473750D01*
X139627000Y-65473750D01*
X139627000Y-66173000D01*
X140626250Y-66173000D01*
X140785000Y-66014250D01*
X140785000Y-65823691D01*
X154715000Y-65823691D01*
X154715000Y-66014250D01*
X154873750Y-66173000D01*
X155873000Y-66173000D01*
X155873000Y-65473750D01*
X156127000Y-65473750D01*
X156127000Y-66173000D01*
X157126250Y-66173000D01*
X157285000Y-66014250D01*
X157285000Y-65823691D01*
X157188327Y-65590302D01*
X157009699Y-65411673D01*
X156776310Y-65315000D01*
X156285750Y-65315000D01*
X156127000Y-65473750D01*
X155873000Y-65473750D01*
X155714250Y-65315000D01*
X155223690Y-65315000D01*
X154990301Y-65411673D01*
X154811673Y-65590302D01*
X154715000Y-65823691D01*
X140785000Y-65823691D01*
X140688327Y-65590302D01*
X140509699Y-65411673D01*
X140276310Y-65315000D01*
X139785750Y-65315000D01*
X139627000Y-65473750D01*
X139373000Y-65473750D01*
X139214250Y-65315000D01*
X138723690Y-65315000D01*
X138490301Y-65411673D01*
X138311673Y-65590302D01*
X138215000Y-65823691D01*
X129545758Y-65823691D01*
X129666536Y-65532827D01*
X129667462Y-64471828D01*
X129262291Y-63491239D01*
X128512707Y-62740345D01*
X127532827Y-62333464D01*
X126471828Y-62332538D01*
X125491239Y-62737709D01*
X124740345Y-63487293D01*
X124333464Y-64467173D01*
X124332538Y-65528172D01*
X124126198Y-65528172D01*
X124009699Y-65411673D01*
X123776310Y-65315000D01*
X123285750Y-65315000D01*
X123127000Y-65473750D01*
X122873000Y-65473750D01*
X122714250Y-65315000D01*
X122223690Y-65315000D01*
X121990301Y-65411673D01*
X121811673Y-65590302D01*
X121715000Y-65823691D01*
X121010000Y-65823691D01*
X121010000Y-55000000D01*
X120952148Y-54709161D01*
X120787401Y-54462599D01*
X120540839Y-54297852D01*
X120250000Y-54240000D01*
X119300944Y-54240000D01*
X119293117Y-54221057D01*
X119030327Y-53957808D01*
X118686799Y-53815162D01*
X118314833Y-53814838D01*
X117971057Y-53956883D01*
X117707808Y-54219673D01*
X117565162Y-54563201D01*
X117564838Y-54935167D01*
X112710000Y-54935167D01*
X112710000Y-51710000D01*
X210290000Y-51710000D01*
X210290000Y-149290000D01*
X210290000Y-149290000D01*
G37*
X210290000Y-149290000D02*
X112710000Y-149290000D01*
X112710000Y-141985167D01*
X117864838Y-141985167D01*
X118006883Y-142328943D01*
X118269673Y-142592192D01*
X118613201Y-142734838D01*
X118985167Y-142735162D01*
X119328943Y-142593117D01*
X119337074Y-142585000D01*
X161800000Y-142585000D01*
X162100407Y-142525245D01*
X162355079Y-142355079D01*
X163255079Y-141455079D01*
X163425245Y-141200407D01*
X163485000Y-140900000D01*
X163485000Y-135528172D01*
X193332538Y-135528172D01*
X193737709Y-136508761D01*
X194487293Y-137259655D01*
X195467173Y-137666536D01*
X196528172Y-137667462D01*
X197508761Y-137262291D01*
X198259655Y-136512707D01*
X198666536Y-135532827D01*
X198667462Y-134471828D01*
X198262291Y-133491239D01*
X197512707Y-132740345D01*
X196532827Y-132333464D01*
X195471828Y-132332538D01*
X194491239Y-132737709D01*
X193740345Y-133487293D01*
X193333464Y-134467173D01*
X193332538Y-135528172D01*
X163485000Y-135528172D01*
X163485000Y-132625158D01*
X164175005Y-131935153D01*
X164185167Y-131935162D01*
X164528943Y-131793117D01*
X164792192Y-131530327D01*
X164934838Y-131186799D01*
X164935162Y-130814833D01*
X164793117Y-130471057D01*
X164530327Y-130207808D01*
X164186799Y-130065162D01*
X163814833Y-130064838D01*
X163471057Y-130206883D01*
X163207808Y-130469673D01*
X163065162Y-130813201D01*
X163065152Y-130824690D01*
X162144921Y-131744921D01*
X161974755Y-131999593D01*
X161974755Y-131999594D01*
X161915000Y-132300000D01*
X161915000Y-140574842D01*
X161474842Y-141015000D01*
X119337506Y-141015000D01*
X119330327Y-141007808D01*
X118986799Y-140865162D01*
X118614833Y-140864838D01*
X118271057Y-141006883D01*
X118007808Y-141269673D01*
X117865162Y-141613201D01*
X117864838Y-141985167D01*
X112710000Y-141985167D01*
X112710000Y-135528172D01*
X124332538Y-135528172D01*
X124737709Y-136508761D01*
X125487293Y-137259655D01*
X126467173Y-137666536D01*
X127528172Y-137667462D01*
X128508761Y-137262291D01*
X129259655Y-136512707D01*
X129666536Y-135532827D01*
X129667462Y-134471828D01*
X129262291Y-133491239D01*
X128512707Y-132740345D01*
X127532827Y-132333464D01*
X126471828Y-132332538D01*
X125491239Y-132737709D01*
X124740345Y-133487293D01*
X124333464Y-134467173D01*
X124332538Y-135528172D01*
X112710000Y-135528172D01*
X112710000Y-119127000D01*
X125071890Y-119127000D01*
X125071890Y-119881380D01*
X125226154Y-120402919D01*
X125568260Y-120825724D01*
X126046125Y-121085427D01*
X126118326Y-121099783D01*
X126333000Y-120977162D01*
X126333000Y-119127000D01*
X125071890Y-119127000D01*
X112710000Y-119127000D01*
X112710000Y-118118620D01*
X125071890Y-118118620D01*
X125071890Y-118873000D01*
X126333000Y-118873000D01*
X126333000Y-117022838D01*
X126587000Y-117022838D01*
X126587000Y-118873000D01*
X126607000Y-118873000D01*
X126607000Y-119127000D01*
X126587000Y-119127000D01*
X126587000Y-120977162D01*
X126801674Y-121099783D01*
X126873875Y-121085427D01*
X127351740Y-120825724D01*
X127693846Y-120402919D01*
X127716984Y-120324694D01*
X127717554Y-120327561D01*
X128018458Y-120777896D01*
X128468793Y-121078800D01*
X129000000Y-121184464D01*
X129531207Y-121078800D01*
X129981542Y-120777896D01*
X130144454Y-120534081D01*
X130183728Y-120742807D01*
X130322800Y-120958931D01*
X130535000Y-121103921D01*
X130786890Y-121154930D01*
X132293110Y-121154930D01*
X132528427Y-121110652D01*
X132744551Y-120971580D01*
X132889541Y-120759380D01*
X132940550Y-120507490D01*
X132940550Y-117492510D01*
X132896272Y-117257193D01*
X132757200Y-117041069D01*
X132545000Y-116896079D01*
X132293110Y-116845070D01*
X130786890Y-116845070D01*
X130551573Y-116889348D01*
X130335449Y-117028420D01*
X130190459Y-117240620D01*
X130144746Y-117466357D01*
X129981542Y-117222104D01*
X129531207Y-116921200D01*
X129000000Y-116815536D01*
X128468793Y-116921200D01*
X128018458Y-117222104D01*
X127717554Y-117672439D01*
X127716984Y-117675306D01*
X127693846Y-117597081D01*
X127351740Y-117174276D01*
X126873875Y-116914573D01*
X126801674Y-116900217D01*
X126587000Y-117022838D01*
X126333000Y-117022838D01*
X126118326Y-116900217D01*
X126046125Y-116914573D01*
X125568260Y-117174276D01*
X125226154Y-117597081D01*
X125071890Y-118118620D01*
X112710000Y-118118620D01*
X112710000Y-54935167D01*
X117564838Y-54935167D01*
X117706883Y-55278943D01*
X117969673Y-55542192D01*
X118313201Y-55684838D01*
X118433410Y-55684943D01*
X118459160Y-55702148D01*
X118750000Y-55760000D01*
X119490000Y-55760000D01*
X119490000Y-85000000D01*
X119547852Y-85290839D01*
X119712599Y-85537401D01*
X122462599Y-88287401D01*
X122709160Y-88452148D01*
X123000000Y-88510000D01*
X138685198Y-88510000D01*
X149962599Y-99787401D01*
X150209161Y-99952148D01*
X150500000Y-100010000D01*
X158187537Y-100010000D01*
X158219673Y-100042192D01*
X158563201Y-100184838D01*
X158935167Y-100185162D01*
X159278943Y-100043117D01*
X159542192Y-99780327D01*
X159684838Y-99436799D01*
X159685162Y-99064833D01*
X159543117Y-98721057D01*
X159280327Y-98457808D01*
X158936799Y-98315162D01*
X158564833Y-98314838D01*
X158221057Y-98456883D01*
X158187882Y-98490000D01*
X150814802Y-98490000D01*
X140834802Y-88510000D01*
X161837253Y-88510000D01*
X161815162Y-88563201D01*
X161814838Y-88935167D01*
X161956883Y-89278943D01*
X161990000Y-89312118D01*
X161990000Y-98500000D01*
X162047852Y-98790839D01*
X162212599Y-99037401D01*
X166028394Y-102853196D01*
X165936799Y-102815162D01*
X165564833Y-102814838D01*
X165221057Y-102956883D01*
X164957808Y-103219673D01*
X164815162Y-103563201D01*
X164814838Y-103935167D01*
X164956883Y-104278943D01*
X165219673Y-104542192D01*
X165490000Y-104654442D01*
X165490000Y-111287739D01*
X165250000Y-111240000D01*
X164314802Y-111240000D01*
X164010000Y-110935198D01*
X164010000Y-105750000D01*
X164002560Y-105712599D01*
X163952148Y-105459160D01*
X163787401Y-105212599D01*
X163435122Y-104860320D01*
X163435162Y-104814833D01*
X163293117Y-104471057D01*
X163030327Y-104207808D01*
X162686799Y-104065162D01*
X162314833Y-104064838D01*
X162260000Y-104087494D01*
X162260000Y-104064802D01*
X162389680Y-103935122D01*
X162435167Y-103935162D01*
X162778943Y-103793117D01*
X163042192Y-103530327D01*
X163184838Y-103186799D01*
X163185162Y-102814833D01*
X163043117Y-102471057D01*
X162780327Y-102207808D01*
X162488268Y-102086534D01*
X162639897Y-101934905D01*
X162935167Y-101935162D01*
X163278943Y-101793117D01*
X163542192Y-101530327D01*
X163684838Y-101186799D01*
X163685162Y-100814833D01*
X163543117Y-100471057D01*
X163280327Y-100207808D01*
X162936799Y-100065162D01*
X162564833Y-100064838D01*
X162221057Y-100206883D01*
X161969541Y-100457961D01*
X161962599Y-100462599D01*
X159962599Y-102462599D01*
X159797852Y-102709161D01*
X159740000Y-103000000D01*
X159740000Y-105750000D01*
X159797852Y-106040839D01*
X159962599Y-106287401D01*
X160490000Y-106814802D01*
X160490000Y-111500000D01*
X160547852Y-111790839D01*
X160712599Y-112037401D01*
X163240000Y-114564802D01*
X163240000Y-114685198D01*
X163185198Y-114740000D01*
X161750000Y-114740000D01*
X161459161Y-114797852D01*
X161212599Y-114962599D01*
X161110320Y-115064878D01*
X161064833Y-115064838D01*
X160721057Y-115206883D01*
X160457808Y-115469673D01*
X160315162Y-115813201D01*
X160314838Y-116185167D01*
X160456883Y-116528943D01*
X160719673Y-116792192D01*
X161063201Y-116934838D01*
X161435167Y-116935162D01*
X161778943Y-116793117D01*
X162042192Y-116530327D01*
X162154442Y-116260000D01*
X163500000Y-116260000D01*
X163790839Y-116202148D01*
X163990000Y-116069073D01*
X163990000Y-117435198D01*
X163435198Y-117990000D01*
X158750000Y-117990000D01*
X158459161Y-118047852D01*
X158212599Y-118212599D01*
X156212599Y-120212599D01*
X156047852Y-120459161D01*
X155990000Y-120750000D01*
X155990000Y-137000000D01*
X156047852Y-137290839D01*
X156212599Y-137537401D01*
X157842599Y-139167401D01*
X158089161Y-139332148D01*
X158380000Y-139390000D01*
X158987046Y-139390000D01*
X159180853Y-139680054D01*
X159662622Y-140001961D01*
X160230907Y-140115000D01*
X160289093Y-140115000D01*
X160857378Y-140001961D01*
X161339147Y-139680054D01*
X161661054Y-139198285D01*
X161774093Y-138630000D01*
X161661054Y-138061715D01*
X161339147Y-137579946D01*
X161009974Y-137360000D01*
X161339147Y-137140054D01*
X161661054Y-136658285D01*
X161774093Y-136090000D01*
X161661054Y-135521715D01*
X161339147Y-135039946D01*
X161009974Y-134820000D01*
X161339147Y-134600054D01*
X161661054Y-134118285D01*
X161774093Y-133550000D01*
X161661054Y-132981715D01*
X161339147Y-132499946D01*
X160998447Y-132272298D01*
X161141358Y-132205183D01*
X161531645Y-131776924D01*
X161701476Y-131366890D01*
X161580155Y-131137000D01*
X160387000Y-131137000D01*
X160387000Y-131157000D01*
X160133000Y-131157000D01*
X160133000Y-131137000D01*
X160113000Y-131137000D01*
X160113000Y-130883000D01*
X160133000Y-130883000D01*
X160133000Y-130863000D01*
X160387000Y-130863000D01*
X160387000Y-130883000D01*
X161580155Y-130883000D01*
X161701476Y-130653110D01*
X161531645Y-130243076D01*
X161255499Y-129940063D01*
X161345317Y-129923162D01*
X161561441Y-129784090D01*
X161706431Y-129571890D01*
X161757440Y-129320000D01*
X161757440Y-127620000D01*
X161713162Y-127384683D01*
X161574090Y-127168559D01*
X161361890Y-127023569D01*
X161110000Y-126972560D01*
X160962824Y-126972560D01*
X160962148Y-126969161D01*
X160797401Y-126722599D01*
X159760000Y-125685198D01*
X159760000Y-122314802D01*
X160314802Y-121760000D01*
X166000000Y-121760000D01*
X166290839Y-121702148D01*
X166537401Y-121537401D01*
X168314802Y-119760000D01*
X202000000Y-119760000D01*
X202290839Y-119702148D01*
X202537401Y-119537401D01*
X203977401Y-118097401D01*
X204142148Y-117850839D01*
X204172941Y-117696035D01*
X204490054Y-117484147D01*
X204710000Y-117154974D01*
X204929946Y-117484147D01*
X205411715Y-117806054D01*
X205980000Y-117919093D01*
X206548285Y-117806054D01*
X207030054Y-117484147D01*
X207351961Y-117002378D01*
X207465000Y-116434093D01*
X207465000Y-116375907D01*
X207351961Y-115807622D01*
X207030054Y-115325853D01*
X206548285Y-115003946D01*
X205980000Y-114890907D01*
X205411715Y-115003946D01*
X204929946Y-115325853D01*
X204710000Y-115655026D01*
X204490054Y-115325853D01*
X204008285Y-115003946D01*
X203440000Y-114890907D01*
X202871715Y-115003946D01*
X202389946Y-115325853D01*
X202170000Y-115655026D01*
X201950054Y-115325853D01*
X201468285Y-115003946D01*
X200900000Y-114890907D01*
X200331715Y-115003946D01*
X199849946Y-115325853D01*
X199630000Y-115655026D01*
X199410054Y-115325853D01*
X198928285Y-115003946D01*
X198360000Y-114890907D01*
X197791715Y-115003946D01*
X197309946Y-115325853D01*
X197090000Y-115655026D01*
X196870054Y-115325853D01*
X196388285Y-115003946D01*
X195820000Y-114890907D01*
X195251715Y-115003946D01*
X194769946Y-115325853D01*
X194550000Y-115655026D01*
X194330054Y-115325853D01*
X193848285Y-115003946D01*
X193280000Y-114890907D01*
X192711715Y-115003946D01*
X192229946Y-115325853D01*
X192010000Y-115655026D01*
X191790054Y-115325853D01*
X191308285Y-115003946D01*
X190740000Y-114890907D01*
X190171715Y-115003946D01*
X189689946Y-115325853D01*
X189470000Y-115655026D01*
X189250054Y-115325853D01*
X188768285Y-115003946D01*
X188200000Y-114890907D01*
X187631715Y-115003946D01*
X187149946Y-115325853D01*
X186930000Y-115655026D01*
X186710054Y-115325853D01*
X186228285Y-115003946D01*
X185660000Y-114890907D01*
X185091715Y-115003946D01*
X184609946Y-115325853D01*
X184390000Y-115655026D01*
X184170054Y-115325853D01*
X183688285Y-115003946D01*
X183120000Y-114890907D01*
X182551715Y-115003946D01*
X182069946Y-115325853D01*
X181850000Y-115655026D01*
X181630054Y-115325853D01*
X181148285Y-115003946D01*
X180580000Y-114890907D01*
X180011715Y-115003946D01*
X179529946Y-115325853D01*
X179310000Y-115655026D01*
X179090054Y-115325853D01*
X178800000Y-115132046D01*
X178800000Y-106290000D01*
X178750438Y-106040839D01*
X178742148Y-105999160D01*
X178577401Y-105752599D01*
X176037401Y-103212599D01*
X175790839Y-103047852D01*
X175500000Y-102990000D01*
X168314802Y-102990000D01*
X166471606Y-101146804D01*
X166563201Y-101184838D01*
X166935167Y-101185162D01*
X167278943Y-101043117D01*
X167542192Y-100780327D01*
X167684838Y-100436799D01*
X167684879Y-100389923D01*
X168064802Y-100010000D01*
X169009857Y-100010000D01*
X168973569Y-100063110D01*
X168922560Y-100315000D01*
X168922560Y-102015000D01*
X168966838Y-102250317D01*
X169105910Y-102466441D01*
X169318110Y-102611431D01*
X169570000Y-102662440D01*
X171270000Y-102662440D01*
X171505317Y-102618162D01*
X171721441Y-102479090D01*
X171866431Y-102266890D01*
X171880086Y-102199459D01*
X171909946Y-102244147D01*
X172391715Y-102566054D01*
X172960000Y-102679093D01*
X173528285Y-102566054D01*
X174010054Y-102244147D01*
X174230000Y-101914974D01*
X174449946Y-102244147D01*
X174931715Y-102566054D01*
X175500000Y-102679093D01*
X176068285Y-102566054D01*
X176550054Y-102244147D01*
X176777702Y-101903447D01*
X176844817Y-102046358D01*
X177273076Y-102436645D01*
X177683110Y-102606476D01*
X177913000Y-102485155D01*
X177913000Y-101292000D01*
X177893000Y-101292000D01*
X177893000Y-101038000D01*
X177913000Y-101038000D01*
X177913000Y-101018000D01*
X178167000Y-101018000D01*
X178167000Y-101038000D01*
X178187000Y-101038000D01*
X178187000Y-101292000D01*
X178167000Y-101292000D01*
X178167000Y-102485155D01*
X178396890Y-102606476D01*
X178806924Y-102436645D01*
X179235183Y-102046358D01*
X179302298Y-101903447D01*
X179529946Y-102244147D01*
X180011715Y-102566054D01*
X180580000Y-102679093D01*
X181148285Y-102566054D01*
X181630054Y-102244147D01*
X181850000Y-101914974D01*
X182069946Y-102244147D01*
X182551715Y-102566054D01*
X183120000Y-102679093D01*
X183688285Y-102566054D01*
X184170054Y-102244147D01*
X184390000Y-101914974D01*
X184609946Y-102244147D01*
X185091715Y-102566054D01*
X185660000Y-102679093D01*
X186228285Y-102566054D01*
X186710054Y-102244147D01*
X186930000Y-101914974D01*
X187149946Y-102244147D01*
X187631715Y-102566054D01*
X188200000Y-102679093D01*
X188768285Y-102566054D01*
X189250054Y-102244147D01*
X189470000Y-101914974D01*
X189689946Y-102244147D01*
X190171715Y-102566054D01*
X190740000Y-102679093D01*
X191308285Y-102566054D01*
X191790054Y-102244147D01*
X192010000Y-101914974D01*
X192229946Y-102244147D01*
X192711715Y-102566054D01*
X193280000Y-102679093D01*
X193564893Y-102622424D01*
X193564838Y-102685167D01*
X193706883Y-103028943D01*
X193969673Y-103292192D01*
X194313201Y-103434838D01*
X194360077Y-103434879D01*
X195212599Y-104287401D01*
X195459161Y-104452148D01*
X195750000Y-104510000D01*
X200855000Y-104510000D01*
X201145839Y-104452148D01*
X201392401Y-104287401D01*
X203073592Y-102606210D01*
X203440000Y-102679093D01*
X204008285Y-102566054D01*
X204490054Y-102244147D01*
X204710000Y-101914974D01*
X204929946Y-102244147D01*
X205411715Y-102566054D01*
X205980000Y-102679093D01*
X206548285Y-102566054D01*
X207030054Y-102244147D01*
X207351961Y-101762378D01*
X207465000Y-101194093D01*
X207465000Y-101135907D01*
X207351961Y-100567622D01*
X207030054Y-100085853D01*
X206548285Y-99763946D01*
X205980000Y-99650907D01*
X205411715Y-99763946D01*
X204929946Y-100085853D01*
X204710000Y-100415026D01*
X204490054Y-100085853D01*
X204008285Y-99763946D01*
X203440000Y-99650907D01*
X202871715Y-99763946D01*
X202389946Y-100085853D01*
X202170000Y-100415026D01*
X201950054Y-100085853D01*
X201468285Y-99763946D01*
X200900000Y-99650907D01*
X200331715Y-99763946D01*
X199849946Y-100085853D01*
X199630000Y-100415026D01*
X199410054Y-100085853D01*
X198928285Y-99763946D01*
X198360000Y-99650907D01*
X197791715Y-99763946D01*
X197309946Y-100085853D01*
X197090000Y-100415026D01*
X196870054Y-100085853D01*
X196580000Y-99892046D01*
X196580000Y-99070000D01*
X196522148Y-98779161D01*
X196522148Y-98779160D01*
X196357401Y-98532599D01*
X195010000Y-97185198D01*
X195010000Y-96185167D01*
X198064838Y-96185167D01*
X198206883Y-96528943D01*
X198469673Y-96792192D01*
X198813201Y-96934838D01*
X199185167Y-96935162D01*
X199528943Y-96793117D01*
X199792192Y-96530327D01*
X199934838Y-96186799D01*
X199934848Y-96175310D01*
X201555079Y-94555079D01*
X201725245Y-94300407D01*
X201785000Y-94000000D01*
X201785000Y-92537506D01*
X201792192Y-92530327D01*
X201934838Y-92186799D01*
X201935162Y-91814833D01*
X201793117Y-91471057D01*
X201530327Y-91207808D01*
X201186799Y-91065162D01*
X200814833Y-91064838D01*
X200471057Y-91206883D01*
X200207808Y-91469673D01*
X200065162Y-91813201D01*
X200064838Y-92185167D01*
X200206883Y-92528943D01*
X200215000Y-92537074D01*
X200215000Y-93674842D01*
X198824995Y-95064847D01*
X198814833Y-95064838D01*
X198471057Y-95206883D01*
X198207808Y-95469673D01*
X198065162Y-95813201D01*
X198064838Y-96185167D01*
X195010000Y-96185167D01*
X195010000Y-90000000D01*
X194952148Y-89709161D01*
X194787401Y-89462599D01*
X194670552Y-89345750D01*
X195405000Y-89345750D01*
X195405000Y-90036310D01*
X195501673Y-90269699D01*
X195680302Y-90448327D01*
X195913691Y-90545000D01*
X196604250Y-90545000D01*
X196763000Y-90386250D01*
X196763000Y-89187000D01*
X197017000Y-89187000D01*
X197017000Y-90386250D01*
X197175750Y-90545000D01*
X197866309Y-90545000D01*
X198099698Y-90448327D01*
X198278327Y-90269699D01*
X198375000Y-90036310D01*
X198375000Y-89345750D01*
X198216250Y-89187000D01*
X197017000Y-89187000D01*
X196763000Y-89187000D01*
X195563750Y-89187000D01*
X195405000Y-89345750D01*
X194670552Y-89345750D01*
X189137401Y-83812599D01*
X188890839Y-83647852D01*
X188600000Y-83590000D01*
X165777202Y-83590000D01*
X165674526Y-83073814D01*
X165349670Y-82587633D01*
X164863489Y-82262777D01*
X164519071Y-82194268D01*
X163760000Y-81435198D01*
X163760000Y-78900000D01*
X195375907Y-78900000D01*
X195488946Y-79468285D01*
X195810853Y-79950054D01*
X196140026Y-80170000D01*
X195810853Y-80389946D01*
X195488946Y-80871715D01*
X195375907Y-81440000D01*
X195488946Y-82008285D01*
X195810853Y-82490054D01*
X196140026Y-82710000D01*
X195810853Y-82929946D01*
X195488946Y-83411715D01*
X195375907Y-83980000D01*
X195488946Y-84548285D01*
X195810853Y-85030054D01*
X196140026Y-85250000D01*
X195810853Y-85469946D01*
X195488946Y-85951715D01*
X195375907Y-86520000D01*
X195488946Y-87088285D01*
X195810853Y-87570054D01*
X195854777Y-87599403D01*
X195680302Y-87671673D01*
X195501673Y-87850301D01*
X195405000Y-88083690D01*
X195405000Y-88774250D01*
X195563750Y-88933000D01*
X196763000Y-88933000D01*
X196763000Y-88913000D01*
X197017000Y-88913000D01*
X197017000Y-88933000D01*
X198216250Y-88933000D01*
X198375000Y-88774250D01*
X198375000Y-88083690D01*
X198278327Y-87850301D01*
X198099698Y-87671673D01*
X197925223Y-87599403D01*
X197969147Y-87570054D01*
X198291054Y-87088285D01*
X198404093Y-86520000D01*
X198291054Y-85951715D01*
X197969147Y-85469946D01*
X197639974Y-85250000D01*
X197969147Y-85030054D01*
X198291054Y-84548285D01*
X198404093Y-83980000D01*
X198291054Y-83411715D01*
X197969147Y-82929946D01*
X197639974Y-82710000D01*
X197969147Y-82490054D01*
X198291054Y-82008285D01*
X198404093Y-81440000D01*
X198291054Y-80871715D01*
X197969147Y-80389946D01*
X197639974Y-80170000D01*
X197969147Y-79950054D01*
X198291054Y-79468285D01*
X198404093Y-78900000D01*
X198291054Y-78331715D01*
X197969147Y-77849946D01*
X197487378Y-77528039D01*
X196919093Y-77415000D01*
X196860907Y-77415000D01*
X196292622Y-77528039D01*
X195810853Y-77849946D01*
X195488946Y-78331715D01*
X195375907Y-78900000D01*
X163760000Y-78900000D01*
X163760000Y-75935167D01*
X191314838Y-75935167D01*
X191456883Y-76278943D01*
X191719673Y-76542192D01*
X192063201Y-76684838D01*
X192435167Y-76685162D01*
X192778943Y-76543117D01*
X192787074Y-76535000D01*
X202212494Y-76535000D01*
X202219673Y-76542192D01*
X202563201Y-76684838D01*
X202935167Y-76685162D01*
X203278943Y-76543117D01*
X203542192Y-76280327D01*
X203684838Y-75936799D01*
X203685162Y-75564833D01*
X203543117Y-75221057D01*
X203280327Y-74957808D01*
X202936799Y-74815162D01*
X202564833Y-74814838D01*
X202221057Y-74956883D01*
X202212926Y-74965000D01*
X192787506Y-74965000D01*
X192780327Y-74957808D01*
X192436799Y-74815162D01*
X192064833Y-74814838D01*
X191721057Y-74956883D01*
X191457808Y-75219673D01*
X191315162Y-75563201D01*
X191314838Y-75935167D01*
X163760000Y-75935167D01*
X163760000Y-73745873D01*
X164290000Y-73851297D01*
X164863489Y-73737223D01*
X165349670Y-73412367D01*
X165674526Y-72926186D01*
X165788600Y-72352697D01*
X165788600Y-70947303D01*
X165674526Y-70373814D01*
X165349670Y-69887633D01*
X164863489Y-69562777D01*
X164290000Y-69448703D01*
X163716511Y-69562777D01*
X163453391Y-69738589D01*
X161377401Y-67662599D01*
X161130839Y-67497852D01*
X160840000Y-67440000D01*
X157140757Y-67440000D01*
X157114090Y-67398559D01*
X156901890Y-67253569D01*
X156868510Y-67246809D01*
X157009699Y-67188327D01*
X157188327Y-67009698D01*
X157285000Y-66776309D01*
X157285000Y-66585750D01*
X157227422Y-66528172D01*
X193332538Y-66528172D01*
X193737709Y-67508761D01*
X194487293Y-68259655D01*
X195467173Y-68666536D01*
X196528172Y-68667462D01*
X197508761Y-68262291D01*
X198259655Y-67512707D01*
X198666536Y-66532827D01*
X198667462Y-65471828D01*
X198262291Y-64491239D01*
X197512707Y-63740345D01*
X196532827Y-63333464D01*
X195471828Y-63332538D01*
X194491239Y-63737709D01*
X193740345Y-64487293D01*
X193333464Y-65467173D01*
X193332538Y-66528172D01*
X157227422Y-66528172D01*
X157126250Y-66427000D01*
X156127000Y-66427000D01*
X156127000Y-66447000D01*
X155873000Y-66447000D01*
X155873000Y-66427000D01*
X154873750Y-66427000D01*
X154715000Y-66585750D01*
X154715000Y-66776309D01*
X154811673Y-67009698D01*
X154990301Y-67188327D01*
X155126287Y-67244654D01*
X155114683Y-67246838D01*
X154898559Y-67385910D01*
X154753569Y-67598110D01*
X154702560Y-67850000D01*
X154702560Y-68550000D01*
X154746838Y-68785317D01*
X154885910Y-69001441D01*
X155098110Y-69146431D01*
X155350000Y-69197440D01*
X156650000Y-69197440D01*
X156885317Y-69153162D01*
X157101441Y-69014090D01*
X157138399Y-68960000D01*
X160525198Y-68960000D01*
X162791400Y-71226202D01*
X162791400Y-72073798D01*
X162462599Y-72402599D01*
X162297852Y-72649161D01*
X162240000Y-72940000D01*
X162240000Y-81750000D01*
X162297852Y-82040839D01*
X162462599Y-82287401D01*
X163043076Y-82867878D01*
X162905474Y-83073814D01*
X162791400Y-83647303D01*
X162791400Y-85052697D01*
X162905474Y-85626186D01*
X163230330Y-86112367D01*
X163421346Y-86240000D01*
X160078654Y-86240000D01*
X160269670Y-86112367D01*
X160594526Y-85626186D01*
X160708600Y-85052697D01*
X160708600Y-83647303D01*
X160594526Y-83073814D01*
X160269670Y-82587633D01*
X159970000Y-82387400D01*
X159970000Y-73612600D01*
X160269670Y-73412367D01*
X160594526Y-72926186D01*
X160708600Y-72352697D01*
X160708600Y-70947303D01*
X160594526Y-70373814D01*
X160269670Y-69887633D01*
X159783489Y-69562777D01*
X159210000Y-69448703D01*
X158636511Y-69562777D01*
X158150330Y-69887633D01*
X157825474Y-70373814D01*
X157711400Y-70947303D01*
X157711400Y-72352697D01*
X157825474Y-72926186D01*
X158150330Y-73412367D01*
X158450000Y-73612600D01*
X158450000Y-82387400D01*
X158150330Y-82587633D01*
X157825474Y-83073814D01*
X157711400Y-83647303D01*
X157711400Y-85052697D01*
X157825474Y-85626186D01*
X158150330Y-86112367D01*
X158341346Y-86240000D01*
X152564802Y-86240000D01*
X150137401Y-83812599D01*
X149890839Y-83647852D01*
X149600000Y-83590000D01*
X149027202Y-83590000D01*
X148924526Y-83073814D01*
X148599670Y-82587633D01*
X148113489Y-82262777D01*
X147540000Y-82148703D01*
X147484538Y-82159735D01*
X147010000Y-81685198D01*
X147010000Y-73745873D01*
X147540000Y-73851297D01*
X148113489Y-73737223D01*
X148599670Y-73412367D01*
X148924526Y-72926186D01*
X149038600Y-72352697D01*
X149038600Y-70947303D01*
X148924526Y-70373814D01*
X148599670Y-69887633D01*
X148113489Y-69562777D01*
X147540000Y-69448703D01*
X146966511Y-69562777D01*
X146703391Y-69738589D01*
X144627401Y-67662599D01*
X144380839Y-67497852D01*
X144090000Y-67440000D01*
X140640757Y-67440000D01*
X140614090Y-67398559D01*
X140401890Y-67253569D01*
X140368510Y-67246809D01*
X140509699Y-67188327D01*
X140688327Y-67009698D01*
X140785000Y-66776309D01*
X140785000Y-66585750D01*
X140626250Y-66427000D01*
X139627000Y-66427000D01*
X139627000Y-66447000D01*
X139373000Y-66447000D01*
X139373000Y-66427000D01*
X138373750Y-66427000D01*
X138215000Y-66585750D01*
X138215000Y-66776309D01*
X138311673Y-67009698D01*
X138490301Y-67188327D01*
X138626287Y-67244654D01*
X138614683Y-67246838D01*
X138398559Y-67385910D01*
X138253569Y-67598110D01*
X138202560Y-67850000D01*
X138202560Y-68550000D01*
X138246838Y-68785317D01*
X138385910Y-69001441D01*
X138598110Y-69146431D01*
X138850000Y-69197440D01*
X140150000Y-69197440D01*
X140385317Y-69153162D01*
X140601441Y-69014090D01*
X140638399Y-68960000D01*
X143775198Y-68960000D01*
X146041400Y-71226202D01*
X146041400Y-72073798D01*
X145712599Y-72402599D01*
X145547852Y-72649161D01*
X145490000Y-72940000D01*
X145490000Y-82000000D01*
X145547852Y-82290839D01*
X145712599Y-82537401D01*
X146192940Y-83017742D01*
X146155474Y-83073814D01*
X146041400Y-83647303D01*
X146041400Y-85052697D01*
X146155474Y-85626186D01*
X146480330Y-86112367D01*
X146966511Y-86437223D01*
X147540000Y-86551297D01*
X148113489Y-86437223D01*
X148599670Y-86112367D01*
X148924526Y-85626186D01*
X149027202Y-85110000D01*
X149285198Y-85110000D01*
X151165198Y-86990000D01*
X140814802Y-86990000D01*
X137637401Y-83812599D01*
X137390839Y-83647852D01*
X137100000Y-83590000D01*
X132527202Y-83590000D01*
X132424526Y-83073814D01*
X132099670Y-82587633D01*
X131613489Y-82262777D01*
X131040000Y-82148703D01*
X130510000Y-82254127D01*
X130510000Y-73745873D01*
X131040000Y-73851297D01*
X131613489Y-73737223D01*
X132099670Y-73412367D01*
X132424526Y-72926186D01*
X132538600Y-72352697D01*
X132538600Y-70947303D01*
X140961400Y-70947303D01*
X140961400Y-72352697D01*
X141075474Y-72926186D01*
X141400330Y-73412367D01*
X141700000Y-73612600D01*
X141700000Y-82387400D01*
X141400330Y-82587633D01*
X141075474Y-83073814D01*
X140961400Y-83647303D01*
X140961400Y-85052697D01*
X141075474Y-85626186D01*
X141400330Y-86112367D01*
X141886511Y-86437223D01*
X142460000Y-86551297D01*
X143033489Y-86437223D01*
X143519670Y-86112367D01*
X143844526Y-85626186D01*
X143958600Y-85052697D01*
X143958600Y-83647303D01*
X143844526Y-83073814D01*
X143519670Y-82587633D01*
X143220000Y-82387400D01*
X143220000Y-73612600D01*
X143519670Y-73412367D01*
X143844526Y-72926186D01*
X143958600Y-72352697D01*
X143958600Y-70947303D01*
X143844526Y-70373814D01*
X143519670Y-69887633D01*
X143033489Y-69562777D01*
X142460000Y-69448703D01*
X141886511Y-69562777D01*
X141400330Y-69887633D01*
X141075474Y-70373814D01*
X140961400Y-70947303D01*
X132538600Y-70947303D01*
X132424526Y-70373814D01*
X132099670Y-69887633D01*
X131613489Y-69562777D01*
X131040000Y-69448703D01*
X130466511Y-69562777D01*
X130203391Y-69738589D01*
X128927401Y-68462599D01*
X128680839Y-68297852D01*
X128390000Y-68240000D01*
X124314802Y-68240000D01*
X124297440Y-68222638D01*
X124297440Y-67850000D01*
X124253162Y-67614683D01*
X124114090Y-67398559D01*
X123901890Y-67253569D01*
X123868510Y-67246809D01*
X124009699Y-67188327D01*
X124188327Y-67009698D01*
X124285000Y-66776309D01*
X124285000Y-66585750D01*
X124126250Y-66427000D01*
X123127000Y-66427000D01*
X123127000Y-66447000D01*
X122873000Y-66447000D01*
X122873000Y-66427000D01*
X121873750Y-66427000D01*
X121715000Y-66585750D01*
X121715000Y-66776309D01*
X121811673Y-67009698D01*
X121990301Y-67188327D01*
X122126287Y-67244654D01*
X122114683Y-67246838D01*
X121898559Y-67385910D01*
X121753569Y-67598110D01*
X121702560Y-67850000D01*
X121702560Y-68550000D01*
X121746838Y-68785317D01*
X121885910Y-69001441D01*
X122098110Y-69146431D01*
X122350000Y-69197440D01*
X123122638Y-69197440D01*
X123462599Y-69537401D01*
X123709161Y-69702148D01*
X124000000Y-69760000D01*
X125091346Y-69760000D01*
X124900330Y-69887633D01*
X124575474Y-70373814D01*
X124461400Y-70947303D01*
X124461400Y-72352697D01*
X124575474Y-72926186D01*
X124900330Y-73412367D01*
X125200000Y-73612600D01*
X125200000Y-82387400D01*
X124900330Y-82587633D01*
X124575474Y-83073814D01*
X124461400Y-83647303D01*
X124461400Y-85052697D01*
X124575474Y-85626186D01*
X124900330Y-86112367D01*
X125386511Y-86437223D01*
X125960000Y-86551297D01*
X126390803Y-86465605D01*
X126915198Y-86990000D01*
X123314802Y-86990000D01*
X121010000Y-84685198D01*
X121010000Y-65823691D01*
X121715000Y-65823691D01*
X121715000Y-66014250D01*
X121873750Y-66173000D01*
X122873000Y-66173000D01*
X122873000Y-65473750D01*
X123127000Y-65473750D01*
X123127000Y-66173000D01*
X124126250Y-66173000D01*
X124285000Y-66014250D01*
X124285000Y-65823691D01*
X124188327Y-65590302D01*
X124126198Y-65528172D01*
X124332538Y-65528172D01*
X124737709Y-66508761D01*
X125487293Y-67259655D01*
X126467173Y-67666536D01*
X127528172Y-67667462D01*
X128508761Y-67262291D01*
X129259655Y-66512707D01*
X129545758Y-65823691D01*
X138215000Y-65823691D01*
X138215000Y-66014250D01*
X138373750Y-66173000D01*
X139373000Y-66173000D01*
X139373000Y-65473750D01*
X139627000Y-65473750D01*
X139627000Y-66173000D01*
X140626250Y-66173000D01*
X140785000Y-66014250D01*
X140785000Y-65823691D01*
X154715000Y-65823691D01*
X154715000Y-66014250D01*
X154873750Y-66173000D01*
X155873000Y-66173000D01*
X155873000Y-65473750D01*
X156127000Y-65473750D01*
X156127000Y-66173000D01*
X157126250Y-66173000D01*
X157285000Y-66014250D01*
X157285000Y-65823691D01*
X157188327Y-65590302D01*
X157009699Y-65411673D01*
X156776310Y-65315000D01*
X156285750Y-65315000D01*
X156127000Y-65473750D01*
X155873000Y-65473750D01*
X155714250Y-65315000D01*
X155223690Y-65315000D01*
X154990301Y-65411673D01*
X154811673Y-65590302D01*
X154715000Y-65823691D01*
X140785000Y-65823691D01*
X140688327Y-65590302D01*
X140509699Y-65411673D01*
X140276310Y-65315000D01*
X139785750Y-65315000D01*
X139627000Y-65473750D01*
X139373000Y-65473750D01*
X139214250Y-65315000D01*
X138723690Y-65315000D01*
X138490301Y-65411673D01*
X138311673Y-65590302D01*
X138215000Y-65823691D01*
X129545758Y-65823691D01*
X129666536Y-65532827D01*
X129667462Y-64471828D01*
X129262291Y-63491239D01*
X128512707Y-62740345D01*
X127532827Y-62333464D01*
X126471828Y-62332538D01*
X125491239Y-62737709D01*
X124740345Y-63487293D01*
X124333464Y-64467173D01*
X124332538Y-65528172D01*
X124126198Y-65528172D01*
X124009699Y-65411673D01*
X123776310Y-65315000D01*
X123285750Y-65315000D01*
X123127000Y-65473750D01*
X122873000Y-65473750D01*
X122714250Y-65315000D01*
X122223690Y-65315000D01*
X121990301Y-65411673D01*
X121811673Y-65590302D01*
X121715000Y-65823691D01*
X121010000Y-65823691D01*
X121010000Y-55000000D01*
X120952148Y-54709161D01*
X120787401Y-54462599D01*
X120540839Y-54297852D01*
X120250000Y-54240000D01*
X119300944Y-54240000D01*
X119293117Y-54221057D01*
X119030327Y-53957808D01*
X118686799Y-53815162D01*
X118314833Y-53814838D01*
X117971057Y-53956883D01*
X117707808Y-54219673D01*
X117565162Y-54563201D01*
X117564838Y-54935167D01*
X112710000Y-54935167D01*
X112710000Y-51710000D01*
X210290000Y-51710000D01*
X210290000Y-149290000D01*
G36*
X167462599Y-104287401D02*
X167709160Y-104452148D01*
X168000000Y-104510000D01*
X175185198Y-104510000D01*
X177280000Y-106604802D01*
X177280000Y-115132046D01*
X176989946Y-115325853D01*
X176770000Y-115655026D01*
X176550054Y-115325853D01*
X176068285Y-115003946D01*
X175500000Y-114890907D01*
X174931715Y-115003946D01*
X174449946Y-115325853D01*
X174222298Y-115666553D01*
X174155183Y-115523642D01*
X173726924Y-115133355D01*
X173316890Y-114963524D01*
X173087000Y-115084845D01*
X173087000Y-116278000D01*
X173107000Y-116278000D01*
X173107000Y-116532000D01*
X173087000Y-116532000D01*
X173087000Y-117725155D01*
X173316890Y-117846476D01*
X173726924Y-117676645D01*
X174155183Y-117286358D01*
X174222298Y-117143447D01*
X174449946Y-117484147D01*
X174931715Y-117806054D01*
X175500000Y-117919093D01*
X176068285Y-117806054D01*
X176550054Y-117484147D01*
X176770000Y-117154974D01*
X176989946Y-117484147D01*
X177471715Y-117806054D01*
X178040000Y-117919093D01*
X178608285Y-117806054D01*
X179090054Y-117484147D01*
X179310000Y-117154974D01*
X179529946Y-117484147D01*
X180011715Y-117806054D01*
X180580000Y-117919093D01*
X181148285Y-117806054D01*
X181630054Y-117484147D01*
X181850000Y-117154974D01*
X182069946Y-117484147D01*
X182551715Y-117806054D01*
X183120000Y-117919093D01*
X183688285Y-117806054D01*
X184170054Y-117484147D01*
X184390000Y-117154974D01*
X184609946Y-117484147D01*
X185091715Y-117806054D01*
X185660000Y-117919093D01*
X186228285Y-117806054D01*
X186710054Y-117484147D01*
X186930000Y-117154974D01*
X187149946Y-117484147D01*
X187631715Y-117806054D01*
X188200000Y-117919093D01*
X188768285Y-117806054D01*
X189250054Y-117484147D01*
X189470000Y-117154974D01*
X189689946Y-117484147D01*
X190171715Y-117806054D01*
X190740000Y-117919093D01*
X191308285Y-117806054D01*
X191790054Y-117484147D01*
X192010000Y-117154974D01*
X192229946Y-117484147D01*
X192711715Y-117806054D01*
X193280000Y-117919093D01*
X193848285Y-117806054D01*
X194330054Y-117484147D01*
X194550000Y-117154974D01*
X194769946Y-117484147D01*
X195251715Y-117806054D01*
X195820000Y-117919093D01*
X196388285Y-117806054D01*
X196870054Y-117484147D01*
X197090000Y-117154974D01*
X197309946Y-117484147D01*
X197791715Y-117806054D01*
X198360000Y-117919093D01*
X198928285Y-117806054D01*
X199410054Y-117484147D01*
X199630000Y-117154974D01*
X199849946Y-117484147D01*
X200331715Y-117806054D01*
X200900000Y-117919093D01*
X201468285Y-117806054D01*
X201950054Y-117484147D01*
X202170000Y-117154974D01*
X202389946Y-117484147D01*
X202420581Y-117504617D01*
X201685198Y-118240000D01*
X168000000Y-118240000D01*
X167709161Y-118297852D01*
X167462599Y-118462599D01*
X167010000Y-118915198D01*
X167010000Y-115555000D01*
X168922560Y-115555000D01*
X168922560Y-117255000D01*
X168966838Y-117490317D01*
X169105910Y-117706441D01*
X169318110Y-117851431D01*
X169570000Y-117902440D01*
X171270000Y-117902440D01*
X171505317Y-117858162D01*
X171721441Y-117719090D01*
X171866431Y-117506890D01*
X171888301Y-117398893D01*
X172193076Y-117676645D01*
X172603110Y-117846476D01*
X172833000Y-117725155D01*
X172833000Y-116532000D01*
X172813000Y-116532000D01*
X172813000Y-116278000D01*
X172833000Y-116278000D01*
X172833000Y-115084845D01*
X172603110Y-114963524D01*
X172193076Y-115133355D01*
X171890063Y-115409501D01*
X171873162Y-115319683D01*
X171734090Y-115103559D01*
X171521890Y-114958569D01*
X171270000Y-114907560D01*
X169570000Y-114907560D01*
X169334683Y-114951838D01*
X169118559Y-115090910D01*
X168973569Y-115303110D01*
X168922560Y-115555000D01*
X167010000Y-115555000D01*
X167010000Y-104250000D01*
X166952148Y-103959161D01*
X166787401Y-103712599D01*
X166685122Y-103610320D01*
X166685162Y-103564833D01*
X166646527Y-103471329D01*
X167462599Y-104287401D01*
X167462599Y-104287401D01*
G37*
X167462599Y-104287401D02*
X167709160Y-104452148D01*
X168000000Y-104510000D01*
X175185198Y-104510000D01*
X177280000Y-106604802D01*
X177280000Y-115132046D01*
X176989946Y-115325853D01*
X176770000Y-115655026D01*
X176550054Y-115325853D01*
X176068285Y-115003946D01*
X175500000Y-114890907D01*
X174931715Y-115003946D01*
X174449946Y-115325853D01*
X174222298Y-115666553D01*
X174155183Y-115523642D01*
X173726924Y-115133355D01*
X173316890Y-114963524D01*
X173087000Y-115084845D01*
X173087000Y-116278000D01*
X173107000Y-116278000D01*
X173107000Y-116532000D01*
X173087000Y-116532000D01*
X173087000Y-117725155D01*
X173316890Y-117846476D01*
X173726924Y-117676645D01*
X174155183Y-117286358D01*
X174222298Y-117143447D01*
X174449946Y-117484147D01*
X174931715Y-117806054D01*
X175500000Y-117919093D01*
X176068285Y-117806054D01*
X176550054Y-117484147D01*
X176770000Y-117154974D01*
X176989946Y-117484147D01*
X177471715Y-117806054D01*
X178040000Y-117919093D01*
X178608285Y-117806054D01*
X179090054Y-117484147D01*
X179310000Y-117154974D01*
X179529946Y-117484147D01*
X180011715Y-117806054D01*
X180580000Y-117919093D01*
X181148285Y-117806054D01*
X181630054Y-117484147D01*
X181850000Y-117154974D01*
X182069946Y-117484147D01*
X182551715Y-117806054D01*
X183120000Y-117919093D01*
X183688285Y-117806054D01*
X184170054Y-117484147D01*
X184390000Y-117154974D01*
X184609946Y-117484147D01*
X185091715Y-117806054D01*
X185660000Y-117919093D01*
X186228285Y-117806054D01*
X186710054Y-117484147D01*
X186930000Y-117154974D01*
X187149946Y-117484147D01*
X187631715Y-117806054D01*
X188200000Y-117919093D01*
X188768285Y-117806054D01*
X189250054Y-117484147D01*
X189470000Y-117154974D01*
X189689946Y-117484147D01*
X190171715Y-117806054D01*
X190740000Y-117919093D01*
X191308285Y-117806054D01*
X191790054Y-117484147D01*
X192010000Y-117154974D01*
X192229946Y-117484147D01*
X192711715Y-117806054D01*
X193280000Y-117919093D01*
X193848285Y-117806054D01*
X194330054Y-117484147D01*
X194550000Y-117154974D01*
X194769946Y-117484147D01*
X195251715Y-117806054D01*
X195820000Y-117919093D01*
X196388285Y-117806054D01*
X196870054Y-117484147D01*
X197090000Y-117154974D01*
X197309946Y-117484147D01*
X197791715Y-117806054D01*
X198360000Y-117919093D01*
X198928285Y-117806054D01*
X199410054Y-117484147D01*
X199630000Y-117154974D01*
X199849946Y-117484147D01*
X200331715Y-117806054D01*
X200900000Y-117919093D01*
X201468285Y-117806054D01*
X201950054Y-117484147D01*
X202170000Y-117154974D01*
X202389946Y-117484147D01*
X202420581Y-117504617D01*
X201685198Y-118240000D01*
X168000000Y-118240000D01*
X167709161Y-118297852D01*
X167462599Y-118462599D01*
X167010000Y-118915198D01*
X167010000Y-115555000D01*
X168922560Y-115555000D01*
X168922560Y-117255000D01*
X168966838Y-117490317D01*
X169105910Y-117706441D01*
X169318110Y-117851431D01*
X169570000Y-117902440D01*
X171270000Y-117902440D01*
X171505317Y-117858162D01*
X171721441Y-117719090D01*
X171866431Y-117506890D01*
X171888301Y-117398893D01*
X172193076Y-117676645D01*
X172603110Y-117846476D01*
X172833000Y-117725155D01*
X172833000Y-116532000D01*
X172813000Y-116532000D01*
X172813000Y-116278000D01*
X172833000Y-116278000D01*
X172833000Y-115084845D01*
X172603110Y-114963524D01*
X172193076Y-115133355D01*
X171890063Y-115409501D01*
X171873162Y-115319683D01*
X171734090Y-115103559D01*
X171521890Y-114958569D01*
X171270000Y-114907560D01*
X169570000Y-114907560D01*
X169334683Y-114951838D01*
X169118559Y-115090910D01*
X168973569Y-115303110D01*
X168922560Y-115555000D01*
X167010000Y-115555000D01*
X167010000Y-104250000D01*
X166952148Y-103959161D01*
X166787401Y-103712599D01*
X166685122Y-103610320D01*
X166685162Y-103564833D01*
X166646527Y-103471329D01*
X167462599Y-104287401D01*
M02*
